<svg width="484" height="167" viewBox="0 0 484 167" fill="none" xmlns="http://www.w3.org/2000/svg">
<path d="M94.2 97.3999V115.9H78.1V141.4H55.5V115.9H0V94.4999L44.4 24.8999H68.2H69.7L23.5 97.3999H55.5V73.8999H78.1V97.3999H94.2Z" fill="#5440D1"/>
<path d="M61.5 73.8999H55.5V97.3999H61.5V73.8999Z" fill="#5440D1"/>
<path d="M50.4 24.8999H44.4L0 94.4999V115.9H6V94.4999L50.4 24.8999Z" fill="#5440D1"/>
<path d="M61.5 115.9H55.5V141.4H61.5V115.9Z" fill="#5440D1"/>
<path d="M188.8 44.4C194.1 54.9 196.9 67.9 196.9 83.1C196.9 98.3 194.2 111.4 188.8 121.8C181.3 136.2 168.8 144.2 151.5 144.2C134.2 144.2 121.7 136.1 114.2 121.8C108.9 111.3 106.1 98.3 106.1 83.1C106.1 67.9 108.8 54.8 114.2 44.4C121.7 30 134.2 22 151.5 22C168.8 22 181.3 30 188.8 44.4ZM134.5 53.7C131.2 61.1 129.5 70.8 129.5 83.2C129.5 95.5 131.2 105.3 134.5 112.7C138.1 120.8 143.8 124.7 151.5 124.7C159.2 124.7 164.9 120.8 168.5 112.7C171.8 105.3 173.5 95.6 173.5 83.2C173.5 70.9 171.8 61.1 168.5 53.7C164.9 45.6 159.2 41.7 151.5 41.7C143.8 41.7 138.1 45.6 134.5 53.7Z" fill="#5440D1"/>
<path d="M305.3 97.3999V115.9H289.2V141.4H266.6V115.9H211.1V94.4999L255.5 24.8999H280.9L234.6 97.3999H266.6V73.8999H289.2V97.3999H305.3Z" fill="#5440D1"/>
<path d="M463.6 35.8H429.1V1.30005L463.6 35.8Z" fill="#5440D1"/>
<path d="M481.5 124.5C483.8 126.8 483.8 130.6 481.5 132.9C480.3 134.1 478.8 134.7 477.3 134.7C475.8 134.7 474.3 134.1 473.1 132.9L463.7 123.5L444.2 104L448.5 99.7001L452.6 95.6001L463.7 106.8L481.5 124.5Z" fill="#5440D1"/>
<path d="M442 59.2C451.4 68.6 451.4 83.9 442 93.3C432.6 102.7 417.3 102.7 407.9 93.3C398.5 83.9 398.5 68.6 407.9 59.2C417.3 49.7 432.6 49.7 442 59.2ZM437.6 88.8C444.6 81.8 444.6 70.5 437.6 63.5C430.6 56.5 419.3 56.5 412.4 63.5C405.4 70.5 405.4 81.8 412.4 88.8C419.3 95.8 430.6 95.8 437.6 88.8Z" fill="#5440D1"/>
<path d="M464.9 166.3H341.3V0H429.6L464.9 35.3V108.6H462.4V36.3L428.6 2.5H343.8V163.8H462.4V123.4H464.9V166.3Z" fill="#5440D1"/>
<path d="M388.9 70.1001V70.2001L389 70.1001C389 70.0001 389 70.0001 388.9 70.1001Z" fill="#5440D1"/>
<path d="M388.3 70.5002C388.2 70.6002 388.2 70.8002 388.3 70.8002C388.3 70.6002 388.4 70.6002 388.4 70.5002C388.5 70.4002 388.6 70.4002 388.6 70.4002C388.6 70.4002 388.7 70.3002 388.8 70.2002C388.6 70.3002 388.5 70.4002 388.3 70.5002C388.3 70.5002 388.3 70.6002 388.3 70.5002Z" fill="#5440D1"/>
<path d="M387.3 71.8001C387.3 71.8001 387.4 71.7001 387.3 71.8001V71.8001Z" fill="#5440D1"/>
<path d="M382.2 72.7H382.3C382.2 72.7 382.4 72.4 382.2 72.7Z" fill="#5440D1"/>
<path d="M379.4 79.9001C379.3 79.9001 379.3 80.0001 379.2 80.0001L379.4 79.9001Z" fill="#5440D1"/>
<path d="M388.8 82.5001C388.9 82.5001 388.9 82.5001 388.9 82.5001H388.8C388.7 82.3001 388.7 82.3001 388.7 82.3001C388.4 82.0001 388.7 82.5001 388.4 82.1001C388.4 82.1001 388.4 82.1001 388.5 82.1001C388.2 81.8001 387.9 81.5001 387.6 81.2001C387.6 81.0001 387.9 81.4001 387.8 81.3001C387.4 80.9001 386.9 80.5001 386.5 80.1001L386.6 80.2001C386.5 80.2001 386.4 79.9001 386.1 79.7001C386.2 79.7001 386.2 79.7001 386.2 79.7001C385.9 79.4001 385.6 79.2001 385.2 78.8001H385.3C385.2 78.6001 384.9 78.4001 384.7 78.2001C384.6 78.2001 384.5 78.1001 384.6 78.2001C384.2 77.5001 383.5 77.3001 383.1 76.7001C383.2 76.8001 383.3 76.8001 383.2 76.8001L382.8 76.5001C382.8 76.5001 382.8 76.5001 382.8 76.6001C382.7 76.6001 382.6 76.5001 382.5 76.4001C382.7 76.5001 382.6 76.4001 382.6 76.4001C382.6 76.4001 382.6 76.4001 382.7 76.4001C382.7 76.4001 382.7 76.4001 382.6 76.4001C382.9 76.3001 382.5 76.3001 382.8 76.1001C382.9 76.0001 383 75.9001 383.1 75.7001C383.2 75.7001 383 75.8001 383 75.9001C383.2 75.7001 383.2 75.5001 383.4 75.4001L383.2 75.7001C383.4 75.6001 383.4 75.6001 383.5 75.5001L383.8 75.2001L383.7 75.3001C383.8 75.0001 384.1 74.9001 384.3 74.5001C384.1 74.8001 384.3 74.6001 384.3 74.7001C384.4 74.6001 384.5 74.6001 384.5 74.6001C384.6 74.4001 384.8 74.4001 384.9 74.2001C384.9 74.2001 385 74.1001 385.1 74.1001C385.3 73.9001 385 74.1001 385 74.1001C385.2 73.8001 385.7 73.6001 386 73.1001C386.3 72.8001 386.3 72.6001 386.5 72.4001L386.6 72.3001C386.7 72.3001 386.6 72.4001 386.6 72.4001C386.8 72.3001 386.9 72.1001 387 72.0001C387 72.0001 387 72.0001 387.1 72.0001C387.2 71.9001 387.1 71.9001 387.3 71.7001C387.3 71.7001 387.3 71.8001 387.2 71.9001C387.3 71.7001 387.5 71.6001 387.6 71.4001C387.7 71.4001 387.6 71.5001 387.5 71.6001C387.7 71.4001 387.9 71.1001 387.9 71.0001L387.8 71.1001C387.9 71.0001 387.9 71.1001 387.8 71.2001C387.7 71.4001 387.6 71.4001 387.5 71.4001L387.6 71.3001C387.4 71.3001 387.2 71.7001 387 72.0001V71.9001L388.6 70.3001C388.7 70.3001 388.9 70.2001 388.6 69.9001L388.3 69.7001V69.6001L388.5 69.8001C388.4 69.6001 388.3 69.6001 388.2 69.6001C388.2 69.6001 388.2 69.5001 388.1 69.5001L387.8 69.3001C387.8 69.2001 388 69.3001 387.8 69.2001C387.7 69.1001 387.8 69.4001 387.6 69.2001C387.5 69.0001 387.6 69.1001 387.4 68.9001C387.4 68.9001 387.4 68.9001 387.5 68.9001C387.4 68.9001 387.3 68.8001 387.3 68.7001C387.2 68.6001 387.1 68.5001 387 68.5001C386.9 68.4001 386.9 68.3001 386.8 68.2001C386.6 68.4001 386.4 68.6001 386.4 68.5001C386.3 68.6001 386.2 68.8001 386.1 68.9001C386.2 68.6001 385.7 69.3001 385.6 69.2001C385.5 69.4001 385.1 69.8001 384.9 70.1001C384.9 70.1001 384.9 70.0001 385 70.0001C384.8 70.1001 384.8 70.2001 384.7 70.2001C384.8 70.3001 384.5 70.5001 384.5 70.7001C384.3 70.8001 384.5 70.5001 384.4 70.5001C384.5 70.5001 384.1 70.9001 384.2 70.9001C384 71.0001 384.1 71.0001 383.9 71.0001C384 71.1001 383.8 71.1001 383.7 71.3001C383.5 71.5001 383.6 71.3001 383.4 71.5001C383.3 71.6001 383.4 71.4001 383.4 71.4001C383.2 71.6001 383.4 71.6001 383.3 71.7001C383.1 72.0001 383.1 71.8001 383 71.8001C382.9 72.0001 382.8 72.2001 382.7 72.3001C382.6 72.5001 382.2 72.8001 382 73.1001C382.1 73.1001 382.1 73.1001 382.1 73.2001C382 73.3001 382 73.4001 381.9 73.4001C382 73.3001 382 73.3001 382 73.3001L381.9 73.4001C381.7 73.4001 382 73.2001 382 73.2001C381.8 73.4001 381.6 73.7001 381.5 73.9001C381.4 73.9001 381.8 73.5001 381.6 73.7001L382 73.0001C381.7 73.1001 382.2 72.9001 381.9 72.9001C381.6 73.2001 381.6 73.3001 381.2 73.6001C381.2 73.7001 381.3 73.6001 381.2 73.7001C381 74.0001 380.9 74.0001 380.8 74.0001C380.7 74.0001 380.7 74.0001 380.7 74.1001C380.7 74.2001 380.6 74.3001 380.5 74.0001H380.6C380.3 73.7001 380.3 73.9001 380.1 73.6001C380.2 73.6001 380.4 73.8001 380.3 73.8001C380.1 73.5001 380.1 73.7001 380 73.5001V73.4001C379.7 73.1001 379.3 72.7001 378.9 72.4001C378.9 72.4001 379 72.4001 379 72.3001C378.5 71.9001 378 71.3001 377.6 70.8001L377.4 70.7001V70.6001C377.2 70.4001 377.4 70.6001 377.3 70.6001C377.2 70.5001 377.2 70.4001 377.3 70.5001C377 70.2001 376.3 69.7001 376.1 69.3001H376.2C376 69.0001 375.8 69.1001 375.6 68.8001H375.7L375.2 68.3001C375 68.1001 374.8 67.9001 374.5 67.6001C374.3 67.7001 374.2 67.9001 374 68.0001C373.9 68.1001 373.8 68.2001 373.7 68.2001C373.7 68.4001 373.1 68.7001 373.2 68.8001C373 68.9001 372.9 69.0001 372.9 69.0001C372.8 69.0001 372.7 69.2001 372.3 69.6001C372.5 69.8001 372.7 69.9001 372.9 70.1001L372.8 70.2001L373.1 70.3001V70.5001L373.2 70.6001C373.1 70.5001 373.1 70.5001 373.1 70.5001C373.3 70.7001 373.6 71.1001 373.6 71.1001L374.1 71.6001C374.1 71.6001 374 71.5001 373.9 71.5001C374.2 71.7001 373.9 71.6001 374.2 71.8001H374.3C374.4 72.0001 374.7 72.2001 374.9 72.4001H374.8C375.2 72.8001 375.6 73.2001 376 73.6001C375.9 73.4001 376 73.4001 376.1 73.5001V73.6001C376.2 73.6001 376 73.5001 376.2 73.6001C376.3 73.8001 376.2 73.8001 376.1 73.7001L376.3 73.9001H376.2C376.3 73.9001 376.5 74.3001 376.6 74.3001C377 74.7001 377.2 74.9001 377.6 75.2001C377.7 75.2001 377.8 75.3001 377.9 75.4001C378.1 75.6001 378.3 75.9001 378.5 76.1001C378.5 76.1001 378.6 76.1001 378.6 76.2001C378.5 76.2001 378.4 76.3001 378.4 76.2001C378.1 76.5001 378 76.7001 377.5 77.1001C377.6 77.1001 377.6 77.0001 377.6 77.1001C377.5 77.2001 377.4 77.3001 377.4 77.2001C377 77.8001 376.1 78.3001 375.8 78.8001L375.4 79.3001C375.2 79.5001 375.5 79.1001 375.3 79.3001C374.9 79.8001 374.6 80.0001 374.2 80.4001C373.8 80.6001 373.2 81.4001 372.7 81.8001H372.8C372.7 81.9001 372.7 81.9001 372.6 82.0001C372.6 82.0001 372.7 81.9001 372.7 82.0001C372.6 82.1001 372.3 82.4001 372.1 82.7001C372.7 83.3001 372.9 83.5001 373.2 83.8001C373.5 84.2001 373.6 84.3001 374.3 85.0001C374.5 84.8001 374.8 84.5001 375 84.3001C375.3 84.0001 375 84.0001 375.5 83.6001L375.4 83.8001C376 83.1001 376.7 82.5001 377.3 81.8001C377.3 81.9001 377.3 81.9001 377.2 81.9001C377.4 81.8001 377.7 81.4001 377.7 81.4001C377.8 81.3001 377.8 81.4001 377.8 81.4001C378 81.3001 378.1 81.0001 378.2 81.0001V81.1001C378.3 81.0001 378.6 80.7001 378.5 80.7001C378.8 80.5001 378.9 80.2001 379.2 80.1001C379.3 79.9001 379.6 79.7001 379.6 79.6001C379.7 79.7001 380.1 79.2001 380.2 79.1001C380.2 79.2001 380.4 79.0001 380.3 79.1001C380.5 78.9001 380.6 78.8001 380.5 78.7001C380.6 78.7001 380.6 78.7001 380.6 78.6001H380.7C380.8 78.7001 380.9 78.8001 380.9 78.9001C381.5 79.4001 382 79.8001 382.4 80.3001C382.3 80.4001 381.9 79.8001 381.8 79.9001C382.3 80.3001 382.6 80.5001 383 80.9001C383.1 81.0001 382.9 80.9001 382.9 80.8001C383.4 81.2001 383.7 81.7001 384.2 82.0001C384.2 82.0001 384.1 82.0001 384.1 81.9001C384.2 82.0001 384.3 82.1001 384.3 82.0001L384.2 81.9001C384.1 81.7001 384.6 82.1001 384.7 82.1001C384.5 82.1001 385.1 82.5001 384.7 82.4001C384.8 82.4001 384.8 82.5001 384.9 82.5001C385 82.6001 385 82.6001 384.9 82.6001C385.2 82.9001 385.1 82.7001 385.4 83.0001H385.3C385.5 83.1001 385.6 83.2001 385.8 83.4001C385.8 83.4001 385.8 83.4001 385.7 83.4001C386.1 83.8001 386.4 83.9001 386.8 84.4001C386.6 84.3001 387 84.6001 387 84.8001L387.2 84.9001L387.4 84.7001L387.3 84.8001C387.4 84.7001 387.6 84.5001 387.7 84.4001C387.8 84.3001 387.9 84.2001 387.9 84.1001L387.8 84.3001L388.1 83.9001L387.9 84.1001C388.1 83.9001 387.8 84.0001 388.1 83.8001C388.1 83.9001 388.3 83.6001 388.4 83.6001C388.5 83.5001 388.5 83.4001 388.7 83.2001C388.8 83.2001 388.7 83.3001 388.8 83.3001C388.8 83.2001 389.1 83.0001 389.2 82.8001C389 82.6001 388.9 82.5001 388.8 82.5001ZM383.6 77.3001C383.6 77.4001 383.6 77.4001 383.6 77.3001L383.4 77.2001C383.4 77.3001 383.5 77.3001 383.6 77.3001ZM385.9 73.0001H385.8L386 72.8001C386 72.9001 386 72.9001 385.9 73.0001ZM387.1 71.9001C387 71.9001 387 71.9001 387.1 71.9001L387.2 71.7001L387.1 71.9001ZM378.9 72.5001L379 72.6001C379 72.5001 378.9 72.5001 378.9 72.5001ZM378.6 72.2001C378.6 72.3001 378.6 72.3001 378.6 72.2001C378.6 72.2001 378.5 72.1001 378.4 72.0001C378.5 72.1001 378.6 72.1001 378.6 72.2001Z" fill="#5440D1"/>
<path d="M384.2 81.9002C384.1 81.8002 384.1 81.9002 384.2 81.9002V81.9002Z" fill="#5440D1"/>
<path d="M388.2 83.5C388.2 83.6 388.1 83.6 388.1 83.6C388.2 83.6 388.3 83.5 388.2 83.5Z" fill="#5440D1"/>
<path d="M386.6 72.5002C386.7 72.4002 386.8 72.3002 386.9 72.2002C386.9 72.2002 386.7 72.4002 386.6 72.5002Z" fill="#5440D1"/>
<path d="M388 81.6V81.5H387.9L388 81.6Z" fill="#5440D1"/>
<path d="M433.2 70.0999V70.1999L433.3 70.0999C433.3 69.9999 433.3 69.9999 433.2 70.0999Z" fill="#5440D1"/>
<path d="M432.6 70.5C432.5 70.6 432.5 70.8 432.6 70.8C432.6 70.6 432.7 70.6 432.7 70.5C432.8 70.4 432.9 70.4 432.9 70.4C432.9 70.4 433 70.3 433.1 70.2C432.9 70.3 432.8 70.4 432.6 70.5C432.6 70.5 432.6 70.6 432.6 70.5Z" fill="#5440D1"/>
<path d="M431.6 71.8001C431.7 71.8001 431.7 71.7001 431.6 71.8001V71.8001Z" fill="#5440D1"/>
<path d="M426.5 72.7H426.6C426.5 72.7 426.7 72.4 426.5 72.7Z" fill="#5440D1"/>
<path d="M423.7 79.8999C423.6 79.8999 423.6 79.9999 423.5 79.9999L423.7 79.8999Z" fill="#5440D1"/>
<path d="M433.1 82.5001C433.2 82.5001 433.2 82.5001 433.2 82.5001H433.1C433 82.3001 433 82.3001 433 82.3001C432.7 82.0001 433 82.5001 432.7 82.1001C432.7 82.1001 432.7 82.1001 432.8 82.1001C432.5 81.8001 432.2 81.5001 431.9 81.2001C431.9 81.0001 432.2 81.4001 432.1 81.3001C431.7 80.9001 431.2 80.5001 430.8 80.1001L430.9 80.2001C430.8 80.2001 430.7 79.9001 430.4 79.7001C430.5 79.7001 430.5 79.7001 430.5 79.7001C430.2 79.4001 429.9 79.2001 429.5 78.8001H429.6C429.5 78.6001 429.2 78.4001 429 78.2001C428.9 78.2001 428.8 78.1001 428.9 78.2001C428.5 77.5001 427.8 77.3001 427.4 76.7001C427.5 76.8001 427.6 76.8001 427.5 76.8001L427.1 76.5001C427.1 76.5001 427.1 76.5001 427.1 76.6001C427 76.6001 426.9 76.5001 426.8 76.4001C427 76.5001 426.9 76.4001 426.9 76.4001C426.9 76.4001 426.9 76.4001 427 76.4001C427 76.4001 427 76.4001 426.9 76.4001C427.2 76.3001 426.8 76.3001 427.1 76.1001C427.2 76.0001 427.3 75.9001 427.4 75.7001C427.5 75.7001 427.3 75.8001 427.3 75.9001C427.5 75.7001 427.5 75.5001 427.7 75.4001L427.5 75.7001C427.7 75.6001 427.7 75.6001 427.8 75.5001L428.1 75.2001L428 75.3001C428.1 75.0001 428.4 74.9001 428.6 74.5001C428.4 74.8001 428.6 74.6001 428.6 74.7001C428.7 74.6001 428.8 74.6001 428.8 74.6001C428.9 74.4001 429.1 74.4001 429.2 74.2001C429.2 74.2001 429.3 74.1001 429.4 74.1001C429.6 73.9001 429.3 74.1001 429.3 74.1001C429.5 73.8001 430 73.6001 430.3 73.1001C430.6 72.8001 430.6 72.6001 430.8 72.4001L430.9 72.3001C431 72.3001 430.9 72.4001 430.9 72.4001C431.1 72.3001 431.2 72.1001 431.3 72.0001C431.3 72.0001 431.3 72.0001 431.4 72.0001C431.5 71.9001 431.4 71.9001 431.6 71.7001C431.6 71.7001 431.6 71.8001 431.5 71.9001C431.6 71.7001 431.8 71.6001 431.9 71.4001C432 71.4001 431.9 71.5001 431.8 71.6001C432 71.4001 432.2 71.1001 432.2 71.0001L432.1 71.1001C432.2 71.0001 432.2 71.1001 432.1 71.2001C432 71.4001 431.9 71.4001 431.8 71.4001L431.9 71.3001C431.7 71.3001 431.5 71.7001 431.3 72.0001V71.9001L432.9 70.3001C433 70.3001 433.2 70.2001 432.9 69.9001L432.6 69.7001V69.6001L432.8 69.8001C432.7 69.6001 432.6 69.6001 432.5 69.6001C432.5 69.6001 432.5 69.5001 432.4 69.5001L432.1 69.3001C432.1 69.2001 432.3 69.3001 432.1 69.2001C432 69.1001 432.1 69.4001 431.9 69.2001C431.8 69.0001 431.9 69.1001 431.7 68.9001C431.7 68.9001 431.7 68.9001 431.8 68.9001C431.7 68.9001 431.6 68.8001 431.6 68.7001C431.5 68.6001 431.4 68.5001 431.3 68.5001C431.2 68.4001 431.2 68.3001 431.1 68.2001C430.9 68.4001 430.7 68.6001 430.7 68.5001C430.6 68.6001 430.5 68.8001 430.4 68.9001C430.5 68.6001 430 69.3001 429.9 69.2001C429.8 69.4001 429.4 69.8001 429.2 70.1001C429.2 70.1001 429.2 70.0001 429.3 70.0001C429.1 70.1001 429.1 70.2001 429 70.2001C429.1 70.3001 428.8 70.5001 428.8 70.7001C428.6 70.8001 428.8 70.5001 428.7 70.5001C428.8 70.5001 428.4 70.9001 428.5 70.9001C428.3 71.0001 428.4 71.0001 428.2 71.0001C428.3 71.1001 428.1 71.1001 428 71.3001C427.8 71.5001 427.9 71.3001 427.7 71.5001C427.6 71.6001 427.7 71.4001 427.7 71.4001C427.5 71.6001 427.7 71.6001 427.6 71.7001C427.4 72.0001 427.4 71.8001 427.3 71.8001C427.2 72.0001 427.1 72.2001 427 72.3001C426.9 72.5001 426.5 72.8001 426.3 73.1001C426.4 73.1001 426.4 73.1001 426.4 73.2001C426.3 73.3001 426.3 73.4001 426.2 73.4001C426.3 73.3001 426.3 73.3001 426.3 73.3001L426.2 73.4001C426 73.4001 426.3 73.2001 426.3 73.2001C426.1 73.4001 425.9 73.7001 425.8 73.9001C425.7 73.9001 426.1 73.5001 425.9 73.7001L426.2 73.5001C425.9 73.6001 426.4 73.4001 426.1 73.4001C425.8 73.7001 425.8 73.8001 425.4 74.1001C425.4 74.2001 425.5 74.1001 425.4 74.2001C425.2 74.5001 425.1 74.5001 425 74.5001C424.9 74.5001 424.9 74.5001 424.9 74.6001C424.9 74.7001 424.8 74.8001 424.7 74.5001H424.8C424.5 74.2001 424.5 74.4001 424.3 74.1001C424.4 74.1001 424.6 74.3001 424.5 74.3001C424.3 74.0001 424.3 74.2001 424.2 74.0001V73.9001C423.9 73.6001 423.5 73.2001 423.1 72.9001C423.1 72.9001 423.2 72.9001 423.2 72.8001C422.7 72.4001 422.2 71.8001 421.8 71.3001L421.6 71.2001V71.1001C421.4 70.9001 421.6 71.1001 421.5 71.1001C421.4 71.0001 421.4 70.9001 421.5 71.0001C421.2 70.7001 420.5 70.2001 420.3 69.8001H420.4C420.2 69.5001 420 69.6001 419.8 69.3001H419.9L419.4 68.8001C419.2 68.6001 419 68.4001 418.7 68.1001C418.5 68.2001 418.4 68.4001 418.2 68.5001C418.1 68.6001 418 68.7001 417.9 68.7001C417.9 68.9001 417.3 69.2001 417.4 69.3001C417.2 69.4001 417.1 69.5001 417.1 69.5001C417 69.5001 416.9 69.7001 416.5 70.1001C416.7 70.3001 416.9 70.4001 417.1 70.6001L417 70.7001L417.3 70.8001V71.0001L417.4 71.1001C417.3 71.0001 417.3 71.0001 417.3 71.0001C417.5 71.2001 417.8 71.6001 417.8 71.6001L418.3 72.1001C418.3 72.1001 418.2 72.0001 418.1 72.0001C418.4 72.2001 418.1 72.1001 418.4 72.3001H418.5C418.6 72.5001 418.9 72.7001 419.1 72.9001H419C419.4 73.3001 419.8 73.7001 420.2 74.1001C420.1 73.9001 420.2 73.9001 420.3 74.0001V74.1001C420.4 74.1001 420.2 74.0001 420.4 74.1001C420.5 74.3001 420.4 74.3001 420.3 74.2001L420.5 74.4001H420.4C420.5 74.4001 420.7 74.8001 420.8 74.8001C421.2 75.2001 421.4 75.4001 421.8 75.7001C421.9 75.7001 422 75.8001 422.1 75.9001C422.3 76.1001 422.5 76.4001 422.7 76.6001C422.7 76.6001 422.8 76.6001 422.8 76.7001C422.7 76.7001 422.6 76.8001 422.6 76.7001C422.3 77.0001 422.2 77.2001 421.7 77.6001C421.8 77.6001 421.8 77.5001 421.8 77.6001C421.7 77.7001 421.6 77.8001 421.6 77.7001C421.2 78.3001 420.3 78.8001 420 79.3001L419.6 79.8001C419.4 80.0001 419.7 79.6001 419.5 79.8001C419.1 80.3001 418.8 80.5001 418.4 80.9001C418 81.1001 417.4 81.9001 416.9 82.3001H417C416.9 82.4001 416.9 82.4001 416.8 82.5001C416.8 82.5001 416.9 82.4001 416.9 82.5001C416.8 82.6001 416.5 82.9001 416.3 83.2001C416.9 83.8001 417.1 84.0001 417.4 84.3001C417.7 84.7001 417.8 84.8001 418.5 85.5001C418.7 85.3001 419 85.0001 419.2 84.8001C419.5 84.5001 419.2 84.5001 419.7 84.1001L419.6 84.3001C420.2 83.6001 420.9 83.0001 421.5 82.3001C421.5 82.4001 421.5 82.4001 421.4 82.4001C421.6 82.3001 421.9 81.9001 421.9 81.9001C422 81.8001 422 81.9001 422 81.9001C422.2 81.8001 422.3 81.5001 422.4 81.5001V81.6001C422.5 81.5001 422.8 81.2001 422.7 81.2001C423 81.0001 423.1 80.7001 423.4 80.6001C423.5 80.4001 423.8 80.2001 423.8 80.1001C423.9 80.2001 424.3 79.7001 424.4 79.6001C424.4 79.7001 424.6 79.5001 424.5 79.6001C424.7 79.4001 424.8 79.3001 424.7 79.2001C424.8 79.2001 424.8 79.2001 424.8 79.1001H424.9C425 79.2001 425.1 79.3001 425.1 79.4001C425.7 79.9001 426.2 80.3001 426.6 80.8001C426.5 80.9001 426.1 80.3001 426 80.4001C426.5 80.8001 426.8 81.0001 427.2 81.4001C427.3 81.5001 427.1 81.4001 427.1 81.3001C427.6 81.7001 427.9 82.2001 428.4 82.5001C428.4 82.5001 428.3 82.5001 428.3 82.4001C428.4 82.5001 428.5 82.6001 428.5 82.5001L428.4 82.4001C428.3 82.2001 428.8 82.6001 428.9 82.6001C428.7 82.6001 429.3 83.0001 428.9 82.9001C429 82.9001 429 83.0001 429.1 83.0001C429.2 83.1001 429.2 83.1001 429.1 83.1001C429.4 83.4001 429.3 83.2001 429.6 83.5001H429.5C429.7 83.6001 429.8 83.7001 430 83.9001C430 83.9001 430 83.9001 429.9 83.9001C430.3 84.3001 430.6 84.4001 431 84.9001C430.8 84.8001 431.2 85.1001 431.2 85.3001L431.4 85.4001L431.6 85.2001L431.5 85.3001C431.6 85.2001 431.8 85.0001 431.9 84.9001C432 84.8001 432.1 84.7001 432.1 84.6001L432 84.8001L432.3 84.4001L432.1 84.6001C432.3 84.4001 432 84.5001 432.3 84.3001C432.3 84.4001 432.5 84.1001 432.6 84.1001C432.7 84.0001 432.7 83.9001 432.9 83.7001C433 83.7001 432.9 83.8001 433 83.8001C433 83.7001 433.3 83.5001 433.4 83.3001C433.3 82.6001 433.2 82.5001 433.1 82.5001ZM427.9 77.3001C427.9 77.4001 427.9 77.4001 427.9 77.3001L427.7 77.2001C427.8 77.3001 427.8 77.3001 427.9 77.3001ZM430.2 73.0001H430.1L430.3 72.8001C430.3 72.9001 430.3 72.9001 430.2 73.0001ZM431.4 71.9001C431.4 71.9001 431.3 71.9001 431.4 71.9001L431.5 71.7001L431.4 71.9001ZM423.2 72.5001L423.3 72.6001C423.3 72.5001 423.3 72.5001 423.2 72.5001ZM423 72.2001C423 72.3001 422.9 72.3001 423 72.2001C423 72.2001 422.9 72.1001 422.8 72.0001C422.8 72.1001 422.9 72.1001 423 72.2001Z" fill="#5440D1"/>
<path d="M428.5 81.8999C428.4 81.7999 428.4 81.8999 428.5 81.8999V81.8999Z" fill="#5440D1"/>
<path d="M432.6 83.5C432.6 83.6 432.5 83.6 432.5 83.6C432.6 83.6 432.6 83.5 432.6 83.5Z" fill="#5440D1"/>
<path d="M431 72.5C431.1 72.4 431.2 72.3 431.3 72.2C431.3 72.2 431 72.4 431 72.5Z" fill="#5440D1"/>
<path d="M432.4 81.6L432.3 81.5H432.2L432.4 81.6Z" fill="#5440D1"/>
<path d="M409.8 110.8H389.5V113.3H409.8V110.8Z" fill="#5440D1"/>
<path d="M425 95.2999C420.1 95.2999 415.2 93.3999 411.5 89.6999C404 82.1999 404 70.0999 411.5 62.6999C418.9 55.2999 431.1 55.2999 438.5 62.6999C442.1 66.2999 444.1 71.0999 444.1 76.1999C444.1 81.2999 442.1 86.0999 438.5 89.6999C434.7 93.3999 429.9 95.2999 425 95.2999ZM425 59.5999C420.7 59.5999 416.5 61.1999 413.3 64.4999C406.8 70.9999 406.8 81.4999 413.3 87.9999C419.8 94.4999 430.3 94.4999 436.8 87.9999C439.9 84.8999 441.7 80.6999 441.7 76.2999C441.7 71.8999 440 67.6999 436.8 64.5999C433.5 61.1999 429.2 59.5999 425 59.5999Z" fill="#5440D1"/>
<path d="M450.3 76.1999C450.3 69.3999 447.7 63.0999 442.9 58.2999C438.1 53.4999 431.7 50.8999 425 50.8999C418.3 50.8999 411.9 53.4999 407.1 58.2999C402.3 63.0999 399.7 69.4999 399.7 76.1999C399.7 82.9999 402.3 89.2999 407.1 94.0999C411.9 98.8999 418.3 101.5 425 101.5C431.4 101.5 437.4 99.1999 442 94.8999L447.5 100.4L449.3 98.5999L443.8 93.0999C448 88.4999 450.3 82.4999 450.3 76.1999ZM408.8 92.2999C404.5 87.9999 402.1 82.1999 402.1 76.0999C402.1 69.9999 404.5 64.2999 408.8 59.8999C413.1 55.5999 418.9 53.1999 425 53.1999C431.1 53.1999 436.8 55.5999 441.2 59.8999C445.5 64.1999 447.9 69.9999 447.9 76.0999C447.9 82.1999 445.5 87.8999 441.2 92.2999C436.9 96.5999 431.1 98.9999 425 98.9999C418.9 98.9999 413.1 96.6999 408.8 92.2999Z" fill="#5440D1"/>
<path d="M71.2 24.8999H69.7H68.2L22.8 96.0999L21.3 98.5999H61.5V96.0999H25.8L71.2 24.8999Z" fill="#5440D1"/>
<path d="M460.6 109.6L449.5 98.3999L445.4 102.5L441.1 106.8L460.6 126.3L470 135.7C471.2 136.9 472.7 137.5 474.2 137.5C475.7 137.5 477.2 136.9 478.4 135.7L481.9 132.2L460.6 109.6Z" fill="#5440D1"/>
<path d="M481.5 124.5C483.8 126.8 483.8 130.6 481.5 132.9C480.3 134.1 478.8 134.7 477.3 134.7C475.8 134.7 474.3 134.1 473.1 132.9L463.7 123.5L444.2 104L448.5 99.7001L452.6 95.6001L463.7 106.8L481.5 124.5Z" fill="#5440D1"/>
</svg>
