<svg width="502" height="149" viewBox="0 0 502 149" fill="none" xmlns="http://www.w3.org/2000/svg">
<g clip-path="url(#clip0)">
<path d="M81.9 24.7H33.5V36.2999H81.9V24.7Z" fill="#5440D1"/>
<path d="M81.9 55.1H33.5V66.7H81.9V55.1Z" fill="#5440D1"/>
<path d="M81.9 66.7H33.5V69.7H81.9V66.7Z" fill="#5440D1"/>
<path d="M257.2 57.1C248.5 57.1 241.1 59.2 235.1 63.4L237.5 35.5H289.2V16.4H217.9L212.8 80.8L233.2 82.7C237.8 78.6 244.2 76 251.2 76C264 76 272.1 83.4 272.1 95.7C272.1 107.9 262.3 116.1 250 116.1C244.7 116.1 239.9 115.2 235.3 113.4C230.7 111.5 224.7 108.3 217.1 103.6L205.8 119.9C214.5 125.7 222.1 129.8 228.8 132.2C235.5 134.6 243 135.8 251.6 135.8C276.4 135.8 295.1 118.2 295.1 93.7C295 73.9 279.8 57.1 257.2 57.1Z" fill="#FF7F00"/>
<path d="M352.8 13.4C335.5 13.4 323 21.5 315.5 35.8C310.2 46.3 307.4 59.3 307.4 74.5C307.4 89.7 310.1 102.8 315.5 113.2C323 127.6 335.5 135.6 352.8 135.6C370.1 135.6 382.6 127.5 390.1 113.2C395.4 102.7 398.2 89.7 398.2 74.5C398.2 59.3 395.5 46.2 390.1 35.8C382.6 21.5 370.1 13.4 352.8 13.4ZM369.7 104.1C366.1 112.2 360.4 116.1 352.7 116.1C345 116.1 339.3 112.2 335.7 104.1C332.4 96.7 330.7 87 330.7 74.6C330.7 62.3 332.4 52.5 335.7 45.1C339.3 37 345 33.1 352.7 33.1C360.4 33.1 366.1 37 369.7 45.1C373 52.5 374.7 62.2 374.7 74.6C374.7 86.9 373 96.7 369.7 104.1Z" fill="#5440D1"/>
<path d="M456.2 13.4C438.9 13.4 426.4 21.5 418.9 35.8C413.6 46.3 410.8 59.3 410.8 74.5C410.8 89.7 413.5 102.8 418.9 113.2C426.4 127.6 438.9 135.6 456.2 135.6C473.5 135.6 486 127.5 493.5 113.2C498.8 102.7 501.6 89.7 501.6 74.5C501.6 59.3 498.9 46.2 493.5 35.8C486 21.5 473.5 13.4 456.2 13.4ZM473.2 104.1C469.6 112.2 463.9 116.1 456.2 116.1C448.5 116.1 442.8 112.2 439.2 104.1C435.9 96.7 434.2 87 434.2 74.6C434.2 62.3 435.9 52.5 439.2 45.1C442.8 37 448.5 33.1 456.2 33.1C463.9 33.1 469.6 37 473.2 45.1C476.5 52.5 478.2 62.2 478.2 74.6C478.2 86.9 476.5 96.7 473.2 104.1Z" fill="#5440D1"/>
<path d="M128.2 59.6H81.9V62.1H128.2V59.6Z" fill="#222020"/>
<path d="M2.5 128V88.7C2.5 82.3 7.7 77.1 14.1 77.1H23.8V85.4C23.8 87.6 24.9 89.6 26.6 90.8C24.9 92 23.8 94 23.8 96.2V115.2C23.8 118.9 26.8 121.8 30.4 121.8H145.5C149.2 121.8 152.1 118.8 152.1 115.2V96.2C152.1 94 151 92 149.3 90.8C151 89.6 152.1 87.6 152.1 85.4V84.9C164.7 84.2 174.8 73.8 174.8 61C174.8 48.2 164.8 37.6 152.1 37V36.5C152.1 34.3 151 32.3 149.3 31.1C151 29.9 152.1 27.9 152.1 25.7V6.69998C152.1 2.99998 149.1 0.0999756 145.5 0.0999756H30.4C26.7 0.0999756 23.8 3.09998 23.8 6.69998V25.7C23.8 27.9 24.9 29.9 26.6 31.1C24.9 32.3 23.8 34.3 23.8 36.5V55.5C23.8 57.7 24.9 59.7 26.6 60.9C24.9 62.1 23.8 64.1 23.8 66.3V74.6H14.1C6.3 74.6 0 80.9 0 88.7V128C0 135.8 6.3 142.1 14.1 142.1H168.6V139.6H14.1C7.7 139.6 2.5 134.4 2.5 128ZM149.6 96.1V115.1C149.6 117.4 147.7 119.2 145.5 119.2H30.4C28.1 119.2 26.3 117.3 26.3 115.1V96.1C26.3 93.8 28.2 92 30.4 92H145.5C147.8 92 149.6 93.8 149.6 96.1ZM172.3 60.9C172.3 72.7 162.7 82.3 150.9 82.3C139.1 82.3 129.5 72.7 129.5 60.9C129.5 49.1 139.1 39.5 150.9 39.5C162.7 39.5 172.3 49.1 172.3 60.9ZM26.3 66.3C26.3 64 28.2 62.2 30.4 62.2H33.5V59.7H30.4C28.1 59.7 26.3 57.8 26.3 55.6V36.6C26.3 34.3 28.2 32.5 30.4 32.5H33.5V30H30.4C28.1 30 26.3 28.1 26.3 25.9V6.89998C26.3 4.59998 28.2 2.79998 30.4 2.79998H145.5C147.8 2.79998 149.6 4.69998 149.6 6.89998V25.9C149.6 28.2 147.7 30 145.5 30H81.9V32.5H145.5C147.8 32.5 149.6 34.4 149.6 36.6V37C137.4 37.6 127.6 47.4 126.9 59.7H81.9V62.2H127C127.6 74.4 137.5 84.2 149.7 84.9V85.4C149.7 87.7 147.8 89.5 145.6 89.5H30.4C28.1 89.5 26.3 87.6 26.3 85.4V66.3Z" fill="#5440D1"/>
<path d="M181.4 148.5H174.6C170.6 148.5 167.3 145.2 167.3 141.2C167.3 137.2 170.6 133.9 174.6 133.9H181.4V148.5ZM174.6 136.4C172 136.4 169.8 138.5 169.8 141.2C169.8 143.9 171.9 146 174.6 146H178.9V136.4H174.6Z" fill="#5440D1"/>
<path d="M187.5 133.9H180.2V136.4H187.5V133.9Z" fill="#5440D1"/>
<path d="M187.3 146H180V148.5H187.3V146Z" fill="#5440D1"/>
<path d="M187.5 140H180.2V142.5H187.5V140Z" fill="#5440D1"/>
<path d="M40.9 32.6C42.0598 32.6 43 31.6598 43 30.5C43 29.3402 42.0598 28.4 40.9 28.4C39.7402 28.4 38.8 29.3402 38.8 30.5C38.8 31.6598 39.7402 32.6 40.9 32.6Z" fill="white"/>
<path d="M40.9 63C42.0598 63 43 62.0598 43 60.9001C43 59.7403 42.0598 58.8 40.9 58.8C39.7402 58.8 38.8 59.7403 38.8 60.9001C38.8 62.0598 39.7402 63 40.9 63Z" fill="white"/>
<path d="M43 111.6C40 111.6 37.5 109.1 37.5 106.1C37.5 103.1 40 100.6 43 100.6C46 100.6 48.5 103.1 48.5 106.1C48.5 109.1 46.1 111.6 43 111.6ZM43 103.1C41.4 103.1 40 104.4 40 106.1C40 107.8 41.3 109.1 43 109.1C44.7 109.1 46 107.8 46 106.1C46 104.4 44.7 103.1 43 103.1Z" fill="#5440D1"/>
<path d="M120.8 108.2C121.96 108.2 122.9 107.26 122.9 106.1C122.9 104.94 121.96 104 120.8 104C119.64 104 118.7 104.94 118.7 106.1C118.7 107.26 119.64 108.2 120.8 108.2Z" fill="#5440D1"/>
<path d="M130.3 108.2C131.46 108.2 132.4 107.26 132.4 106.1C132.4 104.94 131.46 104 130.3 104C129.14 104 128.2 104.94 128.2 106.1C128.2 107.26 129.14 108.2 130.3 108.2Z" fill="#5440D1"/>
<path d="M139.8 108.2C140.96 108.2 141.9 107.26 141.9 106.1C141.9 104.94 140.96 104 139.8 104C138.64 104 137.7 104.94 137.7 106.1C137.7 107.26 138.64 108.2 139.8 108.2Z" fill="#5440D1"/>
<path d="M81.9 36.3H33.5V39.3H81.9V36.3Z" fill="#5440D1"/>
<path d="M257.2 57.1C248.5 57.1 241.1 59.2 235.1 63.4L237.5 35.5H289.2V16.4H217.9L212.8 80.8L233.2 82.7C237.8 78.6 244.2 76 251.2 76C264 76 272.1 83.4 272.1 95.7C272.1 107.9 262.3 116.1 250 116.1C244.7 116.1 239.9 115.2 235.3 113.4C230.7 111.5 224.7 108.3 217.1 103.6L205.8 119.9C214.5 125.7 222.1 129.8 228.8 132.2C235.5 134.6 243 135.8 251.6 135.8C276.4 135.8 295.1 118.2 295.1 93.7C295 73.9 279.8 57.1 257.2 57.1Z" fill="#5440D1"/>
<path d="M218.8 80.8L223.9 16.4H217.9L212.8 80.8L218.7 81.3" fill="#5440D1"/>
<path d="M211.8 119.8L221.3 106.1C219.9 105.3 218.5 104.5 217.1 103.6L205.8 119.9C207.2 120.9 208.6 121.8 210 122.6" fill="#5440D1"/>
<path d="M235.1 63.5L233.8 63.4001L236.3 34.3H289.2V36.8H238.6L236.4 62.6L235.1 63.5Z" fill="#5440D1"/>
<path d="M163.561 68.6897C163.708 68.6897 163.708 68.6897 163.708 68.6897H163.561C163.415 68.4023 163.415 68.4023 163.415 68.4023C162.977 67.9713 163.415 68.6897 162.977 68.1149C162.977 68.1149 162.977 68.1149 163.123 68.1149C162.684 67.6839 162.246 67.2529 161.807 66.8218C161.807 66.5345 162.246 67.1092 162.099 66.9655C161.515 66.3908 160.784 65.8161 160.199 65.2414L160.345 65.3851C160.199 65.3851 160.053 64.954 159.614 64.6667C159.76 64.6667 159.76 64.6667 159.76 64.6667C159.322 64.2356 158.883 63.9483 158.298 63.3736H158.444C158.298 63.0862 157.86 62.7988 157.567 62.5115C157.421 62.5115 157.275 62.3678 157.421 62.5115C156.836 61.5057 155.813 61.2184 155.228 60.3563C155.374 60.5 155.52 60.5 155.374 60.5L154.789 60.069C154.789 60.069 154.789 60.069 154.789 60.2126C154.643 60.2126 154.497 60.069 154.351 59.9253C154.643 60.069 154.497 59.9253 154.497 59.9253C154.497 59.9253 154.497 59.9253 154.643 59.9253C154.643 59.9253 154.643 59.9253 154.497 59.9253C154.936 59.7816 154.351 59.7816 154.789 59.4943C154.936 59.3506 155.082 59.2069 155.228 58.9195C155.374 58.9195 155.082 59.0632 155.082 59.2069C155.374 58.9195 155.374 58.6322 155.667 58.4885L155.374 58.9195C155.667 58.7759 155.667 58.7759 155.813 58.6322L156.251 58.2011L156.105 58.3448C156.251 57.9138 156.69 57.7701 156.982 57.1954C156.69 57.6264 156.982 57.3391 156.982 57.4828C157.129 57.3391 157.275 57.3391 157.275 57.3391C157.421 57.0517 157.713 57.0517 157.86 56.7644C157.86 56.7644 158.006 56.6207 158.152 56.6207C158.444 56.3333 158.006 56.6207 158.006 56.6207C158.298 56.1897 159.029 55.9023 159.468 55.1839C159.906 54.7529 159.906 54.4655 160.199 54.1782L160.345 54.0345C160.491 54.0345 160.345 54.1782 160.345 54.1782C160.637 54.0345 160.784 53.7471 160.93 53.6035C160.93 53.6035 160.93 53.6035 161.076 53.6035C161.222 53.4598 161.076 53.4598 161.368 53.1724C161.368 53.1724 161.368 53.3161 161.222 53.4598C161.368 53.1724 161.661 53.0287 161.807 52.7414C161.953 52.7414 161.807 52.8851 161.661 53.0287C161.953 52.7414 162.246 52.3103 162.246 52.1667L162.099 52.3103C162.246 52.1667 162.246 52.3103 162.099 52.454C161.953 52.7414 161.807 52.7414 161.661 52.7414L161.807 52.5977C161.515 52.5977 161.222 53.1724 160.93 53.6035V53.4598L163.269 51.1609C163.415 51.1609 163.708 51.0172 163.269 50.5862L162.83 50.2988V50.1552L163.123 50.4425C162.977 50.1552 162.83 50.1552 162.684 50.1552C162.684 50.1552 162.684 50.0115 162.538 50.0115L162.099 49.7241C162.099 49.5805 162.392 49.7241 162.099 49.5805C161.953 49.4368 162.099 49.8678 161.807 49.5805C161.661 49.2931 161.807 49.4368 161.515 49.1494C161.515 49.1494 161.515 49.1494 161.661 49.1494C161.515 49.1494 161.368 49.0057 161.368 48.8621C161.222 48.7184 161.076 48.5747 160.93 48.5747C160.784 48.431 160.784 48.2874 160.637 48.1437C160.345 48.431 160.053 48.7184 160.053 48.5747C159.906 48.7184 159.76 49.0058 159.614 49.1494C159.76 48.7184 159.029 49.7241 158.883 49.5805C158.737 49.8678 158.152 50.4425 157.86 50.8736C157.86 50.8736 157.86 50.7299 158.006 50.7299C157.713 50.8736 157.713 51.0172 157.567 51.0172C157.713 51.1609 157.275 51.4483 157.275 51.7356C156.982 51.8793 157.275 51.4483 157.129 51.4483C157.275 51.4483 156.69 52.023 156.836 52.023C156.544 52.1667 156.69 52.1667 156.398 52.1667C156.544 52.3103 156.251 52.3104 156.105 52.5977C155.813 52.8851 155.959 52.5977 155.667 52.8851C155.52 53.0287 155.667 52.7414 155.667 52.7414C155.374 53.0287 155.667 53.0287 155.52 53.1724C155.228 53.6034 155.228 53.3161 155.082 53.3161C154.936 53.6035 154.789 53.8908 154.643 54.0345C154.497 54.3218 153.912 54.7529 153.62 55.1839C153.766 55.1839 153.766 55.1839 153.766 55.3276C153.62 55.4713 153.62 55.6149 153.474 55.6149C153.62 55.4713 153.62 55.4713 153.62 55.4713L153.474 55.6149C153.181 55.6149 153.62 55.3276 153.62 55.3276C153.327 55.6149 153.035 56.046 152.889 56.3333C152.743 56.3333 153.327 55.7586 153.035 56.046L153.474 55.7586C153.035 55.9023 153.766 55.6149 153.328 55.6149C152.889 56.046 152.889 56.1897 152.304 56.6207C152.304 56.7644 152.45 56.6207 152.304 56.7644C152.012 57.1954 151.866 57.1954 151.719 57.1954C151.573 57.1954 151.573 57.1954 151.573 57.3391C151.573 57.4828 151.427 57.6264 151.281 57.1954H151.427C150.988 56.7644 150.988 57.0517 150.696 56.6207C150.842 56.6207 151.135 56.9081 150.988 56.9081C150.696 56.477 150.696 56.7644 150.55 56.477V56.3333C150.111 55.9023 149.526 55.3276 148.942 54.8966C148.942 54.8966 149.088 54.8966 149.088 54.7529C148.357 54.1782 147.626 53.3161 147.041 52.5977L146.749 52.454V52.3103C146.456 52.023 146.749 52.3103 146.602 52.3103C146.456 52.1667 146.456 52.023 146.602 52.1667C146.164 51.7356 145.14 51.0172 144.848 50.4425H144.994C144.702 50.0115 144.409 50.1552 144.117 49.7241H144.263L143.532 49.0058C143.24 48.7184 142.947 48.431 142.509 48C142.216 48.1437 142.07 48.431 141.778 48.5747C141.632 48.7184 141.485 48.8621 141.339 48.8621C141.339 49.1494 140.462 49.5805 140.608 49.7241C140.316 49.8678 140.17 50.0115 140.17 50.0115C140.023 50.0115 139.877 50.2989 139.292 50.8736C139.585 51.1609 139.877 51.3046 140.17 51.592L140.023 51.7356L140.462 51.8793V52.1667L140.608 52.3103C140.462 52.1667 140.462 52.1667 140.462 52.1667C140.754 52.454 141.193 53.0287 141.193 53.0287L141.924 53.7471C141.924 53.7471 141.778 53.6035 141.632 53.6035C142.07 53.8908 141.632 53.7471 142.07 54.0345H142.216C142.363 54.3218 142.801 54.6092 143.094 54.8966H142.947C143.532 55.4713 144.117 56.046 144.702 56.6207C144.556 56.3333 144.702 56.3333 144.848 56.477V56.6207C144.994 56.6207 144.702 56.477 144.994 56.6207C145.14 56.908 144.994 56.908 144.848 56.7644L145.14 57.0517H144.994C145.14 57.0517 145.433 57.6264 145.579 57.6264C146.164 58.2012 146.456 58.4885 147.041 58.9195C147.187 58.9195 147.333 59.0632 147.48 59.2069C147.772 59.4943 148.064 59.9253 148.357 60.2126C148.357 60.2126 148.503 60.2126 148.503 60.3563C148.357 60.3563 148.211 60.5 148.211 60.3563C147.772 60.7874 147.626 61.0747 146.895 61.6494C147.041 61.6494 147.041 61.5057 147.041 61.6494C146.895 61.7931 146.749 61.9368 146.749 61.7931C146.164 62.6552 144.848 63.3736 144.409 64.092L143.825 64.8104C143.532 65.0977 143.971 64.523 143.678 64.8104C143.094 65.5287 142.655 65.8161 142.07 66.3908C141.485 66.6782 140.608 67.8276 139.877 68.4023H140.023C139.877 68.546 139.877 68.546 139.731 68.6897C139.731 68.6897 139.877 68.546 139.877 68.6897C139.731 68.8333 139.292 69.2644 139 69.6954C139.877 70.5575 140.17 70.8448 140.608 71.2759C141.047 71.8506 141.193 71.9943 142.216 73C142.509 72.7126 142.947 72.2816 143.24 71.9943C143.678 71.5632 143.24 71.5632 143.971 70.9885L143.825 71.2759C144.702 70.2701 145.725 69.4081 146.602 68.4023C146.602 68.546 146.602 68.546 146.456 68.546C146.749 68.4023 147.187 67.8276 147.187 67.8276C147.333 67.6839 147.333 67.8276 147.333 67.8276C147.626 67.6839 147.772 67.2529 147.918 67.2529V67.3966C148.064 67.2529 148.503 66.8218 148.357 66.8218C148.795 66.5345 148.942 66.1034 149.38 65.9598C149.526 65.6724 149.965 65.3851 149.965 65.2414C150.111 65.3851 150.696 64.6667 150.842 64.523C150.842 64.6667 151.135 64.3793 150.988 64.523C151.281 64.2356 151.427 64.092 151.281 63.9483C151.427 63.9483 151.427 63.9483 151.427 63.8046H151.573C151.719 63.9483 151.866 64.092 151.866 64.2356C152.743 64.954 153.474 65.5287 154.059 66.2471C153.912 66.3908 153.327 65.5287 153.181 65.6724C153.912 66.2471 154.351 66.5345 154.936 67.1092C155.082 67.2529 154.789 67.1092 154.789 66.9655C155.52 67.5402 155.959 68.2586 156.69 68.6897C156.69 68.6897 156.544 68.6897 156.544 68.546C156.69 68.6897 156.836 68.8333 156.836 68.6897L156.69 68.546C156.544 68.2586 157.275 68.8333 157.421 68.8333C157.129 68.8333 158.006 69.408 157.421 69.2644C157.567 69.2644 157.567 69.408 157.713 69.408C157.86 69.5517 157.86 69.5517 157.713 69.5517C158.152 69.9828 158.006 69.6954 158.444 70.1264H158.298C158.591 70.2701 158.737 70.4138 159.029 70.7012C159.029 70.7012 159.029 70.7012 158.883 70.7012C159.468 71.2759 159.906 71.4195 160.491 72.1379C160.199 71.9943 160.784 72.4253 160.784 72.7126L161.076 72.8563L161.368 72.569L161.222 72.7126C161.368 72.569 161.661 72.2816 161.807 72.1379C161.953 71.9943 162.099 71.8506 162.099 71.7069L161.953 71.9943L162.392 71.4195L162.099 71.7069C162.392 71.4195 161.953 71.5632 162.392 71.2759C162.392 71.4195 162.684 70.9885 162.83 70.9885C162.977 70.8448 162.977 70.7011 163.269 70.4138C163.415 70.4138 163.269 70.5575 163.415 70.5575C163.415 70.4138 163.854 70.1264 164 69.8391C163.854 68.8333 163.708 68.6897 163.561 68.6897ZM155.959 61.2184C155.959 61.3621 155.959 61.3621 155.959 61.2184L155.667 61.0747C155.813 61.2184 155.813 61.2184 155.959 61.2184ZM159.322 55.0402H159.175L159.468 54.7529C159.468 54.8966 159.468 54.8966 159.322 55.0402ZM161.076 53.4598C161.076 53.4598 160.93 53.4598 161.076 53.4598L161.222 53.1724L161.076 53.4598ZM149.088 54.3218L149.234 54.4655C149.234 54.3218 149.234 54.3218 149.088 54.3218ZM148.795 53.8908C148.795 54.0345 148.649 54.0345 148.795 53.8908C148.795 53.8908 148.649 53.7471 148.503 53.6035C148.503 53.7471 148.649 53.7471 148.795 53.8908Z" fill="#5440D1"/>
</g>
<defs>
<clipPath id="clip0">
<rect width="501.6" height="148.5" fill="white"/>
</clipPath>
</defs>
</svg>
