<svg width="196" height="40" viewBox="0 0 196 40" fill="none" xmlns="http://www.w3.org/2000/svg">
<path fill-rule="evenodd" clip-rule="evenodd" d="M111.076 30.6644V6H105.181V16.206C104.225 14.2392 102.525 12.9634 99.9757 12.9634C95.5144 12.9634 92.8058 16.3123 92.8058 22.0531C92.8058 27.6877 95.4613 30.9833 99.9226 30.9833C102.578 30.9833 104.543 29.5481 105.552 27.3687L105.765 30.6644H111.076ZM105.234 21.3089V22.691C105.074 25.3488 103.853 26.6777 101.994 26.6777C99.9757 26.6777 98.7542 25.2425 98.7542 22C98.7542 18.7575 99.9757 17.3222 101.994 17.3222C103.906 17.3222 105.074 18.7575 105.234 21.3089Z" fill="#7D69FF"/>
<path d="M70.2337 29.7076C69.0652 30.5049 67.1533 30.9833 65.3475 30.9833C61.4173 30.9833 59.0273 29.4418 58.9742 25.4551V17.5348H56V13.3355H58.9742V9.45509L64.8695 7.80725V13.3355H70.0744V17.5348H64.8695V24.4983C64.8695 26.1461 65.7193 26.8371 67.1533 26.8371C68.2155 26.8371 68.959 26.5713 69.6495 26.0929L70.2337 29.7076Z" fill="#7D69FF"/>
<path fill-rule="evenodd" clip-rule="evenodd" d="M90.1502 22.0001C90.1502 27.6878 86.8042 30.9835 81.0151 30.9835C75.226 30.9835 71.8801 27.6346 71.8801 22.0001C71.8801 16.3124 75.226 13.0167 81.0151 13.0167C86.8042 13.0167 90.1502 16.3124 90.1502 22.0001ZM77.7754 22.0001C77.7754 25.4021 78.8376 26.8373 81.0151 26.8373C83.1927 26.8373 84.2549 25.4021 84.2549 22.0001C84.2549 18.5981 83.1927 17.1629 81.0151 17.1629C78.8376 17.1629 77.7754 18.5981 77.7754 22.0001Z" fill="#7D69FF"/>
<path fill-rule="evenodd" clip-rule="evenodd" d="M132.745 22.0001C132.745 27.6878 129.399 30.9835 123.61 30.9835C117.821 30.9835 114.422 27.6878 114.422 22.0001C114.422 16.3124 117.768 13.0167 123.557 13.0167C129.346 13.0167 132.745 16.3124 132.745 22.0001ZM120.317 22.0001C120.317 25.4021 121.379 26.8373 123.557 26.8373C125.734 26.8373 126.797 25.4021 126.797 22.0001C126.797 18.5981 125.734 17.1629 123.557 17.1629C121.379 17.1629 120.317 18.5981 120.317 22.0001Z" fill="#7D69FF"/>
<path fill-rule="evenodd" clip-rule="evenodd" d="M153.299 30.4519L153.724 27.1562C153.405 27.2625 153.086 27.3157 152.715 27.3157C151.918 27.3157 151.493 26.8904 151.493 25.9868V19.6612C151.493 15.1961 148.519 13.0167 143.208 13.0167C138.481 13.0167 135.772 15.0366 135.188 18.3323L139.968 19.7144C140.34 17.6944 141.561 17.0566 143.208 17.0566C144.748 17.0566 145.651 18.0665 145.651 19.6081V20.2459L141.721 20.9901C136.835 21.9469 134.976 23.8074 134.976 26.6778C134.976 29.4419 136.888 30.9835 140.34 30.9835C143.527 30.9835 145.545 29.9735 146.501 28.3256C147.032 30.1861 148.625 30.9835 150.962 30.9835C151.812 30.9835 152.608 30.824 153.299 30.4519ZM145.598 23.2227V24.711C145.598 26.3057 143.898 27.2094 142.464 27.1562C141.402 27.1562 140.765 26.6247 140.765 25.6678C140.765 24.711 141.349 24.2326 142.783 23.8605L145.598 23.2227Z" fill="#7D69FF"/>
<path fill-rule="evenodd" clip-rule="evenodd" d="M174.278 21.9469C174.278 27.6877 171.569 31.0366 167.161 31.0366C164.612 31.0366 162.859 29.7608 161.956 27.794V38H156.061V13.3356H161.212L161.372 17.0034C162.328 14.6113 164.346 12.9635 167.161 12.9635C171.675 13.0167 174.278 16.3123 174.278 21.9469ZM168.382 22C168.382 18.7575 167.161 17.3223 165.143 17.3223C163.178 17.3223 161.956 18.8638 161.956 21.8406V22.2127C161.956 25.0831 163.124 26.7309 165.143 26.7309C167.108 26.6778 168.382 25.2425 168.382 22Z" fill="#7D69FF"/>
<path fill-rule="evenodd" clip-rule="evenodd" d="M188.883 31.0366C193.291 31.0366 196 27.6877 196 21.9469C196 16.3123 193.398 13.0167 188.883 12.9635C186.068 12.9635 184.05 14.6113 183.094 17.0034L182.935 13.3356H177.783V38H183.678V27.794C184.581 29.7608 186.334 31.0366 188.883 31.0366ZM186.865 17.3223C188.883 17.3223 190.105 18.7575 190.105 22C190.105 25.2425 188.83 26.6778 186.865 26.7309C184.847 26.7309 183.678 25.0831 183.678 22.2127V21.8406C183.678 18.8638 184.9 17.3223 186.865 17.3223Z" fill="#7D69FF"/>
<path d="M38.374 9.69106C39.4146 10.7317 40 12.0976 40 13.5935V26.8618C40 34.1463 34.0813 40 26.8618 40H13.1382C5.9187 40 0 34.0813 0 26.8618V13.1382C0 5.9187 5.9187 0 13.1382 0H27.3821C28.878 0 30.1789 1.23577 30.1789 2.79675C30.1789 4.35772 28.9431 5.5935 27.4472 5.5935H13.1382C8.91057 5.5935 5.52846 9.04065 5.52846 13.2033V26.9268C5.52846 31.1545 8.97561 34.5366 13.1382 34.5366H26.8618C31.0244 34.4715 34.4715 31.0244 34.4715 26.8618V13.5935L38.374 9.69106Z" fill="#7D69FF"/>
<path d="M30.5691 9.62602L19.9024 20.2927L15.3496 15.7398C14.2439 14.6341 12.4878 14.6341 11.4472 15.7398C10.4065 16.8455 10.3415 18.6016 11.4472 19.6423L17.9512 26.1463C18.4715 26.6667 19.187 26.9268 19.9024 26.9268C20.6179 26.9268 21.3333 26.6667 21.8537 26.1463L31.935 16.1301L38.374 9.69106C37.8537 9.17073 37.2683 8.78049 36.5528 8.45528C34.5366 7.60976 32.1301 8.06504 30.5691 9.62602Z" fill="#A495FF"/>
<path d="M38.3739 9.69141L34.4714 13.5938L39.2194 10.7971C39.0243 10.4069 38.6991 10.0166 38.3739 9.69141Z" fill="#5440D1"/>
</svg>
