<svg width="238" height="229" viewBox="0 0 238 229" fill="none" xmlns="http://www.w3.org/2000/svg">
<g clip-path="url(#clip0)">
<path d="M176.803 110.193C179.335 112.093 181.866 113.993 183.511 116.906C184.524 118.68 185.916 120.199 187.308 121.593C187.814 122.099 187.814 122.733 188.32 123.239C189.333 124.379 190.725 125.139 191.737 126.532C193.889 129.572 196.167 132.612 198.192 135.779C199.584 137.805 201.103 139.832 202.368 141.985C204.773 145.911 205.912 150.344 206.165 154.904C206.545 160.224 207.051 165.417 207.051 170.737C207.051 180.616 205.279 190.115 201.229 199.108C198.698 204.555 195.914 209.748 191.484 213.801C184.397 220.134 176.171 224.567 166.679 226.593C166.299 226.72 166.046 226.847 165.666 226.973C162.502 227.987 159.465 228.873 156.048 228.746C154.402 228.746 152.757 228.873 151.112 229.126C146.176 229.76 142 228.113 138.329 225.073C134.533 222.034 131.748 218.107 129.597 214.054C126.559 208.608 122.256 205.061 116.561 202.528C111.372 200.248 105.804 199.488 100.362 198.855C96.9445 198.475 93.5274 197.968 90.1102 197.588C84.6682 196.955 79.2262 197.842 73.9107 198.855C66.9499 200.121 59.8626 200.501 52.6487 199.868C46.7004 199.362 41.3849 196.955 36.7022 193.409C34.0445 191.382 31.5133 188.975 29.7415 185.936C28.0962 182.896 26.4509 179.983 25.4384 176.69C22.9072 168.837 21.8948 160.73 21.8948 152.371C21.8948 142.871 21.3885 133.499 18.3511 124.506C16.073 117.793 13.4153 111.207 10.3779 104.874C6.32798 96.1342 2.78432 87.2681 1.13904 77.642C-0.506227 68.3958 -1.13902 59.023 1.8984 50.0302C6.32798 36.351 14.934 26.2183 28.729 21.5319C38.9803 17.9854 48.8519 20.012 58.0907 25.205C59.736 26.0916 61.5078 27.1049 63.1531 27.9915C67.3296 30.5247 70.9998 33.6912 74.0372 37.6176C75.8091 39.8975 77.3278 42.304 79.0996 44.5839C81.1245 47.2437 82.8964 50.1569 84.5416 53.0701C86.44 56.3632 88.5915 59.5297 90.9962 62.5695C91.7555 63.5828 92.1352 64.976 93.0211 66.116C96.4382 70.1691 99.7288 74.2222 103.779 77.642C105.93 79.4152 108.082 81.3151 110.866 82.455C112.511 83.0883 114.283 83.5949 116.055 84.2282C118.586 85.2415 121.244 85.6215 123.902 86.0015C124.914 86.1281 125.294 87.5214 125.547 87.3947C126.306 86.1281 126.812 87.3947 127.445 87.5214C127.825 87.648 128.078 87.9014 128.458 87.9014C134.026 88.2813 139.215 90.5612 144.404 92.0811C149.34 93.4744 154.402 94.6143 158.705 97.5275C160.351 98.5407 161.996 99.4274 163.515 100.567C165.413 101.834 167.058 103.607 169.083 104.494C172.121 105.76 174.146 108.04 176.55 110.067C176.803 109.813 176.803 110.067 176.803 110.193C175.285 109.56 174.525 107.914 172.753 107.28C174.778 109.18 176.677 111.333 179.208 112.853C178.449 111.967 177.563 111.08 176.803 110.193ZM21.3885 104.62C20.8823 102.467 19.7433 100.567 18.7308 98.6674C19.6167 100.567 20.1229 102.847 21.3885 104.62C21.5151 106.014 22.2745 107.28 22.9072 108.42C22.7807 107.027 22.2745 105.76 21.3885 104.62ZM4.42959 79.9218C4.42959 79.6685 4.42959 79.2885 4.42959 79.0352C3.03743 71.689 2.5312 64.2161 3.03743 56.7432C3.03743 56.4899 3.16399 56.1099 2.78432 55.8566C2.65776 56.3632 2.65776 56.7432 2.5312 57.2498C1.77184 63.3295 2.27808 69.4091 3.16399 75.3621C3.54367 77.0087 3.54367 78.5286 4.42959 79.9218C4.04991 81.4417 5.06238 82.835 5.18894 84.3549C5.18894 84.6082 5.56862 84.9882 6.07486 84.7349C6.20142 84.6082 6.32798 84.4816 6.20142 84.3549C4.93582 83.0883 5.44206 81.1884 4.42959 79.9218ZM198.445 187.202C198.698 186.189 199.204 185.302 199.331 184.289C200.217 180.236 200.723 176.056 201.229 171.876C201.989 165.67 201.229 159.464 200.85 153.384C200.723 150.598 200.217 147.685 198.445 145.278C192.75 137.172 186.169 130.079 178.322 123.999C172.121 119.186 166.299 113.613 160.224 108.673C155.795 105.127 150.985 102.214 145.796 99.934C141.493 98.0341 136.937 96.8942 132.381 95.3743C128.711 94.2343 125.041 93.0944 121.37 91.7011C118.839 90.6879 115.928 90.4345 113.144 89.8012C108.335 88.6613 103.652 87.1414 99.6022 84.2282C95.8054 81.5684 92.3883 78.5286 89.2243 75.1088C83.0229 68.1425 77.9606 60.4163 73.1513 52.3101C70.6201 48.0037 67.9624 43.6973 64.9249 39.8975C59.2298 32.5512 51.8893 27.6115 43.0302 25.0784C36.196 23.0518 29.868 24.4451 24.426 29.1314C14.934 37.3643 9.49196 47.6237 9.61852 60.4163C9.74508 70.4224 11.8966 79.9218 15.5668 89.168C17.8449 94.8676 20.6292 100.441 23.0338 106.14C26.1978 113.993 29.1087 121.846 30.2477 130.332C31.1336 136.792 31.1336 143.378 31.007 149.964C30.8805 155.537 31.3867 161.11 32.6523 166.557C34.0445 172.89 36.5757 178.589 41.0052 183.402C41.5115 184.036 41.5115 184.036 41.2584 184.796C41.1318 185.049 41.3849 185.176 41.5115 185.302C42.7771 186.569 44.2958 187.582 46.0676 188.216C47.2066 188.595 49.105 188.722 49.4847 189.229C50.8769 191.129 53.0284 190.749 54.5471 191.002C56.572 191.255 58.7235 191.382 60.7485 191.509C66.064 191.509 71.2529 191.382 76.4418 190.369C81.2511 189.482 85.9338 188.595 90.743 189.482C92.1352 189.735 94.1601 188.595 95.0461 190.749C95.0461 190.749 95.1726 190.622 95.2992 190.622C96.9445 190.115 98.7163 190.242 100.362 190.622C101.88 191.002 103.526 191.002 105.171 191.382C107.702 192.015 110.36 191.889 112.764 193.282C113.903 193.915 115.042 194.169 116.308 194.548C118.966 195.435 121.244 197.082 123.902 198.095C124.914 198.475 125.927 199.742 126.812 200.628C130.356 203.668 132.508 207.721 135.039 211.521C137.443 215.067 139.722 218.867 144.025 220.514C145.796 221.147 147.442 222.287 149.467 221.907C154.782 220.894 160.224 221.147 165.287 218.994C169.21 217.347 173.639 216.714 177.31 214.434C180.98 212.154 184.777 210.001 187.941 207.088C189.459 205.568 190.978 204.175 192.117 202.148C194.901 197.335 196.926 192.395 198.445 187.202ZM167.438 112.347C171.994 115.386 175.285 119.693 179.714 122.606C178.955 120.326 169.336 112.093 167.438 112.347ZM22.5276 129.826C21.8948 124.126 19.7433 118.806 17.3386 113.613C19.1105 118.806 21.0089 123.999 22.2745 129.319C22.401 129.446 22.5276 129.699 22.5276 129.826ZM33.4117 186.189C31.5133 182.896 29.868 179.603 28.2227 176.183C29.1087 179.983 31.007 183.276 33.4117 186.189ZM143.139 225.707C141.62 224.567 140.101 223.68 138.582 222.667C139.722 224.187 141.24 225.2 143.139 225.707ZM36.3225 188.595C35.9429 188.595 35.6897 188.722 35.6897 189.102C35.5632 189.735 35.8163 190.115 36.4491 190.369C36.8288 190.495 36.9553 190.369 36.9553 189.989C37.0819 189.482 36.7022 188.975 36.3225 188.595Z" fill="#ECE4F2"/>
<path d="M145.164 125.013C144.784 125.013 144.531 124.76 144.151 125.14C144.657 125.393 145.037 126.026 145.796 125.393C146.176 125.013 146.556 125.646 146.809 125.773C149.593 127.673 152.377 129.699 155.162 131.599C157.82 133.499 160.351 135.399 163.135 137.046C164.527 137.806 165.666 139.072 166.932 140.085C167.565 140.592 168.071 140.972 168.83 141.225C170.222 141.732 170.222 141.859 169.083 142.872C168.957 142.999 168.957 143.125 168.957 143.379C169.083 143.379 169.21 143.505 169.336 143.505C170.982 143.125 172.627 143.758 173.766 145.278C174.399 146.165 175.158 147.178 176.297 147.812C177.942 148.825 178.955 150.471 179.714 152.245C179.841 152.371 179.588 152.625 179.841 152.751C181.233 153.258 181.613 154.651 182.245 155.918C182.752 157.058 183.131 158.324 183.764 159.338C184.903 161.237 185.663 163.137 186.169 165.417C186.422 166.431 187.055 167.57 187.055 168.71C187.308 172.763 187.814 176.69 187.941 180.743C188.194 187.583 185.663 193.282 182.245 198.855C180.221 202.148 177.689 204.808 174.525 207.088C173.386 207.975 171.994 208.481 170.729 209.115C165.666 211.395 160.351 212.408 154.909 212.028C151.365 211.775 148.328 210.255 145.923 207.721C145.29 207.088 144.404 206.328 145.037 204.935C145.29 204.302 144.278 203.288 143.771 202.528C139.595 197.335 134.786 192.776 129.597 188.596C124.155 184.163 118.46 180.11 112.005 177.197C107.322 175.043 102.513 174.283 97.4507 173.903C93.4008 173.65 89.6041 174.663 85.8073 175.93C83.023 176.943 80.1121 177.577 77.2012 178.59C76.1888 178.97 75.9357 177.957 74.9232 177.45C75.8091 178.716 75.556 178.843 74.4169 178.843C73.2779 178.97 72.1389 179.35 70.9998 179.603C68.4687 180.11 66.064 180.11 63.6594 179.35C62.7735 179.096 61.8876 179.35 61.0017 178.97C59.9892 178.463 58.8501 178.083 57.9642 177.45C56.319 176.31 54.5471 175.423 53.7878 173.27C53.6612 172.637 52.3956 172.637 52.0159 171.877C50.2441 168.71 48.2192 165.544 47.2067 161.997C44.9286 153.511 43.4099 144.772 42.6506 135.906C42.1443 129.699 40.8787 123.62 38.0944 118.047C33.918 109.814 30.1212 101.328 26.7041 92.7148C23.4135 84.6086 21.1355 76.2491 20.7558 67.3829C20.6292 63.7098 21.0089 60.0367 21.8948 56.3636C23.1604 51.1705 26.5775 48.1307 31.3868 46.4842C40.499 43.191 49.1051 44.4576 57.3314 49.3973C62.7735 52.6905 67.8359 56.7436 72.2654 61.4299C74.2904 63.5832 76.4419 65.863 77.5809 68.7762C78.0872 70.1694 79.4793 71.3094 80.4918 72.576C83.7823 76.8824 86.187 81.6954 89.6041 86.0019C91.1228 87.9017 92.768 89.675 94.2868 91.4482C97.7039 95.5013 101.754 98.7944 105.551 102.214C108.968 105.254 113.144 107.281 117.194 109.307C121.624 111.46 126.053 113.614 130.356 115.893C132.887 117.16 135.545 118.427 137.697 120.073C139.215 121.34 141.114 121.846 142.506 123.24C143.265 123.746 144.657 123.62 145.164 125.013ZM134.153 190.749C134.153 190.242 133.773 189.989 133.394 189.736C130.609 187.329 127.952 184.796 124.788 182.77C123.016 181.63 121.37 180.11 119.219 179.35C122.636 181.503 125.673 184.289 128.964 186.569C130.862 188.089 132.255 189.862 134.153 190.749C135.925 193.156 138.329 194.802 140.228 196.955C138.329 194.802 136.684 192.396 134.153 190.749ZM81.5043 172.383C81.3777 172.257 80.998 172.257 80.998 172.13C80.8715 171.877 81.1246 171.877 81.3777 171.75C81.8839 171.497 82.3902 171.877 83.023 171.497C84.0354 170.864 85.1745 170.484 86.5666 170.357C87.7057 170.23 88.7181 169.47 89.8572 168.964C90.1103 168.837 90.49 168.71 90.7431 169.09C91.1228 169.597 91.3759 169.344 91.629 168.964C92.0087 168.457 92.3884 168.33 93.0212 168.33C94.9196 168.204 96.8179 167.824 98.7163 168.204C99.9819 168.457 101.374 168.71 102.387 168.584C105.171 168.077 107.829 168.837 110.107 169.724C112.258 170.484 114.41 171.624 116.688 172.257C118.586 172.763 119.852 174.283 121.497 175.043C123.522 176.057 124.914 178.083 127.066 179.096C128.331 179.73 128.964 181.503 130.103 181.883C132.634 182.643 133.267 185.303 135.419 186.443C136.051 186.823 137.064 187.456 137.57 188.216C138.583 189.989 140.354 191.002 141.367 192.776C142.632 195.056 144.657 196.575 145.923 198.982C146.682 200.375 147.695 201.642 148.581 203.035C149.467 204.175 151.112 204.682 152.504 205.442C154.529 206.455 156.427 205.822 158.452 205.822C163.262 205.948 167.691 204.428 171.741 202.148C179.461 197.842 183.638 191.002 183.258 181.756C183.258 180.87 183.131 179.856 183.131 178.97C183.005 173.523 181.613 168.33 179.588 163.391C176.803 156.804 171.488 152.371 166.552 147.685C164.78 146.038 162.502 144.898 160.477 143.379C159.085 142.365 157.693 141.352 156.301 140.465C154.782 139.579 153.39 138.565 151.998 137.679C150.606 136.666 149.34 135.526 147.821 134.639C146.556 133.879 145.543 132.739 144.151 131.979C142.379 130.966 140.607 129.699 138.836 128.559C132.508 124.506 125.8 120.833 118.966 117.667C115.169 115.893 111.246 114.374 107.575 112.22C95.6789 105.634 86.3135 96.2613 78.8465 84.9886C75.556 79.9222 72.392 74.8558 69.228 69.6628C64.6719 62.3166 58.2174 56.9969 51.13 52.4371C46.7004 49.524 41.8912 48.2574 36.7023 48.5107C33.6648 48.6374 31.0071 49.524 29.4884 52.5638C28.0962 55.3503 27.8431 58.5168 27.4634 61.4299C27.2103 63.2032 27.4634 65.2297 27.7165 67.1296C28.3493 71.816 28.9821 76.3757 30.6274 80.8088C31.0071 81.8221 30.754 82.962 31.2602 83.9753C31.7664 85.3686 32.6524 86.3818 33.1586 87.7751C33.4117 88.535 33.1586 89.4216 33.5383 90.1816C35.9429 95.248 37.5882 100.568 40.499 105.381C41.5115 107.027 42.1443 108.927 43.0302 110.7C46.3208 117.287 48.2192 124.253 48.4723 131.473C48.852 140.465 50.4972 149.205 53.0284 157.691C54.0409 160.984 54.8002 164.404 57.0783 167.19C58.3439 168.837 59.6095 170.737 61.3813 171.497C64.0391 172.637 66.8234 173.777 69.8608 173.777C70.6202 173.777 71.3795 174.41 71.6326 174.41C72.6451 174.157 73.7841 174.157 74.7966 173.777C76.9481 173.143 79.0996 171.877 81.5043 172.383ZM148.328 132.866C150.859 135.399 153.896 137.426 156.934 139.325C159.971 141.352 162.882 143.632 165.793 145.785C168.577 147.812 171.108 150.218 173.766 152.498C166.552 144.138 157.187 138.945 148.328 132.866ZM28.729 92.4615C25.6916 84.3553 23.4135 76.2491 22.6542 67.6363C21.6417 72.8293 26.3244 89.4217 28.729 92.4615ZM48.9785 161.997C50.3707 166.684 52.2691 171.117 56.319 174.157C53.5347 170.357 51.0035 166.304 48.9785 161.997ZM146.935 206.708C148.074 208.861 152.884 211.268 154.276 210.508C151.745 209.368 149.087 208.481 146.935 206.708ZM31.6399 99.1744C31.5133 99.3011 31.3868 99.3011 31.2602 99.4277C32.9055 103.101 34.2976 106.774 36.4491 110.194C34.8039 106.521 33.2852 102.848 31.6399 99.1744ZM41.8912 122.86C41.0053 119.06 39.2334 115.64 37.3351 112.347C38.8538 115.767 40.499 119.313 41.8912 122.86Z" fill="#ECE4F2"/>
<path d="M77.4543 94.6145C78.4668 94.3612 78.973 94.7412 79.7324 95.3745C81.6308 96.8944 82.6433 99.1743 84.9213 100.314C85.6807 100.694 86.1869 101.581 86.6932 102.214C88.2119 103.861 90.2368 104.621 91.629 106.141C93.0211 107.534 94.6664 108.547 96.0585 109.94C96.8179 110.7 97.9569 110.827 98.5897 111.714C98.9694 112.347 102.26 114.5 102.893 114.753C104.538 115.64 106.057 116.527 107.702 117.413C107.955 117.54 108.208 117.793 108.082 118.173C107.829 118.553 107.955 118.806 108.461 118.806C109.98 118.68 110.993 119.693 111.878 120.58C114.536 123.113 117.321 125.393 119.978 127.799C120.485 128.306 119.978 129.446 121.37 129.446C122.13 129.446 122.889 130.459 123.648 131.219C124.281 131.979 125.041 132.612 125.8 133.246C130.862 138.439 136.178 143.378 141.62 148.065C144.657 150.725 147.442 153.638 150.353 156.424C151.112 157.058 151.998 157.691 152.884 158.324C153.643 158.831 154.782 159.591 155.035 160.857C155.035 161.111 155.162 161.237 155.288 161.364C158.959 163.897 159.971 168.077 161.363 171.877C162.376 174.663 162.502 177.576 162.882 180.49C163.135 182.263 163.768 184.036 163.515 185.936C163.135 187.836 163.008 189.736 162.376 191.636C161.869 193.409 160.857 194.929 159.465 196.069C158.705 196.702 157.946 196.575 157.187 195.942C155.288 194.422 153.896 192.649 153.263 190.242C153.01 189.356 152.884 188.469 152.251 187.709C151.745 187.202 152.757 186.822 152.251 185.936C150.732 182.896 148.328 180.616 146.049 178.21C141.24 173.27 135.925 169.09 130.483 164.91C128.078 163.137 125.547 161.744 122.889 160.477C121.244 159.591 119.472 158.957 117.827 158.197C117.067 157.944 116.435 157.311 117.321 156.424C117.827 155.918 117.447 155.538 117.194 155.158C117.067 154.904 116.814 154.904 116.561 155.031C116.055 155.284 116.308 155.664 116.435 156.044C116.688 157.311 116.181 157.564 114.916 157.184C111.625 155.918 108.208 154.778 104.538 154.651C102.766 154.524 100.994 154.651 99.2225 155.031C94.0336 156.044 89.0978 157.817 84.0354 159.084C80.3652 160.097 76.5684 161.111 72.7716 160.351C71.8857 160.224 70.6201 160.477 70.2404 159.084C70.2404 158.957 70.1139 158.957 69.9873 158.831C66.4437 157.944 66.4437 157.817 64.7984 154.778C63.6594 152.751 63.1531 150.598 62.9 148.445C61.8875 140.465 59.1032 133.119 55.9392 125.899C52.1425 117.033 47.3332 108.547 43.9161 99.4276C40.1193 89.5482 38.7272 79.0354 38.8537 68.5227C38.8537 62.9497 43.9161 60.4165 48.8519 63.203C53.7877 65.9895 58.0908 69.536 61.8875 73.7157C66.3171 78.5288 70.2404 83.5952 74.4169 88.5349C75.5559 89.9281 76.8215 91.1947 77.834 92.7146C78.0871 93.2213 78.4668 93.8546 77.4543 94.6145ZM143.771 173.903C143.898 173.523 143.518 173.27 143.265 173.017C140.101 169.85 136.431 167.064 133.14 164.15C131.495 162.757 129.217 162.251 127.951 160.351C127.698 159.971 127.445 159.971 127.192 160.351C126.812 160.731 127.066 161.111 127.445 161.237C128.837 161.871 129.85 163.011 130.989 163.897C134.026 166.177 137.19 168.33 139.975 170.99C141.114 171.877 142.253 173.143 143.771 173.903C145.037 175.55 146.556 177.07 148.201 178.336C146.556 176.816 145.67 174.79 143.771 173.903ZM53.0284 102.847C53.2815 104.874 54.6736 106.267 55.5596 107.914C55.9392 109.814 57.458 111.334 58.0908 113.107C59.2298 116.273 60.3688 119.44 61.761 122.48C64.6718 128.813 66.6968 135.399 67.7093 142.238C68.0889 144.772 67.4561 147.431 68.7217 149.965C69.4811 151.485 69.9873 153.131 71.7592 153.891C74.2903 154.904 77.0746 155.284 79.859 154.778C84.9213 153.764 89.8571 151.865 94.793 150.345C99.9819 148.825 105.171 147.685 110.613 148.698C115.928 149.711 120.738 151.611 125.8 153.511C126.812 153.891 127.572 154.904 128.711 155.284C130.356 155.918 132.128 156.424 133.14 157.944C135.039 160.604 137.823 162.124 140.101 164.277C140.861 164.91 142.253 165.164 142.632 166.177C143.265 167.444 144.278 168.204 145.29 168.964C145.67 169.343 146.049 169.723 146.303 170.103C147.062 171.623 148.328 172.763 149.34 173.903C151.365 176.183 153.01 178.716 154.276 181.503C154.656 182.263 154.276 183.276 155.035 183.909C155.795 184.543 156.174 185.429 156.68 186.316C157.06 187.202 157.82 187.836 158.579 188.469C158.959 187.962 158.832 187.582 158.832 187.202C158.705 184.669 157.819 182.263 157.566 179.856C157.06 175.55 155.541 171.497 153.01 167.95C151.112 165.29 148.707 163.011 146.303 160.857C141.62 156.424 136.937 151.865 132.128 147.558C129.47 145.152 126.812 142.745 124.155 140.085C119.852 135.905 115.422 131.852 110.866 127.926C107.196 124.759 103.399 121.846 99.2225 119.566C95.5523 117.413 92.2618 114.753 89.0978 112.094C82.8964 107.027 76.695 101.961 71.8857 95.5011C67.5827 89.6748 63.4062 83.7218 58.7235 78.1488C55.1799 73.9691 51.5097 70.1693 46.7004 67.3828C46.1942 67.1295 45.5614 66.4962 45.0551 66.7495C44.5489 67.0028 44.802 67.7628 44.9286 68.3961C45.3083 74.2224 46.1942 80.0487 47.4598 85.7484C47.7129 86.7616 48.5988 87.9016 47.5863 89.0415C47.4598 89.1682 47.5863 89.6748 47.8394 89.6748C48.7254 89.5482 48.4722 90.3081 48.5988 90.6881C49.2316 92.968 49.991 95.2478 50.7503 97.5277C51.3831 99.5542 52.5221 101.074 53.0284 102.847ZM153.263 165.67C151.871 164.15 150.859 162.377 149.213 160.857C145.67 157.564 142.253 154.018 138.582 150.851C133.14 146.165 127.698 141.225 122.763 136.032C122.509 135.652 122.13 135.399 121.37 135.779C131.495 146.418 143.012 155.284 153.263 165.67ZM46.4473 101.201C44.802 96.3878 43.4099 91.5747 42.524 86.635C41.638 81.5686 40.8787 76.5023 40.2459 71.4359C41.0052 81.5686 42.0177 91.7014 46.4473 101.201ZM54.0409 116.653C53.9143 116.653 53.7877 116.78 53.5346 116.78C55.8127 121.973 58.0908 127.293 60.3688 132.486C60.4954 132.486 60.6219 132.359 60.7485 132.359C58.4704 127.166 56.1924 121.846 54.0409 116.653ZM64.4187 148.825C64.039 152.118 65.9374 156.171 67.9624 156.551C66.064 154.144 65.1781 151.485 64.4187 148.825ZM120.864 135.399C120.991 135.272 121.117 135.145 121.244 135.019C120.105 134.132 119.599 132.486 117.7 132.612C118.839 133.626 119.852 134.512 120.864 135.399Z" fill="#ECE4F2"/>
<path d="M53.0283 102.847C54.4205 104.24 55.1798 106.014 55.5595 107.914C54.6736 106.267 53.2814 104.874 53.0283 102.847Z" fill="#ECE4F2"/>
<path d="M190.852 184.796L59.9892 153.384C52.9018 151.738 48.5988 144.645 50.2441 137.552L80.7449 10.006C82.3902 2.91313 89.4775 -1.39329 96.5648 0.253283L227.427 31.6648C234.514 33.3114 238.817 40.4043 237.172 47.4972L206.671 175.043C204.9 182.136 197.939 186.442 190.852 184.796Z" fill="#7D69FF"/>
<path d="M191.991 172.51H57.4579C50.2441 172.51 44.2958 166.684 44.2958 159.338V28.2451C44.2958 21.0255 50.2441 15.1992 57.4579 15.1992H191.991C199.204 15.1992 205.153 21.0255 205.153 28.3718V159.591C205.153 166.684 199.204 172.51 191.991 172.51Z" fill="white"/>
<path d="M191.991 174.156H57.458C49.3582 174.156 42.7771 167.57 42.7771 159.464V28.2447C42.7771 20.1385 49.3582 13.5522 57.458 13.5522H191.991C200.09 13.5522 206.671 20.1385 206.671 28.2447V159.464C206.671 167.57 200.09 174.156 191.991 174.156ZM57.458 16.7187C51.13 16.7187 45.9411 21.9118 45.9411 28.2447V159.464C45.9411 165.797 51.13 170.99 57.458 170.99H191.991C198.319 170.99 203.507 165.797 203.507 159.464V28.2447C203.507 21.9118 198.319 16.7187 191.991 16.7187H57.458Z" fill="#090A0A"/>
<path d="M86.5665 55.8568H68.8482C66.6967 55.8568 65.0515 54.2102 65.0515 52.057V34.3247C65.0515 32.1715 66.6967 30.5249 68.8482 30.5249H86.6931C88.8446 30.5249 90.4899 32.1715 90.4899 34.3247V52.1836C90.3633 54.2102 88.718 55.8568 86.5665 55.8568Z" fill="white"/>
<path d="M86.5666 57.5032H68.8483C65.9374 57.5032 63.5328 55.0967 63.5328 52.1835V34.3246C63.5328 31.4114 65.9374 29.0049 68.8483 29.0049H86.6931C89.604 29.0049 92.0086 31.4114 92.0086 34.3246V52.1835C92.0086 55.0967 89.604 57.5032 86.5666 57.5032ZM68.8483 32.0447C67.5827 32.0447 66.5702 33.058 66.5702 34.3246V52.1835C66.5702 53.4501 67.5827 54.4634 68.8483 54.4634H86.6931C87.9587 54.4634 88.9712 53.4501 88.9712 52.1835V34.3246C88.9712 33.058 87.9587 32.0447 86.6931 32.0447H68.8483Z" fill="#090A0A"/>
<path d="M86.5665 106.52H68.8482C66.6967 106.52 65.0515 104.874 65.0515 102.721V84.9883C65.0515 82.835 66.6967 81.1885 68.8482 81.1885H86.6931C88.8446 81.1885 90.4899 82.835 90.4899 84.9883V102.847C90.3633 104.874 88.718 106.52 86.5665 106.52Z" fill="white"/>
<path d="M86.5666 108.167H68.8483C65.9374 108.167 63.5328 105.76 63.5328 102.847V84.9881C63.5328 82.075 65.9374 79.6685 68.8483 79.6685H86.6931C89.604 79.6685 92.0086 82.075 92.0086 84.9881V102.847C92.0086 105.76 89.604 108.167 86.5666 108.167ZM68.8483 82.7083C67.5827 82.7083 66.5702 83.7216 66.5702 84.9881V102.847C66.5702 104.114 67.5827 105.127 68.8483 105.127H86.6931C87.9587 105.127 88.9712 104.114 88.9712 102.847V84.9881C88.9712 83.7216 87.9587 82.7083 86.6931 82.7083H68.8483Z" fill="#090A0A"/>
<path d="M86.5665 157.184H68.8482C66.6967 157.184 65.0515 155.538 65.0515 153.384V135.525C65.0515 133.372 66.6967 131.726 68.8482 131.726H86.6931C88.8446 131.726 90.4899 133.372 90.4899 135.525V153.384C90.3633 155.538 88.718 157.184 86.5665 157.184Z" fill="white"/>
<path d="M86.5666 158.831H68.8483C65.9374 158.831 63.5328 156.424 63.5328 153.511V135.652C63.5328 132.739 65.9374 130.333 68.8483 130.333H86.6931C89.604 130.333 92.0086 132.739 92.0086 135.652V153.511C92.0086 156.424 89.604 158.831 86.5666 158.831ZM68.8483 133.372C67.5827 133.372 66.5702 134.386 66.5702 135.652V153.511C66.5702 154.778 67.5827 155.791 68.8483 155.791H86.6931C87.9587 155.791 88.9712 154.778 88.9712 153.511V135.652C88.9712 134.386 87.9587 133.372 86.6931 133.372H68.8483Z" fill="#090A0A"/>
<path d="M101.501 46.2305C101.374 46.4838 101.88 46.2305 101.501 46.4838C101.374 46.3571 101.374 46.2305 101.501 46.2305Z" fill="#090A0A"/>
<path d="M172.88 42.5573C172.247 43.8239 170.729 43.1906 169.843 43.9505C169.716 44.0772 169.716 43.4439 169.463 43.5705C168.577 44.4572 166.805 44.2038 165.666 43.6972L165.793 43.5705C165.54 43.4439 165.286 43.9505 165.033 43.9505C165.033 43.8239 165.16 43.8239 165.033 43.6972C165.033 43.9505 164.527 43.8239 164.527 44.0772C164.401 43.9505 164.401 43.6972 164.274 43.5705L164.147 43.9505C163.768 44.7105 163.135 43.8239 162.629 44.2038C162.629 44.0772 162.755 44.0772 162.629 43.9505C161.743 44.3305 160.604 44.0772 159.591 44.0772C159.591 43.9505 159.718 43.6972 159.718 43.5705C159.591 43.9505 159.338 43.9505 158.959 43.9505C158.959 43.5705 158.452 44.2038 158.199 43.9505V43.8239C157.946 44.2038 157.946 43.5705 157.566 43.9505L157.44 43.5705C157.187 44.0772 157.187 43.1906 156.934 43.4439V43.5705C156.68 43.6972 156.68 43.3172 156.554 43.4439C156.174 43.4439 156.048 43.1906 155.921 43.5705C155.921 43.1906 156.301 43.5705 156.174 43.0639C154.782 43.1906 153.643 42.8106 152.377 42.5573C152.251 42.4306 152.124 42.3039 152.124 42.1773C151.998 42.3039 151.618 42.1773 151.492 42.4306C151.492 42.4306 151.492 42.1773 151.365 42.1773C151.112 42.0506 151.112 42.5573 150.859 42.4306C150.985 42.304 150.985 42.1773 150.985 42.0506C150.732 42.304 150.479 42.304 150.226 42.4306C150.226 42.304 150.352 42.3039 150.352 42.1773C150.099 42.5573 149.846 42.0506 149.593 42.304L149.72 42.0506C149.34 41.7973 149.593 42.5573 149.34 42.4306C149.467 42.304 149.34 42.3039 149.34 42.1773C149.087 42.5573 148.581 42.5573 148.201 42.6839V42.5573C147.821 42.6839 147.442 42.5573 147.189 42.9372C147.062 42.8106 147.062 42.4306 146.809 42.5573C146.935 43.0639 146.303 42.9372 146.682 43.3172C146.429 43.3172 145.796 43.3172 145.67 43.5705C145.796 43.3172 145.29 43.0639 145.543 42.9372L145.29 42.6839C145.29 42.4306 145.543 42.6839 145.417 42.4306C145.29 42.5573 145.037 42.8106 144.91 42.8106C144.784 43.1906 144.784 43.6972 144.404 43.9505C144.531 43.6972 144.151 43.5705 144.151 43.4439L144.025 44.4572C143.898 44.5838 143.898 44.0772 143.771 44.3305C143.771 44.4572 143.771 44.5838 143.771 44.7105C143.645 44.7105 143.392 45.0905 143.139 44.5838C143.012 44.4572 143.265 44.4572 143.139 44.3305C142.885 44.4572 143.012 44.5838 142.759 44.7105C142.632 44.7105 142.379 45.0905 142.632 45.2171C142.759 45.2171 142.506 44.9638 142.632 45.0905C142.632 45.3438 142.379 45.5971 142.253 45.7237C142.253 45.5971 142.253 45.4704 142.253 45.3438C142.126 45.8504 141.873 46.1037 141.62 46.357C141.746 46.6104 141.62 45.9771 141.62 45.9771C141.114 45.8504 140.861 46.737 140.354 46.4837L140.481 46.737C140.228 46.8637 140.101 46.4837 140.101 46.6104C139.975 46.4837 139.975 46.737 139.848 46.8637C139.848 46.9903 139.722 46.737 139.848 46.737C139.722 46.9903 138.962 47.497 138.329 47.497C138.329 47.6236 138.203 48.0036 138.076 48.0036V47.7503C137.95 47.6236 137.697 47.877 137.57 47.6236C137.443 48.0036 138.456 47.117 138.203 47.3703C138.076 47.117 137.823 48.0036 137.823 47.497C137.57 47.6236 137.443 48.0036 137.19 47.7503C137.317 47.7503 137.317 47.3703 137.064 47.3703C136.684 47.497 136.937 47.497 136.811 47.6236L136.684 47.7503C136.684 48.0036 136.431 47.7503 136.558 48.0036C136.431 47.7503 136.051 48.2569 136.051 47.7503V47.3703C135.925 47.3703 135.925 47.7503 135.798 48.0036L135.672 47.877C135.672 48.3836 135.292 47.877 135.165 48.2569C134.786 48.1303 134.279 48.2569 134.153 47.877C133.9 48.0036 133.647 48.2569 133.394 48.1303C133.52 48.1303 133.52 48.1303 133.52 48.0036C133.394 47.877 133.267 48.0036 133.14 48.0036C133.14 47.877 132.761 47.6236 132.634 47.3703C132.381 47.497 132.381 47.7503 132.254 48.0036C132.128 47.3703 131.369 48.1303 131.242 47.6236C131.369 47.6236 131.622 47.497 131.495 47.2437C131.495 46.6104 130.862 47.497 130.736 47.117L130.609 47.6236C130.609 47.2437 129.976 47.6236 130.23 47.2437C130.103 47.3703 129.976 46.8637 129.723 47.3703C129.344 46.737 128.331 46.9903 128.458 46.1037C128.331 46.1037 128.205 45.9771 128.205 46.2304C128.205 46.4837 128.458 46.1037 128.458 46.357C128.331 46.357 128.331 46.4837 128.331 46.4837C128.205 46.357 128.078 46.2304 128.458 45.9771C128.331 45.5971 127.825 46.4837 127.445 46.1037C127.572 45.9771 127.572 45.8504 127.445 45.8504L127.066 45.9771C126.812 45.8504 127.066 45.4704 127.192 45.2171C127.066 45.2171 126.812 45.0905 126.686 45.3438V44.9638C126.686 45.2171 126.559 45.0905 126.433 45.0905H126.559C126.559 44.9638 126.433 44.9638 126.306 44.9638C126.306 45.0905 126.433 45.3438 126.433 45.3438C126.306 45.4704 126.18 45.3438 126.053 45.4704C126.18 45.2171 125.927 45.2171 125.8 45.0905C125.673 44.9638 125.547 45.3438 125.547 45.3438C125.547 45.2171 125.42 45.2171 125.547 45.0905C125.547 45.0905 125.547 45.2171 125.673 45.0905C125.673 44.9638 125.673 44.7105 125.547 44.8371C125.42 44.9638 125.42 45.4704 125.294 45.2171C125.42 45.0905 125.42 45.0905 125.42 44.9638C125.42 44.8371 125.294 44.8371 125.294 44.7105V44.9638C125.294 44.8371 125.294 44.8371 125.294 44.8371C125.167 45.0905 125.041 44.8371 124.914 45.2171C124.787 45.2171 124.788 44.9638 124.661 44.9638C124.534 44.8371 124.408 44.9638 124.408 45.0905C124.408 45.0905 124.281 45.2171 124.281 45.3438C124.155 45.2171 123.902 44.3305 123.902 44.7105C123.775 44.8371 123.902 45.2171 124.028 45.4704C123.648 45.4704 123.648 45.9771 123.269 45.7237C123.269 45.8504 123.395 45.8504 123.395 45.9771C123.016 46.2304 122.889 46.8637 122.13 46.8637C122.13 46.6104 121.877 46.6104 121.877 46.6104C122.003 46.8637 121.624 46.6104 121.877 46.8637C122.13 46.9903 122.13 47.117 122.383 47.117C122.256 47.497 121.877 47.877 121.497 47.877C121.624 47.877 121.624 48.0036 121.624 48.1303C121.37 47.877 121.117 48.0036 120.991 48.2569L121.117 48.5103L120.484 48.1303C120.484 48.2569 120.738 48.6369 120.358 48.5103C120.231 48.3836 120.231 48.3836 120.105 48.3836C119.978 48.6369 119.978 49.2702 119.472 49.1435L119.092 49.0169C119.092 49.1435 118.966 49.3969 119.219 49.3969C118.586 49.3969 118.206 49.5235 117.953 49.2702C117.574 49.7768 116.941 50.0302 116.308 50.0302C115.549 50.0302 114.916 49.7768 114.41 49.5235L114.536 49.3969C114.41 49.1435 114.283 49.6502 114.157 49.3969C114.283 49.2702 114.157 49.0169 114.536 48.8902C114.283 48.5103 113.903 48.8902 113.65 48.7636C113.524 48.8902 113.903 48.7636 113.65 49.0169C113.524 49.0169 113.397 48.5103 113.017 48.7636C113.017 48.6369 113.271 48.3836 113.397 48.3836H113.144C113.271 47.877 114.157 48.2569 114.283 47.6236L114.157 47.497C114.283 47.117 114.789 47.497 114.536 47.117C114.283 47.117 113.777 47.3703 113.777 47.6236C113.397 47.3703 113.017 48.1303 112.638 47.7503C112.764 47.497 112.891 48.0036 113.144 47.7503C113.271 47.3703 112.764 47.497 112.638 47.2437C112.638 47.497 112.258 47.6236 112.132 47.497C112.132 47.2437 112.511 47.3703 112.385 47.117C112.132 47.2437 111.878 46.9903 111.878 47.3703C111.372 47.497 111.752 46.9903 111.372 47.117C111.625 46.8637 112.258 46.9903 112.132 46.6104C111.878 46.8637 111.499 46.4837 111.246 46.8637C111.246 46.737 111.499 46.4837 111.625 46.4837C111.625 46.2304 110.866 46.357 111.372 45.9771L110.993 46.1037C110.993 45.9771 111.119 45.8504 111.246 45.7237C111.119 45.5971 110.613 45.4704 110.993 45.2171C110.866 45.2171 110.739 44.8371 110.486 45.2171C110.36 45.4704 110.866 45.3438 110.486 45.7237C110.739 45.3438 110.233 45.4704 110.107 45.4704L110.233 45.3438C110.107 45.3438 110.107 45.2171 109.854 45.2171C109.98 45.2171 110.107 45.0905 110.107 45.0905L109.854 45.2171C109.6 45.0905 110.233 44.8371 110.107 44.7105H110.36C110.36 44.7105 110.486 44.4572 110.36 44.4572C110.107 44.5838 109.854 44.7105 109.6 44.7105C109.474 44.7105 109.854 44.4572 109.474 44.5838H109.854C109.98 44.5838 110.107 44.2038 109.98 44.0772C109.854 44.0772 109.474 44.2038 109.347 44.3305C109.347 44.3305 109.347 44.0772 109.6 43.9505C109.347 43.8239 109.347 44.2038 109.094 44.0772C109.221 43.9505 109.221 43.5705 109.347 43.3172C109.474 43.3172 109.6 43.1906 109.854 43.1906L110.107 42.9372C110.486 42.8106 110.233 42.6839 110.613 42.5573C110.613 42.4306 110.36 42.4306 110.233 42.4306C109.98 43.0639 109.474 42.8106 109.094 43.3172C108.841 43.3172 109.853 42.1773 109.094 42.6839C109.094 42.8106 108.714 43.0639 108.968 43.0639C108.841 42.9372 108.588 43.4439 108.588 43.1906C108.841 43.0639 108.714 42.6839 109.094 42.4306C108.968 42.5573 109.094 42.5573 109.221 42.5573C109.221 42.3039 109.6 42.0506 109.347 42.0506C109.221 42.0506 109.094 41.924 108.968 42.304C108.841 42.5573 109.094 42.3039 108.968 42.5573C108.841 42.5573 108.968 42.1773 108.714 42.6839C108.841 42.6839 108.714 42.9372 108.588 43.1906L108.461 43.3172L108.588 43.0639C108.588 42.9372 108.461 43.4439 108.461 43.3172C108.461 43.1906 108.461 43.0639 108.461 42.9372C108.588 42.5573 108.461 43.0639 108.714 42.5573C108.588 42.5573 108.588 42.8106 108.588 42.6839C108.588 42.6839 108.588 42.6839 108.714 42.5573C108.714 42.5573 108.714 41.7973 108.588 42.1773C108.461 42.3039 108.588 42.4306 108.588 42.5573L108.461 42.6839C108.461 42.8106 108.461 42.8106 108.461 42.8106C108.335 42.4306 108.335 42.8106 108.208 42.4306C108.335 42.5573 108.335 42.5573 108.461 42.5573C108.461 42.5573 108.461 42.4306 108.588 42.1773C108.461 41.6707 108.714 42.304 108.714 41.6707C108.588 41.6707 108.461 41.164 108.461 40.784C108.335 40.784 108.335 40.9107 108.335 41.0374C108.335 41.2907 108.461 41.2907 108.461 41.6707H108.335C108.208 41.6707 108.082 41.924 108.082 42.1773C107.575 42.1773 107.449 41.7973 107.575 41.7973C107.322 41.924 107.069 42.1773 106.816 42.304C107.322 42.5573 106.563 42.6839 107.069 42.8106C107.322 42.8106 107.575 42.9372 107.702 43.1906C107.575 43.1906 107.575 43.0639 107.449 42.9372C107.575 43.1906 106.943 42.6839 107.196 43.1906C107.322 42.8106 106.816 42.6839 106.563 42.4306C106.563 42.8106 106.436 42.1773 106.183 42.4306C106.183 42.8106 106.057 43.0639 105.93 43.4439C105.424 43.4439 105.297 44.0772 105.171 44.3305C104.918 44.3305 104.665 43.9505 104.411 44.0772C104.285 44.2038 104.918 44.2038 104.538 44.3305V44.2038C104.538 44.3305 103.905 44.4572 104.411 44.9638L104.032 44.5838C103.905 44.5838 104.032 44.7105 104.032 44.8371C103.905 44.7105 103.779 44.7105 103.779 44.5838C103.399 44.5838 103.526 44.9638 103.399 45.0905H103.652C103.652 45.4704 103.272 45.5971 103.146 45.9771L102.893 45.8504V46.1037C102.64 45.8504 102.387 45.9771 102.513 46.2304L102.26 45.3438C102.513 45.3438 102.387 45.7237 102.766 45.7237C103.019 45.8504 103.146 45.4704 102.893 45.2171C102.766 45.3438 102.893 45.3438 102.893 45.4704C102.513 45.3438 102.64 45.0905 102.513 44.8371C102.513 44.9638 102.387 44.9638 102.387 44.9638C102.26 44.7105 102.387 44.5838 102.513 44.4572C102.513 44.7105 102.766 44.5838 102.766 44.5838C102.513 44.3305 102.513 44.0772 102.766 43.9505C103.146 44.0772 102.893 43.3172 103.146 43.1906C103.272 43.5705 103.399 43.8239 103.399 44.0772C103.652 44.0772 103.526 43.9505 103.779 43.8239C103.652 43.5705 103.399 43.3172 103.399 42.9372L103.652 43.0639C103.652 42.8106 103.399 42.5573 103.652 42.304C104.158 41.924 104.411 41.544 104.791 41.2907L105.044 41.4173C104.791 40.9107 105.424 40.784 105.55 40.2774C106.057 40.1507 106.563 39.2641 107.069 39.6441C107.196 39.6441 107.322 39.5174 107.449 39.5174C108.461 39.1375 109.6 39.2641 110.36 39.8974C110.233 40.0241 110.107 40.0241 109.98 40.1507C110.233 40.0241 109.98 40.4041 110.107 40.4041C110.107 40.0241 110.486 40.2774 110.739 40.1507C110.993 40.6574 111.625 40.9107 112.005 41.0374L111.878 41.164C112.511 41.164 112.511 41.7973 112.764 42.304C112.764 42.4306 112.511 42.5573 112.638 42.6839C113.144 42.6839 113.144 42.8106 113.65 43.0639C113.777 43.3172 113.903 43.6972 113.903 43.9505C114.916 44.4572 115.169 45.3438 115.928 45.4704L115.802 45.7237C116.308 45.5971 116.435 45.7237 116.688 45.7237C116.941 45.7237 117.194 45.8504 117.32 45.5971L117.447 46.1037C117.7 46.2304 117.7 45.8504 117.574 45.4704C117.827 45.5971 117.827 45.0905 118.08 45.3438C118.333 45.3438 118.08 44.9638 118.206 44.8371C118.713 44.7105 118.839 44.4572 119.092 44.0772L118.966 44.7105C118.966 44.8371 119.219 44.9638 119.219 44.9638C119.219 44.7105 119.852 44.5838 119.219 44.2038C119.852 44.0772 119.978 42.9372 120.864 42.9372C120.738 42.8106 120.864 42.6839 120.864 42.5573C121.37 42.1773 122.256 42.0506 122.636 41.6707C122.763 41.6707 122.509 42.0506 122.889 41.924C123.016 41.7973 122.763 41.6707 123.016 41.544C123.522 41.164 124.281 41.164 124.787 41.4173C125.42 41.544 125.927 41.7973 126.306 41.924C128.078 42.0506 129.217 43.0639 130.356 43.5705L130.23 43.6972C130.862 43.4439 130.862 44.5838 131.369 44.0772C131.369 44.2038 131.622 44.2038 131.495 44.4572C131.875 44.2038 132.128 45.0905 132.508 44.7105C132.508 44.7105 132.508 44.7105 132.381 44.7105C132.634 45.0905 133.014 44.7105 133.394 45.0905C133.394 45.0905 133.267 45.2171 133.267 45.3438C133.394 45.5971 133.647 44.8371 133.773 45.4704C133.9 45.4704 133.9 45.2171 133.773 45.2171C134.659 45.4704 135.672 44.9638 136.558 44.5838C137.317 44.7105 136.811 45.5971 137.317 44.9638C137.443 45.0905 137.317 44.7105 137.317 44.8371C137.443 44.5838 137.823 45.3438 137.95 44.9638C137.823 44.5838 137.95 44.7105 137.95 44.5838C138.456 44.7105 138.709 44.9638 138.962 44.5838V44.7105C139.215 44.0772 139.722 44.0772 139.848 43.3172C142 42.1773 144.151 40.6574 147.189 39.8974C150.226 39.3908 153.263 39.6441 155.668 40.5307C156.174 41.164 156.174 41.164 156.934 41.164C156.934 41.2907 156.807 41.2907 156.807 41.2907C156.934 40.9107 157.313 41.4173 157.44 41.0374C158.326 41.2907 159.085 41.4173 159.971 41.6707C159.844 41.6707 159.718 42.0506 159.844 42.0506L160.098 41.7973V41.924C160.224 41.924 160.351 41.6707 160.351 41.544C162.502 41.544 164.527 42.5573 166.679 42.304C167.185 42.4306 167.944 42.1773 168.45 42.0506C170.096 42.304 171.741 42.304 173.26 41.4173C173.26 41.0374 173.513 42.0506 172.88 42.5573Z" fill="#090A0A"/>
<path d="M101.627 45.8506C101.88 45.8506 102.007 45.8506 102.133 46.1039C102.007 45.9772 101.754 45.9772 101.627 45.8506Z" fill="#090A0A"/>
<path d="M106.69 42.9375H106.816C106.816 42.9375 106.816 43.1908 106.816 43.0642C106.816 43.0642 106.816 42.9375 106.69 42.9375Z" fill="#090A0A"/>
<path d="M107.575 42.3042C107.702 42.4309 107.575 42.6842 107.575 42.8108C107.575 42.6842 107.575 42.4309 107.575 42.3042Z" fill="#090A0A"/>
<path d="M108.208 42.4307C108.208 42.4307 108.208 42.5573 108.208 42.684C108.335 42.5573 108.208 42.8106 108.208 42.4307Z" fill="#090A0A"/>
<path d="M109.094 43.5708C109.094 43.5708 109.347 43.5708 109.221 43.6975C109.221 43.5708 108.841 43.6975 109.094 43.5708Z" fill="#090A0A"/>
<path d="M109.98 44.0776C109.98 44.0776 109.854 44.2043 109.98 44.0776C109.98 44.2043 109.854 44.331 109.854 44.2043L109.98 44.0776Z" fill="#090A0A"/>
<path d="M130.862 47.6239H130.736L130.862 47.3706V47.6239Z" fill="#090A0A"/>
<path d="M142.253 45.8509C142.379 45.7242 142.379 45.9776 142.506 45.9776C142.379 46.1042 142.379 45.8509 142.253 45.8509Z" fill="#090A0A"/>
<path d="M147.189 42.9376H147.062V42.5576L147.189 42.9376Z" fill="#090A0A"/>
<path d="M98.7163 96.5142C98.7163 96.7675 99.096 96.5142 98.7163 96.7675C98.5898 96.6408 98.5898 96.5142 98.7163 96.5142Z" fill="#090A0A"/>
<path d="M169.21 93.3481C168.957 93.9814 168.324 94.108 167.818 94.108C167.311 94.108 166.679 94.108 166.172 94.3614C166.046 94.3614 166.172 93.8547 165.919 93.9814C164.907 94.7413 163.262 93.9814 162.122 93.2214L162.249 93.0948C161.996 92.9681 161.616 93.3481 161.49 93.2214C161.49 93.0948 161.616 93.0948 161.616 92.9681C161.49 93.2214 161.11 93.0948 160.983 93.2214C160.857 93.0948 160.983 92.8414 160.857 92.7148L160.604 92.9681C160.098 93.7281 159.591 92.7148 159.085 93.0948C159.085 92.9681 159.212 92.9681 159.085 92.8414C158.199 93.2214 157.06 93.0948 156.174 93.3481C156.174 93.2214 156.174 92.9681 156.174 92.8414C156.174 93.2214 155.795 93.3481 155.541 93.3481C155.415 92.9681 155.162 93.7281 154.782 93.4747V93.3481C154.529 93.7281 154.402 93.0948 154.276 93.6014L154.149 93.3481C154.149 93.8547 153.77 93.0948 153.643 93.3481V93.4747C153.516 93.6014 153.39 93.3481 153.263 93.4747C152.884 93.6014 152.631 93.3481 152.757 93.8547C152.631 93.6014 153.137 93.7281 152.884 93.2214C151.618 93.7281 150.352 93.8547 149.087 94.108C148.96 93.9814 148.834 93.9814 148.834 93.7281C148.707 93.8547 148.328 93.8547 148.328 94.108L148.201 93.8547C147.948 93.7281 147.948 94.3614 147.695 94.2347C147.821 94.108 147.821 93.9814 147.695 93.8547C147.568 94.2347 147.188 94.2347 146.935 94.3614C146.935 94.2347 147.062 94.2347 147.062 94.108C146.809 94.488 146.556 94.108 146.303 94.3614L146.429 94.108C146.049 93.8547 146.303 94.6147 146.049 94.488C146.176 94.3613 146.049 94.3614 146.049 94.2347C145.796 94.7413 145.29 94.6147 144.91 94.7413V94.6147C144.531 94.7413 144.151 94.6147 143.771 94.7413C143.645 94.6147 143.771 94.108 143.392 94.2347C143.392 94.7413 142.759 94.488 143.012 94.9946C142.632 94.868 142.253 94.7413 142 94.868C142.126 94.7413 141.873 94.2347 142.126 94.2347L142 93.9814C142 93.7281 142.253 94.108 142.126 93.8547C142 93.8547 141.62 93.9814 141.493 93.9814C141.24 94.2347 140.987 94.7413 140.607 94.7413C140.861 94.6147 140.607 94.2347 140.734 94.108L140.101 94.9946C139.975 94.9946 140.101 94.6147 139.848 94.7413C139.848 94.868 139.721 94.9946 139.721 94.9946C139.721 94.9946 139.215 94.9946 139.215 94.6147C139.215 94.488 139.468 94.488 139.342 94.3614C139.089 94.3614 139.089 94.488 138.836 94.488C138.709 94.3613 138.329 94.6147 138.456 94.868C138.582 94.868 138.456 94.6147 138.582 94.7413C138.456 94.9947 138.203 94.9946 137.95 94.9946C138.076 94.868 138.076 94.868 138.076 94.7413C137.697 95.1213 137.317 95.1213 136.937 95.248C136.937 95.5013 137.064 94.868 137.19 94.9946C136.811 94.6147 136.178 95.3746 135.925 94.868C136.051 94.868 135.925 95.1213 135.925 95.1213C135.672 95.1213 135.798 94.7413 135.545 94.868C135.545 94.7413 135.418 94.868 135.165 94.9946C135.039 95.1213 135.165 94.868 135.292 94.868C135.039 94.9946 134.279 95.248 133.773 94.9946C133.773 95.1213 133.52 95.3746 133.394 95.3746V95.1213C133.267 94.9946 133.014 95.1213 133.014 94.868C132.761 95.248 133.9 94.6147 133.52 94.868C133.394 94.6147 133.14 95.248 133.14 94.868C132.887 94.868 132.761 95.248 132.508 94.868C132.508 94.868 132.634 94.488 132.508 94.488C132.254 94.488 132.381 94.6147 132.128 94.7413L132.001 94.868C132.001 95.1213 131.748 94.868 131.875 95.1213C131.875 94.868 131.495 95.248 131.495 94.868V94.488C131.369 94.488 131.369 94.868 131.242 95.1213V94.9946C131.242 95.5013 130.989 94.9946 130.862 95.3746C130.609 95.248 130.23 95.3746 129.976 95.1213C129.85 95.3746 129.723 95.5013 129.47 95.5013C129.47 95.5013 129.597 95.3746 129.597 95.248C129.47 95.1213 129.47 95.248 129.344 95.3746C129.344 95.248 128.964 95.1213 128.711 94.9946C128.584 95.248 128.711 95.5013 128.711 95.6279C128.331 95.1213 128.205 96.1346 127.825 95.7546C127.825 95.6279 128.078 95.3746 127.825 95.3746C127.445 94.868 127.572 95.8813 127.192 95.7546L127.445 96.1346C127.192 95.8813 127.066 96.5146 126.939 96.0079C126.939 96.2612 126.559 96.0079 126.686 96.3879C126.053 96.1346 125.42 97.0212 124.914 96.2612C124.914 96.3879 124.661 96.3879 124.787 96.5146C125.041 96.7679 124.914 96.2612 125.041 96.3879C124.914 96.3879 125.041 96.5146 125.041 96.6412C124.787 96.6412 124.661 96.6412 124.787 96.1346C124.408 96.0079 124.534 97.0212 124.028 96.8945C124.028 96.7679 123.902 96.6412 123.775 96.7679C123.648 96.8945 123.648 97.0212 123.522 97.1479C123.142 97.1479 123.269 96.7679 123.142 96.3879C123.016 96.5146 122.763 96.5146 122.763 96.7679L122.509 96.3879C122.636 96.6412 122.383 96.6412 122.256 96.6412L122.383 96.5146C122.383 96.3879 122.13 96.5146 122.003 96.5146C122.003 96.7679 122.256 96.7679 122.383 96.7679C122.256 96.8945 122.13 96.8945 122.003 97.0212C122.003 96.7679 121.623 96.7679 121.497 96.7679C121.37 96.6412 121.244 97.0212 121.244 97.0212C121.244 96.8945 120.991 97.0212 121.117 96.7679C121.117 96.7679 121.244 96.8945 121.37 96.7679C121.244 96.6412 121.244 96.3879 120.991 96.5146C120.738 96.6412 120.991 97.1479 120.611 96.8945C120.738 96.7679 120.738 96.7679 120.864 96.6412L120.611 96.3879V96.6412C120.611 96.5146 120.611 96.5146 120.611 96.5146C120.484 96.7679 120.105 96.5146 119.978 96.7679C119.852 96.7679 119.725 96.5146 119.472 96.3879C119.345 96.1346 119.092 96.1346 118.839 96.2612C118.713 96.1346 118.46 96.1346 118.333 96.2612C118.206 95.8813 118.839 95.248 118.333 95.5013C118.08 95.3746 117.7 95.6279 117.7 95.8813C117.447 95.3746 116.688 95.3746 116.688 94.7413C116.561 94.7413 116.561 94.868 116.435 94.7413C116.055 94.108 115.296 93.7281 115.422 92.9681C115.675 93.0948 115.675 92.8414 115.802 92.7148C115.549 92.7148 115.928 92.4615 115.549 92.5881C115.296 92.7148 115.169 92.7148 115.169 92.9681C114.789 92.7148 114.536 92.2081 114.663 91.9548C114.663 92.0815 114.536 92.0815 114.41 92.0815C114.789 91.9548 114.663 91.7015 114.536 91.5748L114.283 91.7015L114.41 91.4482C114.283 91.4482 113.903 91.5748 114.03 91.3215C114.156 91.3215 114.157 91.1949 114.283 91.1949C113.903 91.1949 113.524 91.1949 113.524 90.8149L113.777 90.5616C113.65 90.5616 113.397 90.4349 113.397 90.6882C113.397 90.3083 113.397 90.0549 113.524 89.8016C112.638 89.675 112.132 89.1683 111.752 88.7883L111.878 88.6617C111.878 88.4084 111.625 88.915 111.625 88.6617C111.752 88.535 111.752 88.2817 112.005 88.155C112.005 87.9017 111.625 88.2817 111.499 88.2817C111.372 88.4084 111.625 88.155 111.499 88.4084C111.499 88.4084 111.372 88.155 111.246 88.4084C111.246 88.2817 111.499 88.0284 111.499 87.9017L111.372 88.0284C111.499 87.5217 112.005 87.5217 112.258 87.0151H112.132C112.258 86.6351 112.638 86.8885 112.385 86.5085C112.132 86.6351 111.752 87.0151 111.752 87.1418C111.499 87.1418 111.246 87.9017 110.993 87.7751C110.993 87.5218 111.119 87.7751 111.246 87.5217C111.246 87.1418 110.993 87.5217 110.866 87.5217C110.866 87.6484 110.739 88.0284 110.613 88.0284C110.613 87.9017 110.739 87.6484 110.613 87.6484C110.486 87.9017 110.36 88.0284 110.486 88.155C110.36 88.6617 110.36 88.0284 110.36 88.4084C110.36 88.0284 110.613 87.6484 110.36 87.3951C110.36 87.7751 110.107 87.7751 110.233 88.2817C110.233 88.155 110.233 87.9017 110.233 87.7751C110.107 87.5218 110.107 88.4084 109.98 87.7751V88.155C109.98 88.0284 109.853 88.0284 109.853 87.7751C109.727 87.7751 109.727 88.2817 109.6 87.7751C109.6 87.7751 109.347 87.9017 109.6 88.155C109.853 88.2817 109.727 87.9017 109.853 88.2817C109.6 87.9017 109.727 88.4084 109.727 88.535L109.6 88.4084C109.6 88.535 109.474 88.535 109.474 88.6617C109.474 88.535 109.347 88.4084 109.347 88.4084L109.474 88.6617C109.347 88.915 109.221 88.155 109.094 88.4084V88.155C109.094 88.155 108.841 88.0284 108.841 88.155C108.968 88.4084 109.094 88.7883 109.094 88.915C109.094 89.0417 108.841 88.6617 108.968 89.0417V88.6617C108.968 88.535 108.588 88.2817 108.461 88.4084C108.461 88.535 108.461 89.0417 108.714 89.0417C108.588 89.0417 108.461 89.0417 108.335 88.7883C108.208 89.0417 108.461 89.0417 108.461 89.295C108.335 89.1683 107.955 89.1683 107.702 89.0417L107.829 88.6617H107.702C107.575 88.2817 107.449 88.535 107.322 88.155C107.196 88.155 107.196 88.2817 107.196 88.535C107.829 88.915 107.449 89.4216 107.829 89.8016C107.575 90.1816 106.816 88.915 107.069 89.8016C107.196 89.9283 107.322 90.3083 107.449 90.0549C107.196 90.1816 107.702 90.5616 107.322 90.5616C107.322 90.3083 106.816 90.3083 106.816 89.8016C106.943 89.9283 107.069 89.8016 107.069 89.675C106.816 89.5483 106.689 89.1683 106.563 89.4216C106.436 89.5483 106.31 89.675 106.563 89.9283C106.816 90.1816 106.69 89.8016 106.816 90.0549C106.69 90.3083 106.31 90.0549 106.563 90.5616C106.689 90.4349 106.943 90.5616 107.069 90.8149L106.943 91.0682L106.816 90.9416C106.436 91.0682 106.943 91.3215 106.69 91.4482L106.31 91.1949C106.183 90.8149 106.816 90.9415 106.31 90.5616C106.183 90.6882 106.31 90.9416 106.057 90.9416C106.057 90.8149 106.057 90.8149 106.057 90.6882C105.93 90.6882 105.424 90.1816 105.424 90.8149C105.424 91.0682 105.55 90.9415 105.677 91.1949C105.424 91.4482 105.55 91.7015 105.424 91.9548C105.171 91.5748 105.171 92.2081 104.918 91.7015C105.171 91.8282 105.55 91.4482 105.297 91.0682C104.791 90.8149 105.55 90.9416 105.297 90.4349C105.044 90.6882 104.791 90.3083 104.411 90.0549C104.285 90.0549 104.411 90.3083 104.411 90.3083C104.665 90.5616 104.665 90.4349 104.918 90.6882C104.665 90.8149 104.538 91.1949 104.665 91.5748C104.538 91.5748 104.285 91.3215 104.285 91.1949C104.032 91.5748 103.779 91.8282 103.399 92.0815C103.905 92.2081 103.272 92.4615 103.652 92.5881C103.905 92.4615 104.285 92.5881 104.411 92.8414C104.285 92.9681 104.285 92.7148 104.158 92.7148C104.285 92.9681 103.652 92.5881 103.905 92.9681C104.032 92.5881 103.526 92.4615 103.272 92.2081C103.272 92.5881 103.019 91.9548 102.893 92.2081C102.893 92.5881 102.893 92.8414 102.766 93.2214C102.26 93.2214 102.26 93.9814 102.007 94.2347C101.754 94.2347 101.501 93.8547 101.247 93.9814C101.121 94.108 101.754 94.108 101.374 94.2347V94.108C101.374 94.2347 100.741 94.488 101.247 94.868L100.868 94.488C100.741 94.488 100.868 94.6147 100.868 94.7413C100.741 94.6147 100.615 94.6147 100.488 94.488C100.108 94.488 100.362 94.868 100.235 95.1213H100.615C100.615 95.5013 100.235 95.6279 100.235 96.0079L99.9819 95.8813V96.1346C99.7287 96.0079 99.4756 96.0079 99.7287 96.2612L99.3491 95.5013C99.6022 95.5013 99.6022 95.7546 99.8553 95.8813C100.108 95.8813 100.235 95.6279 99.9819 95.3746C99.8553 95.5013 99.9819 95.5013 99.9819 95.6279C99.6022 95.5013 99.7287 95.3746 99.6022 95.1213C99.6022 95.248 99.4756 95.248 99.4756 95.248C99.3491 94.9946 99.4756 94.868 99.4756 94.7413C99.4756 94.9947 99.7287 94.7413 99.8553 94.868C99.6022 94.7413 99.6022 94.488 99.8553 94.2347C100.362 94.2347 99.8553 93.6014 100.235 93.4747C100.488 93.7281 100.615 94.108 100.615 94.3614C100.868 94.2347 100.741 94.108 100.994 94.108C100.868 93.8547 100.488 93.6014 100.488 93.3481L100.741 93.4747C100.741 93.2214 100.488 92.9681 100.741 92.7148C101.121 92.3348 101.501 91.9548 101.754 91.5748L102.007 91.7015C101.754 91.1949 102.386 90.9415 102.386 90.5616C102.893 90.3083 103.019 89.5483 103.526 89.675C104.032 88.915 104.538 88.155 105.297 87.6484L105.424 88.0284C105.424 87.6484 105.677 88.155 105.677 88.0284C105.297 87.9017 105.55 87.5217 105.55 87.3951C106.057 87.3951 106.31 86.7618 106.436 86.3818L106.563 86.6351C106.563 86.0018 107.196 86.1285 107.702 85.8752C107.829 86.0018 107.955 86.1285 108.082 86.0018C108.208 85.4952 108.335 85.4952 108.588 85.1152C108.841 84.9886 109.474 84.9886 109.853 85.1152C110.486 84.7352 111.246 84.7352 112.005 84.9886C112.764 85.2419 113.271 85.4952 114.03 85.7485H113.903C114.663 85.8752 115.169 86.3818 115.549 86.8884C115.928 87.3951 116.181 87.9017 116.561 88.2817L116.055 88.4084C116.055 88.7883 116.561 88.915 116.814 88.6617C116.814 89.0417 117.32 89.1683 117.067 89.5483C117.067 89.8016 117.447 89.8016 117.574 89.9283C117.7 90.4349 117.827 90.6882 118.08 91.0682V90.9416C117.953 90.9416 117.7 91.0682 117.827 91.1949C118.08 91.3215 118.08 91.8282 118.46 91.3215C118.46 91.9548 119.219 92.0815 119.092 92.5881C119.219 92.4615 119.219 92.4615 119.345 92.4615C119.599 92.7148 119.599 93.0948 119.978 92.9681C119.978 93.0948 119.725 93.2214 119.852 93.2214C119.978 93.2214 119.978 93.0948 120.105 92.9681C120.358 92.9681 120.484 93.0948 120.738 93.2214C120.991 93.3481 121.117 93.6014 121.37 93.4747C122.256 93.2214 123.269 93.0948 124.408 92.7148V92.8414C124.661 92.3348 125.42 93.0948 125.547 92.2081C125.673 92.3348 125.927 92.2081 125.927 92.4615C126.18 92.0815 126.939 92.4615 127.319 91.9548C127.319 91.9548 127.192 91.9548 127.192 92.0815C127.698 92.2081 128.078 91.7015 128.711 91.8282C128.711 91.8282 128.584 91.9548 128.584 92.0815C128.837 92.3348 128.964 91.4482 129.217 92.0815C129.344 92.0815 129.217 91.8282 129.217 91.8282C130.483 91.8282 131.748 91.3215 133.014 91.3215C133.9 91.7015 133.014 92.3348 133.773 91.9548C133.773 92.0815 133.773 91.7015 133.773 91.8282C134.026 91.7015 134.153 92.4615 134.406 92.2081C134.406 91.8282 134.533 91.9548 134.533 91.8282C135.039 92.0815 135.165 92.4615 135.545 92.2081V92.3348C136.051 91.8282 136.557 92.2081 137.064 91.5748C139.721 91.8282 142 91.7015 144.151 91.5748C146.429 91.5748 148.707 90.9416 151.238 90.9416C151.871 91.3215 151.871 91.3215 152.504 91.0682C152.504 91.1949 152.504 91.1949 152.504 91.1949C152.504 90.8149 153.01 91.0682 153.01 90.6882C154.023 90.6882 154.909 90.4349 155.921 90.4349C155.795 90.4349 155.668 90.8149 155.921 90.8149L156.048 90.5616V90.6882C156.174 90.5616 156.301 90.4349 156.174 90.3083C157.44 90.0549 158.832 90.3083 160.098 90.5616C161.363 90.8149 162.502 91.3215 163.641 91.4482C164.147 91.7015 164.907 91.7015 165.413 91.5748C166.932 92.2081 168.45 92.5881 169.463 91.5748C169.463 91.5748 169.589 91.8282 169.589 92.2081C169.589 92.7148 169.463 93.0948 169.21 93.3481Z" fill="#090A0A"/>
<path d="M98.8429 96.1342C99.096 96.1342 99.2226 96.0075 99.4757 96.2609C99.2226 96.2609 98.9695 96.2609 98.8429 96.1342Z" fill="#090A0A"/>
<path d="M103.526 92.7144H103.652C103.652 92.7144 103.779 92.9677 103.652 92.841C103.652 92.841 103.652 92.7144 103.526 92.7144Z" fill="#090A0A"/>
<path d="M104.538 91.8281C104.665 91.9548 104.538 92.3348 104.538 92.4614V91.8281Z" fill="#090A0A"/>
<path d="M105.93 91.4478C106.057 91.4478 106.183 91.5744 106.057 91.7011C105.93 91.5744 105.93 91.5744 105.93 91.4478Z" fill="#090A0A"/>
<path d="M105.677 91.068C105.804 90.9414 105.804 91.068 105.93 91.068C105.804 90.9414 105.93 91.3213 105.677 91.068Z" fill="#090A0A"/>
<path d="M108.082 89.8013C108.082 89.8013 108.082 89.548 108.335 89.6746C108.082 89.548 108.208 90.0546 108.082 89.8013Z" fill="#090A0A"/>
<path d="M108.841 88.9146C108.968 88.9146 108.968 89.0412 108.968 89.0412L108.841 88.9146Z" fill="#090A0A"/>
<path d="M127.445 95.7544L127.319 95.8811V95.7544H127.445Z" fill="#090A0A"/>
<path d="M137.443 95.3744C137.57 95.2477 137.57 95.501 137.57 95.6277C137.443 95.6277 137.57 95.3744 137.443 95.3744Z" fill="#090A0A"/>
<path d="M100.868 138.565C100.615 138.312 100.741 138.945 100.615 138.439C100.868 138.312 100.994 138.312 100.868 138.565Z" fill="#090A0A"/>
<path d="M167.438 144.898C166.805 146.291 165.033 146.038 164.021 147.051C163.894 147.178 163.894 146.545 163.641 146.798C162.755 147.938 160.604 148.065 159.085 147.685L159.212 147.558C158.959 147.431 158.579 148.065 158.326 147.938C158.326 147.811 158.452 147.811 158.326 147.685C158.326 147.938 157.819 147.811 157.693 148.065C157.566 147.938 157.566 147.685 157.44 147.558L157.313 147.938C156.807 148.698 156.174 147.811 155.415 148.065C155.415 147.938 155.541 147.938 155.541 147.811C154.402 148.065 153.137 147.558 151.998 147.178C152.124 147.051 152.251 146.925 152.251 146.798C151.998 147.051 151.618 146.925 151.365 146.925C151.492 146.545 150.606 146.925 150.606 146.545C150.226 146.798 150.353 146.165 150.099 146.418V146.038C149.846 146.545 149.846 145.531 149.72 145.658V145.785C149.593 145.785 149.593 145.405 149.467 145.405V145.278C149.34 145.152 149.213 145.025 149.213 144.898C149.213 144.772 149.087 144.898 149.213 145.152C149.087 144.772 149.213 144.898 149.213 144.898C149.213 144.898 149.34 144.898 149.213 144.392C149.087 144.392 149.087 144.265 148.96 144.138C148.96 144.012 148.834 144.265 148.834 144.265L148.707 144.518C148.581 144.898 148.454 145.278 148.328 145.658C148.074 146.291 147.821 146.925 147.442 147.558C147.189 147.685 147.062 147.685 146.935 147.685C146.935 147.811 146.809 148.191 146.809 148.571C146.809 148.571 146.682 148.445 146.556 148.571C146.303 148.698 146.682 149.331 146.429 149.458C146.429 149.205 146.303 149.078 146.303 148.951C146.303 149.205 146.303 149.458 146.303 149.585C146.176 149.585 145.923 149.585 145.796 149.585C145.796 149.585 145.923 149.458 145.796 149.331C145.543 149.585 145.164 149.078 144.91 149.205L145.037 148.951C144.531 148.445 144.91 149.458 144.531 149.078C144.657 149.078 144.657 148.951 144.657 148.825C144.404 148.951 144.151 148.951 143.898 148.951C143.645 148.951 143.392 148.825 143.139 148.825V148.698C142.759 148.571 142.379 148.318 141.873 148.318C141.746 148.191 142.126 147.811 141.62 147.685C141.493 148.191 140.861 147.685 140.861 148.191C140.481 147.938 139.975 147.685 139.722 147.685C139.975 147.558 139.722 147.051 140.101 147.178L139.975 146.798C140.101 146.671 140.228 146.925 140.228 146.671C140.101 146.671 139.595 146.671 139.468 146.545C139.089 146.671 138.709 147.178 138.203 147.051C138.456 146.925 138.203 146.545 138.456 146.545L137.57 147.178C137.443 147.178 137.697 146.798 137.443 146.798C137.443 146.925 137.317 146.925 137.19 147.051C137.19 146.925 136.558 146.925 136.558 146.545C136.558 146.291 136.811 146.545 136.684 146.291C136.431 146.165 136.304 146.291 136.051 146.291C135.925 146.165 135.418 146.291 135.545 146.671C135.672 146.671 135.545 146.418 135.672 146.545C135.418 146.798 135.165 146.798 134.786 146.671C134.912 146.671 134.912 146.545 135.039 146.418C134.533 146.671 134.153 146.671 133.647 146.671C133.647 146.925 133.9 146.291 133.9 146.418C133.394 146.038 132.761 146.545 132.381 146.038C132.508 146.038 132.381 146.291 132.381 146.291C132.128 146.165 132.255 145.911 132.001 146.038C132.001 145.911 131.748 146.038 131.622 146.165C131.495 146.291 131.622 146.038 131.748 146.038C131.495 146.165 130.609 146.418 130.103 146.165C130.103 146.291 129.85 146.671 129.723 146.671V146.418C129.597 146.291 129.344 146.545 129.344 146.291C129.091 146.671 130.23 145.911 129.976 146.165C129.85 145.911 129.597 146.671 129.597 146.291C129.344 146.291 129.217 146.671 128.964 146.418C129.091 146.418 129.091 146.038 128.837 146.038C128.458 146.165 128.837 146.165 128.584 146.418L128.458 146.545C128.584 146.798 128.078 146.545 128.331 146.925C128.205 146.671 127.825 147.178 127.698 146.798V146.418C127.572 146.545 127.572 146.925 127.445 147.051L127.319 146.925C127.445 147.431 126.939 147.051 126.812 147.431C126.433 147.305 125.673 147.685 125.42 147.305C125.041 147.431 124.661 147.685 124.281 147.431C124.408 147.431 124.534 147.431 124.534 147.305C124.281 147.051 124.281 147.305 124.028 147.305C124.028 147.178 123.648 146.925 123.522 146.671C123.142 146.798 123.142 147.051 123.142 147.305C123.016 146.671 122.256 147.431 122.13 146.798C122.256 146.798 122.636 146.671 122.383 146.418C122.383 145.785 121.75 146.671 121.497 146.291V146.798C121.37 146.418 120.991 146.925 121.117 146.418C120.991 146.545 120.738 146.165 120.738 146.671C120.231 146.165 120.105 146.798 119.599 146.165C119.599 146.291 119.472 146.291 119.599 146.418C119.852 146.545 119.599 146.165 119.725 146.291C119.725 146.291 119.725 146.418 119.725 146.545C119.599 146.545 119.472 146.545 119.345 146.165H119.219C119.092 146.291 119.599 146.925 119.345 146.925C119.219 146.798 119.092 146.798 119.092 146.925C119.092 147.051 119.219 147.178 119.219 147.431C118.839 147.938 118.713 147.431 118.46 147.305C118.333 147.558 118.206 147.811 118.333 148.191C118.206 148.191 118.08 148.191 117.953 148.191C118.206 148.191 117.953 148.571 117.953 148.698V148.571C117.827 148.445 117.7 148.825 117.7 148.951C117.827 149.078 118.08 148.951 118.206 148.825C118.206 149.078 118.08 149.205 118.08 149.458C117.953 149.078 117.7 149.585 117.447 149.711C117.194 149.838 117.321 150.218 117.321 150.218C117.321 150.091 116.941 150.345 117.067 150.091C117.067 149.965 117.321 150.091 117.321 149.965C117.194 149.965 117.067 149.711 116.941 149.965C116.814 150.218 117.194 150.598 116.688 150.598C116.814 150.471 116.814 150.345 116.814 150.218C116.688 150.218 116.561 150.218 116.435 150.218V150.471C116.308 150.471 116.435 150.345 116.435 150.345C116.308 150.725 115.802 150.598 115.675 150.978C115.422 150.978 115.169 150.725 115.042 150.725C114.789 150.471 114.536 150.471 114.283 150.598C114.157 150.471 113.903 150.345 113.65 150.471C113.524 149.965 114.03 149.331 113.65 149.458C113.397 149.205 113.018 149.458 113.018 149.838C112.891 149.458 112.638 149.205 112.385 148.825C112.132 148.445 112.005 148.065 112.005 147.685C111.878 147.685 111.878 147.685 111.625 147.558C111.372 146.798 110.613 146.291 110.866 145.531C111.119 145.658 111.119 145.405 111.246 145.405C110.993 145.405 111.372 145.152 110.993 145.278C110.739 145.405 110.613 145.405 110.613 145.658C110.36 145.278 109.98 144.772 110.107 144.392C110.107 144.518 109.98 144.518 109.854 144.392C110.233 144.265 110.107 143.885 109.98 143.758L109.727 143.885L109.854 143.632C109.727 143.632 109.347 143.758 109.474 143.505C109.6 143.505 109.6 143.378 109.727 143.378C109.6 143.252 109.347 143.252 109.221 142.998L112.385 143.632C112.385 143.758 112.385 143.758 112.258 143.758L111.878 143.632C111.878 143.758 111.878 143.885 112.132 143.885C111.752 144.012 111.625 144.138 111.372 144.138C111.499 144.645 111.625 145.025 111.625 145.405C111.625 145.658 111.625 145.785 111.499 146.038C111.372 146.291 111.372 146.545 111.246 146.798L111.119 146.671C110.866 147.051 111.372 147.051 111.246 147.305C111.119 147.051 110.866 147.431 110.739 147.051C110.486 147.431 110.993 147.938 110.993 148.318C111.246 148.571 110.866 147.938 111.119 148.191C111.246 148.318 110.866 148.951 111.119 149.331C110.993 149.331 110.739 149.078 110.613 148.825L110.107 148.191C109.854 148.191 109.727 147.811 109.6 147.431C109.474 147.051 109.221 146.671 108.968 146.671V146.925C108.588 146.798 108.714 146.038 108.461 146.418C108.588 146.798 108.968 147.558 109.221 147.431C109.221 148.065 109.98 148.571 109.727 149.205C109.474 149.205 109.854 148.571 109.474 148.445C109.221 148.445 109.474 149.331 109.347 149.458C109.474 149.331 109.727 150.091 109.727 150.345C109.474 150.471 109.474 149.711 109.347 150.091C109.474 150.471 109.474 151.104 109.727 150.851C109.98 151.611 109.474 151.231 109.6 151.991C109.347 151.611 109.221 150.471 108.968 150.725C109.221 151.104 109.094 151.864 109.474 152.371C109.347 152.371 109.221 152.118 109.094 151.611C108.841 151.611 109.221 153.004 108.841 152.118L108.968 152.624C108.841 152.498 108.841 152.498 108.588 152.371C108.461 152.498 108.461 153.638 108.335 152.878C108.335 153.004 108.082 153.384 108.335 153.764C108.588 153.764 108.335 153.131 108.714 153.638C108.461 153.258 108.588 154.018 108.461 154.398L108.335 154.144C108.335 154.398 108.208 154.524 108.208 154.904C108.208 154.651 108.208 154.524 108.082 154.524V155.031C107.829 155.664 107.829 154.398 107.702 154.904L107.829 154.271C107.829 154.398 107.702 154.144 107.575 154.398C107.575 154.904 107.575 155.538 107.575 155.918C107.449 156.298 107.449 155.538 107.322 156.171C107.322 155.918 107.449 155.664 107.449 155.411C107.449 155.284 107.196 154.904 107.069 155.284C106.943 155.664 106.816 156.551 107.069 156.551C106.943 156.677 106.816 156.677 106.816 156.171C106.69 156.551 106.816 156.677 106.69 157.057C106.563 156.804 106.436 156.424 106.31 155.918L106.436 154.904H106.31C106.436 154.144 106.183 154.271 106.31 153.511C106.31 153.258 106.183 153.511 106.183 153.764C106.31 154.524 106.31 154.904 106.183 155.538C106.183 156.044 106.057 156.677 106.057 157.311C105.93 157.564 105.93 157.311 105.93 156.931C105.804 155.664 105.93 154.271 105.551 155.284C105.551 155.791 105.424 156.424 105.677 156.677C105.424 155.918 105.424 157.691 105.171 156.424C105.424 156.298 105.044 154.524 105.424 154.398C105.424 154.778 105.551 155.158 105.551 155.031C105.551 154.271 105.677 153.638 105.424 153.131C105.297 153.004 105.171 152.624 105.171 153.384C105.171 154.144 105.297 153.764 105.171 154.398C104.918 154.018 104.918 152.878 104.791 153.764C104.918 154.144 104.918 154.904 104.918 155.411L104.665 155.158L104.791 154.778C104.538 153.511 104.538 155.284 104.285 154.271V153.131C104.538 152.624 104.665 154.651 104.791 153.384C104.665 152.878 104.411 153.258 104.285 152.498L104.411 152.624C104.285 152.371 104.538 150.851 104.158 150.978C103.905 150.978 104.032 151.231 103.905 151.611C103.526 150.978 103.399 150.978 103.146 150.471C103.399 150.091 102.766 149.585 103.272 149.585C103.272 150.091 103.652 151.231 104.032 150.851C104.158 149.838 104.285 151.611 104.538 150.851C104.285 150.345 104.538 149.585 104.665 148.951C104.665 148.825 104.538 148.951 104.411 148.951C104.285 149.331 104.285 149.458 104.158 149.965C104.032 149.331 103.652 148.951 103.399 148.951C103.399 148.571 103.652 148.318 103.779 148.445C103.399 147.938 103.146 147.178 103.019 146.545C102.766 147.305 102.64 145.911 102.387 146.418C102.387 146.798 102.26 147.431 102.007 147.305C101.88 147.051 102.133 147.178 102.26 147.051C101.88 146.925 102.387 146.291 101.88 146.291C102.387 146.925 102.513 146.165 102.893 146.038C102.513 145.785 103.146 145.911 103.019 145.531C102.64 145.278 102.387 145.025 102.133 144.772C102.26 144.138 101.627 143.758 101.501 143.378C101.627 143.125 102.007 142.998 102.007 142.745C101.88 142.492 101.627 143.125 101.627 142.745H101.754C101.627 142.745 101.754 141.985 101.121 142.112L101.627 141.985C101.627 141.858 101.501 141.858 101.374 141.858C101.501 141.732 101.627 141.605 101.754 141.732C101.88 141.352 101.501 141.352 101.374 141.098L101.247 141.352C100.868 141.098 100.994 140.592 100.615 140.338L100.868 140.212L100.615 140.085C100.868 139.958 100.868 139.705 100.615 139.705L101.501 139.958C101.501 140.212 101.121 139.958 100.868 140.212C100.741 140.465 100.994 140.718 101.247 140.718C101.247 140.592 101.121 140.592 100.994 140.465C101.374 140.212 101.374 140.465 101.754 140.465C101.754 140.338 101.754 140.212 101.627 140.338C101.88 140.338 102.007 140.465 102.133 140.718C101.88 140.592 102.007 140.972 101.88 140.972C102.133 140.845 102.387 140.972 102.513 141.352C102.26 141.732 103.019 141.858 103.146 142.238C102.766 142.238 102.387 142.238 102.133 142.112C102.133 142.365 102.26 142.365 102.26 142.618C102.513 142.618 102.893 142.492 103.272 142.745L103.019 142.872C103.272 143.125 103.652 142.872 103.652 143.252C103.779 143.885 104.158 144.518 104.285 144.898L104.032 145.025C104.285 145.025 104.538 145.278 104.538 145.405C104.665 145.531 104.665 145.658 104.791 145.785C104.791 146.038 104.918 146.165 105.044 146.418C105.171 146.545 105.171 146.671 105.171 147.051C105.55 147.558 105.804 147.685 106.057 148.445L105.93 149.205C106.057 148.698 105.93 149.838 106.057 149.838C106.057 148.951 106.183 149.078 106.183 148.571C106.183 148.698 106.183 148.698 106.183 148.825C106.31 149.458 106.436 149.078 106.436 148.571V149.331C106.436 148.951 106.436 148.951 106.436 148.825C106.436 148.698 106.436 148.698 106.563 148.698C106.69 148.825 106.816 148.951 106.816 148.951C106.816 149.205 107.069 149.838 107.069 149.585C106.943 148.318 106.943 148.318 106.943 147.431C106.943 147.305 107.069 147.305 107.196 147.431C107.069 146.545 107.069 146.291 107.069 145.911C107.069 145.658 107.069 145.405 107.069 145.025L107.322 145.152C107.196 144.898 107.069 144.772 107.196 144.645C107.196 144.265 107.322 143.885 107.449 143.505C107.702 142.745 108.082 142.112 108.335 141.352L108.714 141.732C109.094 141.478 109.094 140.845 108.841 140.718C109.094 140.592 109.221 140.212 109.474 139.958L111.246 138.059L112.511 140.592C112.638 140.718 112.638 140.845 112.511 140.972C112.511 141.352 112.891 141.225 113.144 141.478C113.271 142.112 113.397 142.365 113.777 142.872V142.745C113.65 142.745 113.397 142.872 113.524 142.998C113.777 143.125 113.777 143.885 114.283 143.378C114.283 143.758 114.536 144.138 114.663 144.392C114.916 144.645 115.169 145.152 114.916 145.278C115.042 145.152 115.042 145.152 115.169 145.152C115.169 145.152 115.042 145.658 115.296 145.531C115.296 145.658 115.169 145.785 115.169 145.911C115.169 145.911 115.296 145.658 115.422 145.531C115.549 145.405 115.549 145.531 115.675 145.785C115.802 145.911 115.928 146.038 116.055 145.911C116.181 145.658 116.181 145.405 116.181 145.278C116.055 145.531 116.814 144.012 117.7 143.505C118.206 143.125 118.713 142.872 119.345 142.745V142.872C119.725 142.492 120.231 142.618 120.738 142.745C121.244 142.872 121.624 142.998 121.877 142.745C122.003 142.872 122.383 142.998 122.256 143.125C122.889 142.872 123.395 143.758 124.028 143.505H123.902C124.281 143.885 124.788 143.758 125.167 144.012C125.167 144.012 125.041 144.138 125.041 144.265C125.167 144.518 125.42 143.758 125.547 144.392C125.673 144.392 125.547 144.138 125.547 144.138C125.927 144.265 126.306 144.138 126.939 143.885C127.445 143.632 128.331 143.252 129.217 142.998C130.483 143.125 129.47 144.012 130.356 143.378C130.483 143.505 130.356 143.125 130.356 143.252C130.736 143.125 130.989 143.885 131.115 143.632C130.989 143.252 131.242 143.378 131.242 143.252C132.001 143.505 132.001 143.885 132.634 143.632V143.758C133.267 143.252 134.026 143.758 134.659 143.252C136.304 143.632 137.95 144.012 139.342 144.392C140.861 144.772 142.253 145.152 143.771 145.531L145.037 146.038C145.037 146.038 145.037 145.911 145.037 146.038L144.91 146.291L145.29 145.531C145.67 144.645 146.176 143.885 146.556 142.998C146.935 142.238 147.315 141.478 147.695 140.845C148.074 140.592 148.328 140.465 148.454 140.212C148.581 140.085 148.581 139.958 148.707 139.832C148.834 139.705 148.834 139.452 148.96 139.072C148.96 139.325 148.96 139.325 148.96 139.578C148.96 139.452 148.96 139.325 148.96 139.325C149.087 138.945 149.593 140.465 149.72 139.958C150.099 140.592 150.479 141.352 150.859 141.985L151.365 142.872C151.492 143.125 151.745 143.505 151.871 143.632L152.504 144.265L152.631 144.392L152.884 144.518L153.01 144.645C153.137 144.772 153.39 144.898 153.516 145.025C153.39 145.025 153.137 145.278 153.263 145.278L153.516 145.152V145.278C153.643 145.278 153.896 145.152 153.77 145.025C155.795 145.658 157.946 146.671 160.477 146.038C161.11 146.038 161.869 145.658 162.502 145.405C164.527 145.278 166.552 144.898 168.45 143.632C167.944 143.125 168.197 144.265 167.438 144.898Z" fill="#090A0A"/>
<path d="M101.121 138.818C100.994 138.945 100.994 139.325 100.615 139.198C100.868 139.198 100.994 138.945 101.121 138.818Z" fill="#090A0A"/>
<path d="M102.26 145.912V146.038C102.26 145.912 102.007 145.912 102.133 145.912H102.26Z" fill="#090A0A"/>
<path d="M103.272 148.445C103.146 148.571 102.766 148.192 102.64 147.812L103.272 148.445Z" fill="#090A0A"/>
<path d="M103.905 151.991C103.905 152.498 103.905 152.625 103.779 152.245C103.779 151.991 103.905 152.118 103.905 151.991Z" fill="#090A0A"/>
<path d="M104.158 151.484C104.285 151.738 104.285 151.991 104.285 152.244C104.285 152.118 104.032 151.991 104.158 151.484Z" fill="#090A0A"/>
<path d="M106.436 157.691C106.436 157.564 106.563 157.057 106.69 157.564C106.563 157.184 106.436 158.324 106.436 157.691Z" fill="#090A0A"/>
<path d="M107.322 155.918C107.322 155.918 107.449 155.918 107.449 155.791C107.575 155.791 107.449 156.171 107.449 156.298L107.322 155.918Z" fill="#090A0A"/>
<path d="M121.497 146.418H121.37V146.292L121.497 146.418Z" fill="#090A0A"/>
<path d="M134.28 146.798C134.533 146.672 134.406 147.052 134.406 147.052C134.28 146.925 134.533 146.798 134.28 146.798Z" fill="#090A0A"/>
<path d="M141.24 148.065V147.938L141.367 147.685L141.24 148.065Z" fill="#090A0A"/>
</g>
<defs>
<clipPath id="clip0">
<rect width="237.552" height="229" fill="white"/>
</clipPath>
</defs>
</svg>
