<svg width="274" height="229" viewBox="0 0 274 229" fill="none" xmlns="http://www.w3.org/2000/svg">
<g clip-path="url(#clip0)">
<path d="M203.956 52.2648C207.615 51.8738 211.142 51.6131 214.67 51.2221C215.977 51.0918 217.283 50.9614 218.59 50.9614C220.288 50.9614 220.942 52.0041 221.072 53.4378C221.334 57.2176 219.113 59.6939 216.63 61.9096C215.977 62.431 215.454 63.0827 214.801 63.7343C214.017 64.6467 214.017 64.777 215.193 65.168C217.283 65.8197 219.505 65.6894 221.726 65.8197C224.731 65.8197 227.736 65.6894 230.741 65.9501C231.917 66.0804 233.224 66.9927 233.224 67.9051C233.224 68.8174 233.093 69.7298 232.962 70.6421C232.57 73.1185 231.002 74.9432 229.435 76.6376C226.429 79.7656 223.555 83.024 220.288 85.8914C219.897 86.2824 219.505 86.8038 218.851 86.8038C218.329 86.8038 217.283 87.0645 217.937 85.8914C218.067 85.7611 218.067 85.5004 217.937 85.3701C217.022 84.0667 217.937 83.1544 218.721 82.1117C220.942 79.3746 223.294 76.5073 225.645 73.7702C225.907 73.5095 226.299 73.2489 226.037 72.8579C225.907 72.5972 225.384 72.7275 225.123 72.7275C222.771 72.5972 220.419 73.1185 218.067 72.9882C216.761 72.9882 215.454 72.8579 214.278 72.5972C213.494 72.3365 212.71 72.2062 212.188 71.4242C212.057 71.1635 211.796 70.9028 211.534 70.9028C209.967 70.5118 210.097 69.2084 209.836 68.0354C209.183 64.9074 209.836 62.1703 211.796 59.6939C211.926 59.5636 211.796 59.4333 211.926 59.3029C211.012 59.3029 210.359 59.1726 209.444 59.3029C206.308 59.8243 203.172 60.4759 199.906 60.3456C198.599 60.3456 197.685 59.6939 196.901 58.7816C196.247 57.9996 196.77 56.9569 196.378 55.9142C195.594 54.0895 196.509 52.5255 197.554 51.0918C198.077 50.4401 198.599 49.7884 199.122 49.1367C197.554 48.3547 195.986 49.0064 194.549 49.0064C192.328 49.1367 190.107 49.0064 187.885 49.0064C186.448 48.8761 185.011 49.1367 183.704 48.7457C182.528 48.3547 182.659 47.312 182.528 46.53C182.398 46.0087 182.92 45.2267 183.966 45.2267C191.021 45.357 197.815 44.0536 204.61 42.4896C205.916 42.2289 207.223 42.6199 207.353 43.402C207.484 44.184 207.484 45.0963 207.484 45.8783C207.353 47.9637 206.308 49.6581 205.002 51.0918C204.479 51.3524 204.087 51.6131 203.956 52.2648Z" fill="#ECE4F2"/>
<path d="M75.6507 0.00013449C76.6959 -0.130201 77.7412 0.000134509 78.7864 0.521478C79.1784 0.782149 79.4397 1.30349 79.1784 1.6945C78.2638 2.99786 78.9171 4.17088 79.3091 5.3439C81.9222 12.9034 85.8419 19.8112 90.1536 26.5886C91.7215 29.065 93.4201 31.4111 95.1186 33.8874C95.3799 34.2785 95.6412 34.5391 95.3799 35.0605C94.9879 35.5818 94.596 35.1908 94.3347 35.3211C91.8522 36.2335 90.8069 34.4088 89.5003 32.9751C82.9675 25.6763 78.3945 17.3348 75.3893 8.08095C74.8667 6.38659 74.4747 4.69222 74.4747 2.86752C74.2134 1.6945 74.4747 0.651814 75.6507 0.00013449Z" fill="#ECE4F2"/>
<path d="M59.3185 21.7662C59.4491 20.9842 59.7105 20.4629 60.4944 20.5932C61.2783 20.5932 61.801 20.8539 62.0623 21.7662C62.5849 23.5909 64.0221 24.7639 65.3287 26.0673C69.9017 30.4987 74.8667 34.5391 79.701 38.7099C80.093 39.1009 80.485 39.3616 80.3543 40.0132C80.2237 40.7953 79.5704 40.2739 79.1784 40.5346C78.0025 41.3166 77.0879 40.6649 76.3039 40.0132C71.7309 36.7548 67.0273 33.6268 63.1075 29.5864C61.801 28.283 60.6251 26.8493 59.4491 25.4156C58.9265 24.7639 59.1878 23.7213 58.4039 23.1999C58.0119 22.9392 58.0119 22.1572 58.1426 21.6359C58.2732 21.3752 58.4039 20.9842 58.7959 20.9842C59.3185 20.9842 59.1878 21.3752 59.3185 21.7662Z" fill="#ECE4F2"/>
<path d="M45.5994 38.5792C47.0367 38.1882 48.0819 38.5792 49.2578 39.3612C51.3484 40.9252 53.9615 41.4466 56.444 42.0982C59.7104 42.8803 63.1075 43.5319 66.5046 43.9229C67.4192 44.0533 68.2032 44.314 68.9871 44.4443C69.2484 44.5746 69.6404 44.705 69.5097 45.2263C69.3791 45.6173 69.1178 45.7476 68.7258 45.7476C65.8513 46.7903 62.9769 45.878 60.2331 45.6173C56.444 45.2263 52.6549 44.4443 48.9965 42.8803C47.6899 42.3589 46.3834 41.5769 45.3381 40.7949C44.8155 40.4039 44.4235 40.0129 44.5542 39.2309C44.6848 38.5792 45.3381 38.5792 45.5994 38.5792Z" fill="#ECE4F2"/>
<path d="M22.7344 171.261C14.503 162.268 7.57813 152.362 0.914598 142.327C1.43723 141.675 1.56788 142.457 1.95986 142.327C2.35183 141.935 1.43723 141.153 2.61314 140.893C3.6584 140.762 4.18103 141.284 4.70366 141.805C7.44747 144.933 9.27667 148.843 12.2818 151.841C13.3271 152.884 14.7643 153.666 15.1563 155.49C15.4176 156.533 16.9855 156.924 17.6388 158.097C18.0307 158.749 18.8147 159.4 19.3373 160.183C21.2972 163.311 24.041 165.787 27.3074 167.351C27.9607 167.612 28.3527 168.133 28.222 168.654C27.6994 170.218 27.6994 172.043 25.7395 173.086C24.3023 173.868 23.3877 173.607 22.3424 172.825C19.7293 171 17.7694 168.394 15.8095 165.917C13.4577 163.05 11.3672 159.922 9.14602 157.054C6.1409 153.014 3.52775 148.843 0.78394 144.803C0.522625 144.412 -0.130662 143.891 0.391968 143.5C0.78394 143.239 1.17591 143.891 1.43723 144.282C3.13577 146.628 4.70366 149.104 6.27155 151.58C7.70879 153.926 9.53799 156.142 11.3672 158.358C14.2417 161.877 16.8548 165.526 19.8599 168.915C20.6439 169.697 21.4278 170.74 22.7344 171.261Z" fill="#ECE4F2"/>
<path d="M63.4995 196.286C63.8915 197.589 62.4542 197.72 62.0623 197.98C61.1477 198.502 61.2783 200.066 60.3637 200.066C59.0572 200.066 57.6199 200.717 56.1827 199.675C53.4389 197.72 51.087 195.243 48.6046 193.028C46.7754 191.333 45.0768 189.769 43.5089 187.684C42.8556 186.771 42.333 185.859 42.333 184.816C42.2023 183.643 42.5943 182.861 43.7702 182.21C44.6848 181.688 45.3381 181.037 46.2527 180.646C47.1673 180.255 48.0819 180.124 48.6046 181.167C48.9965 181.949 49.9111 182.079 50.5644 182.731C53.0469 184.816 56.052 186.511 58.0119 189.117C59.5798 191.073 61.2783 192.767 63.1075 194.592C63.6302 194.983 64.2834 195.504 63.4995 196.286Z" fill="#ECE4F2"/>
<path d="M65.1981 127.859C65.59 128.25 65.8514 128.511 66.1127 128.772C66.374 128.641 66.374 128.511 66.374 128.25C66.374 127.859 65.8514 127.468 66.2433 127.208C66.766 126.817 66.8966 127.599 67.2886 127.729C67.6806 127.208 67.0273 126.817 67.1579 126.426C68.4645 126.165 69.2484 126.817 69.9017 127.859C71.8616 130.596 73.9521 133.073 76.4346 135.288C77.3492 136.07 77.3492 137.765 78.6558 138.286C80.2237 138.938 81.3996 140.241 82.3142 141.545C83.7514 143.76 85.9726 145.064 87.9325 146.758C88.4551 147.279 89.3697 147.149 89.631 148.061C89.7617 148.322 90.023 148.713 89.631 148.843C88.3244 148.843 88.5858 149.886 88.0631 150.538C87.2792 151.711 85.8419 151.45 84.666 151.189C82.8368 150.668 81.2689 149.495 79.9624 148.192C74.8667 142.978 70.2937 137.504 66.374 131.378C65.59 130.336 64.8061 129.423 65.1981 127.859Z" fill="#ECE4F2"/>
<path d="M33.579 136.983C34.3629 137.635 35.2775 138.286 36.1921 139.068C41.5491 143.63 46.3834 148.844 51.0871 154.187C52.9163 156.273 54.4842 158.358 56.5747 160.183C57.0973 160.704 57.4893 161.356 56.444 161.877C56.1827 162.007 56.0521 162.268 55.7907 162.529C54.4842 163.963 52.9163 164.093 51.4791 162.92C49.9112 161.616 48.7352 160.052 47.4287 158.488C42.333 151.711 36.9761 145.194 30.8352 139.459C30.0512 138.677 30.0512 138.677 31.0965 138.286C31.2271 138.286 31.3578 138.156 31.3578 138.026C31.6191 136.592 32.5337 136.853 33.579 136.983Z" fill="#ECE4F2"/>
<path d="M87.6711 205.409C90.023 207.625 91.4602 210.232 93.5507 212.317C95.6412 214.402 97.6011 216.618 100.084 218.312C98.2544 216.488 96.5558 214.663 94.7266 212.838C92.6361 210.753 90.9376 208.407 89.1084 206.061C88.1938 204.888 88.5857 204.106 89.5003 203.584C90.4149 203.063 91.5909 203.324 91.9828 204.366C92.8974 206.452 94.4653 208.016 96.1639 209.319C99.0383 211.535 101.521 214.402 104.787 216.227C105.571 216.618 105.963 217.53 106.878 217.921C107.792 218.443 108.707 218.834 109.752 218.703C110.406 218.573 111.32 218.182 111.712 219.094C111.973 219.746 112.104 220.658 111.32 221.31C111.059 221.571 110.928 222.092 110.798 222.483C109.752 224.829 107.662 225.611 105.441 224.308C102.435 222.613 99.8223 220.267 97.3398 217.791C94.0734 214.663 90.9376 211.274 88.4551 207.494C88.0631 207.103 87.6711 206.582 87.6711 205.409Z" fill="#ECE4F2"/>
<path d="M143.201 152.493C141.894 155.751 140.195 156.142 137.844 154.057C136.145 152.363 134.969 150.277 133.793 148.192C131.049 143.369 128.436 138.417 126.084 133.464C125.562 132.291 125.562 130.987 125.692 129.814C125.692 129.423 125.823 128.381 126.084 128.641C126.738 129.032 127.652 128.511 128.175 129.423C130.396 133.464 132.879 137.244 135.361 141.154C136.406 142.848 137.452 144.673 138.497 146.367C139.281 147.54 140.065 148.713 141.763 148.452C142.025 148.452 142.417 148.583 142.417 148.713C142.417 150.016 143.462 151.32 143.201 152.493Z" fill="#ECE4F2"/>
<path d="M82.9675 91.3654C81.7916 89.0194 79.8317 87.0644 78.6558 84.7183C78.2638 84.0666 78.0025 83.2846 77.6105 82.6329C76.9572 81.5903 77.8718 81.1993 78.3945 80.8082C78.9171 80.5476 79.5704 80.5476 80.093 81.3296C82.0529 84.3273 84.4047 86.934 86.8872 89.4104C88.7164 91.1048 89.8923 93.4508 92.2442 94.6238C93.1588 95.1452 93.9427 96.1879 94.8573 96.9699C96.0332 98.0126 94.596 98.5339 94.204 99.1856C94.204 99.3159 93.812 99.3159 93.6814 99.3159C93.5507 99.8373 94.596 100.489 93.5507 100.75C92.1135 101.01 90.8069 101.401 89.3697 100.228C87.1485 98.4036 85.1887 96.1879 83.4901 93.9722C81.1383 90.8441 78.5251 87.9767 76.9572 84.3273C76.8266 84.0666 76.6959 83.806 76.5653 83.5453C76.4346 83.2846 76.4346 82.8936 76.6959 82.7633C77.0879 82.6329 77.3492 82.8936 77.4799 83.1543C78.3945 86.152 80.6156 88.2374 82.4448 90.7138C82.5755 90.9744 82.8368 91.1048 82.9675 91.3654Z" fill="#ECE4F2"/>
<path d="M107.662 164.484C107.27 163.571 107.008 162.528 106.486 161.616C105.833 160.573 105.963 159.791 106.747 159.009C107.139 158.488 107.792 158.879 108.054 159.14C108.968 159.661 109.491 160.573 109.491 161.616C109.491 161.877 109.23 162.137 109.622 162.268C111.581 163.05 111.973 165.135 113.28 166.569C113.672 166.96 113.933 167.612 114.325 168.133C115.501 169.567 116.808 170.87 116.546 172.955C116.546 173.477 116.677 174.259 117.33 174.259C119.682 174.259 120.466 176.214 121.642 177.647C123.602 179.863 125.17 182.47 127.26 184.686C127.522 184.946 127.914 185.207 127.652 185.468C127.391 185.859 127.13 185.077 126.738 185.337C126.868 186.119 127.522 186.901 126.084 187.423C125.562 187.553 126.084 188.335 126.346 188.596C126.607 188.856 126.738 189.117 126.476 189.508C126.084 189.899 125.954 189.378 125.692 189.117C122.034 185.207 118.898 180.906 115.893 176.474C113.28 172.564 110.536 168.654 107.923 164.875C107.923 164.744 107.792 164.614 107.662 164.484Z" fill="#ECE4F2"/>
<path d="M105.833 132.682C105.833 133.203 104.657 131.378 105.179 133.073V133.203C104.134 133.855 103.873 134.506 104.395 135.679C104.526 135.94 102.174 136.852 101.651 136.722C100.868 136.461 100.214 135.94 99.561 135.419C96.4252 131.9 94.204 127.859 92.8974 123.428C92.2441 121.212 93.1587 119.518 94.7266 118.084C95.6412 117.302 96.2945 117.563 96.6865 118.605C97.2091 119.778 97.7318 120.951 98.385 121.994C99.0383 123.298 99.9529 124.471 100.606 125.774C101.39 127.468 103.089 128.641 104.265 130.205C104.787 130.857 105.571 131.639 105.833 132.682ZM101.129 134.246C99.2996 131.769 97.6011 129.423 96.0332 126.817C96.6865 129.293 99.169 132.942 101.129 134.246Z" fill="#ECE4F2"/>
<path d="M123.733 93.7113C124.386 94.2327 124.647 94.4933 125.3 94.8843C125.17 94.4933 125.17 94.2327 125.039 94.1023C124.125 93.19 124.778 92.5383 125.3 92.0169C125.954 91.4956 126.868 91.6259 127.391 92.1473C128.306 93.0596 129.351 93.972 130.135 95.145C131.18 96.5787 132.225 98.1427 133.532 99.4461C134.969 100.749 136.145 102.313 138.236 102.574C139.281 102.704 139.411 103.747 138.758 104.399C138.366 104.79 138.236 105.181 138.105 105.702C137.19 108.57 134.577 109.352 132.225 107.136C128.959 104.138 126.738 100.358 124.647 96.4484C124.255 95.6664 123.602 95.0147 123.733 93.7113Z" fill="#ECE4F2"/>
<path d="M143.331 220.658C144.376 221.049 145.16 220.398 146.075 220.658C145.814 221.962 144.768 222.483 143.201 222.222C141.502 221.962 140.326 220.919 139.411 219.746C137.452 217.139 135.23 214.793 133.793 211.665C133.271 210.492 132.095 209.319 131.311 208.016C129.22 204.497 127.26 200.847 125.17 197.198C124.778 196.416 124.517 195.634 124.386 194.852C124.386 194.461 124.386 194.07 124.778 193.809C125.17 193.548 125.562 193.809 125.823 194.07C126.215 194.591 126.607 194.982 126.999 195.504C130.004 200.456 132.748 205.539 135.884 210.492C137.06 212.447 138.628 214.142 140.457 215.575C141.241 216.227 142.417 216.357 143.462 216.618C143.723 216.748 144.246 216.488 144.246 217.009C144.246 218.052 144.376 218.964 145.814 218.573C146.206 218.443 146.075 218.964 146.075 219.225C145.944 219.746 145.683 220.267 145.03 220.137C144.376 220.137 143.984 220.398 143.331 220.658Z" fill="#ECE4F2"/>
<path d="M81.9222 171.913C81.6609 172.174 81.5303 172.304 81.7916 172.565C82.7062 173.477 83.7514 174.389 84.666 175.302C85.1887 175.953 86.4952 176.344 85.5806 177.648C85.45 177.908 85.7113 177.908 85.9726 177.908C86.4952 177.778 86.6259 178.039 86.8872 178.43C87.2792 179.082 87.8018 179.473 88.5858 179.603C90.023 179.864 90.2843 181.167 89.239 182.21C89.1084 182.34 88.8471 182.47 88.8471 182.601C90.9376 183.774 87.5405 183.904 88.4551 184.816C88.0631 185.077 87.5405 185.077 87.0179 184.947C85.842 184.556 85.058 183.774 84.4047 182.992C81.6609 179.733 79.9624 175.823 78.3945 171.913C78.0025 171.001 78.3945 169.958 78.3945 168.915C78.3945 168.394 79.0478 168.133 79.4397 168.133C80.093 168.133 80.093 168.394 79.7011 168.785C80.7463 169.176 81.1383 170.219 81.6609 171.001C81.9222 171.131 82.3142 171.522 81.9222 171.913Z" fill="#ECE4F2"/>
<path d="M52.263 119.127C52.6549 119.778 53.8309 119.909 53.4389 121.082C53.1776 121.994 52.7856 121.733 52.263 121.473C52.0017 122.255 53.0469 122.385 53.0469 123.037C51.7403 122.776 50.6951 121.864 49.3885 121.473H49.2579C48.8659 120.169 47.69 119.518 46.7754 118.475C46.3834 118.084 45.8608 117.823 45.5994 117.432C43.2476 114.044 40.3731 110.916 38.152 107.266C36.4534 104.529 34.4936 101.792 32.795 98.9246C32.403 98.2729 32.0111 97.6213 31.7498 96.4482C32.795 97.7516 33.579 98.664 34.4936 99.7066C34.4936 99.7066 34.3629 99.7066 34.3629 99.5763C35.0162 101.531 36.5841 102.835 37.4987 104.659C38.0213 104.399 37.76 104.138 37.76 103.877C37.8907 103.486 38.152 103.356 38.5439 103.356C38.6746 103.356 39.0666 103.356 38.9359 103.617C38.8053 104.79 39.8505 104.92 40.5038 105.181C41.2877 105.572 41.5491 106.093 41.6797 106.875C41.8104 108.048 42.4637 108.83 43.6396 109.221C43.7702 109.482 44.0316 109.742 44.1622 110.003C44.2929 111.176 46.1221 113.653 47.298 113.913C47.0367 114.565 48.0819 115.217 47.1673 115.738C46.3834 115.738 45.9914 115.738 46.6447 116.65C47.4286 117.823 48.8659 118.214 49.3885 119.518C49.5192 119.648 49.6498 119.778 49.9111 119.648C50.1725 119.518 50.1725 119.127 49.9111 118.996C48.8659 118.475 48.4739 117.302 47.5593 116.65C47.1673 116.39 46.906 116.129 47.1673 115.608C49.2579 115.999 50.0418 118.084 51.479 119.257C51.7403 119.387 50.6951 120.039 51.6097 120.039C52.0017 120.169 52.3936 119.778 52.263 119.127ZM41.6797 109.612C41.5491 109.742 41.4184 109.742 41.2878 109.873C42.0717 110.916 42.8556 111.958 43.6396 113.001C43.7702 113.131 43.9009 113.392 44.1622 113.131C44.2929 113.001 44.4235 112.74 44.2929 112.61C43.117 111.828 42.725 110.394 41.6797 109.612Z" fill="#ECE4F2"/>
<path d="M155.352 123.428C156.005 123.95 156.789 124.08 157.573 124.08C157.965 124.08 158.226 124.08 158.226 124.601C158.226 124.992 157.834 125.123 157.442 125.123C156.528 125.123 155.744 124.732 155.09 124.341C152.739 122.516 150.909 120.17 149.472 117.563C149.08 116.781 148.688 115.869 148.166 115.217C147.12 113.914 147.382 112.48 147.382 111.177C147.382 110.525 148.296 110.655 148.688 110.786C148.95 110.786 149.341 111.177 149.341 111.437C149.864 114.044 152.216 115.347 153.523 117.433C153.915 118.084 155.221 118.345 155.744 119.257C156.136 119.909 156.92 120.561 156.789 121.473C156.789 121.994 157.573 121.864 157.834 122.255C157.965 122.386 158.226 122.646 158.096 122.907C158.096 123.168 157.704 123.428 157.573 123.298C156.92 122.386 156.136 123.559 155.352 123.428Z" fill="#ECE4F2"/>
<path d="M107.662 164.484C107.792 164.614 107.923 164.745 108.054 164.875C108.968 167.351 110.275 169.437 111.712 171.652C113.541 174.65 115.632 177.518 117.853 180.255C119.682 182.601 121.119 185.207 123.341 187.293C124.255 188.075 124.909 189.117 125.3 190.682C123.602 190.29 122.949 188.857 122.034 187.814C119.682 185.077 117.592 182.079 115.632 179.082C111.973 173.607 108.184 168.394 105.441 162.399C105.31 162.008 105.049 161.747 105.441 161.226C106.616 162.008 106.747 163.441 107.662 164.484Z" fill="#ECE4F2"/>
<path d="M109.23 104.138C109.36 104.79 110.667 104.66 110.275 105.311C109.883 105.963 109.099 105.311 108.576 104.92C105.571 102.574 104.003 99.4461 103.611 95.6664C103.611 95.1451 103.481 94.2327 104.265 94.1024C105.049 93.972 105.179 94.7541 105.441 95.1451C106.486 97.2304 107.662 99.1855 109.752 100.489C110.275 100.749 110.275 101.271 110.275 101.923C110.275 102.053 110.275 102.314 110.406 102.444C111.059 103.878 110.928 104.66 109.23 104.138Z" fill="#ECE4F2"/>
<path d="M37.8907 108.961C39.4586 109.743 39.8505 111.568 40.8958 112.871C41.6797 113.783 42.5943 114.696 42.9863 115.869C43.117 116.129 43.5089 116.39 43.117 116.781C42.8556 117.042 42.4637 116.911 42.2024 116.651C40.7651 114.696 39.1972 112.741 38.0213 110.525C37.76 110.004 37.8907 109.352 37.8907 108.961Z" fill="#ECE4F2"/>
<path d="M37.8906 108.83C37.4987 108.83 36.976 108.961 36.7147 108.439C35.0162 105.702 33.187 103.096 31.8804 100.228C31.7497 99.9675 31.3578 99.7068 31.7497 99.4462C32.0111 99.3158 32.2724 99.4461 32.403 99.7068C34.1016 102.705 35.9308 105.572 37.8906 108.439C38.0213 108.57 37.8906 108.7 37.8906 108.83C37.8906 108.961 37.8906 108.83 37.8906 108.83Z" fill="#ECE4F2"/>
<path d="M49.2578 121.603C49.9111 122.125 50.1724 122.907 50.9564 123.037C51.2177 123.167 51.6097 123.167 51.479 123.558C51.3484 123.949 50.9564 123.689 50.6951 123.558C48.3432 122.255 46.2527 120.56 44.4235 118.736C44.0315 118.475 43.9009 117.823 44.1622 117.432C44.5542 117.041 44.9461 117.563 45.2075 117.954C46.2527 119.518 47.69 120.56 49.2578 121.603Z" fill="#ECE4F2"/>
<path d="M34.4936 99.7069C34.2323 99.0553 34.4936 97.8822 33.4483 97.3609C33.3177 97.2306 32.795 96.5789 33.3177 96.3182C33.8403 96.0575 34.1016 96.7092 34.2323 96.9699C34.8855 98.5339 35.8001 99.9676 37.2374 101.01C36.5841 101.271 35.9308 101.792 35.6695 100.619C35.5388 100.098 34.8855 100.098 34.4936 99.7069Z" fill="#ECE4F2"/>
<path d="M44.1622 110.134C44.0316 109.873 43.7702 109.612 43.6396 109.352C43.5089 109.091 43.5089 108.83 43.3783 108.57C43.5089 108.57 43.5089 108.439 43.6396 108.439C44.2929 109.221 44.9462 110.003 45.5994 110.786C45.4688 110.916 45.4688 110.916 45.3381 111.046C44.9462 110.655 44.5542 110.394 44.1622 110.134Z" fill="#ECE4F2"/>
<path d="M51.7403 118.345C50.6951 118.214 50.3031 117.302 49.7805 116.65C49.2579 115.999 48.7352 115.347 48.0819 114.695C48.4739 114.695 48.7352 114.826 49.1272 115.217C49.9111 116.259 50.8257 117.302 51.7403 118.345Z" fill="#ECE4F2"/>
<path d="M140.979 15.6401H119.29C115.24 15.6401 111.843 18.8985 111.843 23.0693V29.5861C111.843 33.6265 115.109 37.0152 119.29 37.0152H122.426V43.0107C122.426 43.923 123.21 44.5747 123.994 44.5747H136.145C137.06 44.5747 137.713 43.7927 137.713 43.0107V37.0152H140.849C144.899 37.0152 148.296 33.7568 148.296 29.5861V23.0693C148.296 19.0289 145.03 15.6401 140.979 15.6401ZM134.577 41.4466H125.692V37.0152H134.577V41.4466ZM145.03 29.5861C145.03 31.8018 143.201 33.7568 140.849 33.7568H119.29C117.069 33.7568 115.109 31.9321 115.109 29.5861V23.0693C115.109 20.8536 116.938 18.8985 119.29 18.8985H122.426V25.676C122.426 26.5883 123.21 27.24 123.994 27.24C124.778 27.24 125.562 26.458 125.562 25.676V18.8985H134.055V25.676C134.055 26.5883 134.838 27.24 135.622 27.24C136.406 27.24 137.19 26.458 137.19 25.676V18.8985H140.718C142.939 18.8985 144.899 20.7232 144.899 23.0693V29.5861H145.03Z" fill="#222020"/>
<path d="M212.318 104.79C213.886 111.046 214.67 117.693 214.67 124.471C214.67 139.46 210.75 153.536 203.826 165.787C201.212 170.479 198.077 174.911 194.549 179.082C191.283 182.861 187.755 186.25 183.966 189.378C177.433 194.722 169.985 199.284 161.885 202.412C152.216 206.322 141.633 208.407 130.527 208.407C119.552 208.407 108.968 206.322 99.2997 202.412C91.1989 199.153 83.7514 194.722 77.0879 189.378C73.1682 186.25 69.6404 182.731 66.5046 178.951C63.1075 174.911 59.9718 170.61 57.3586 165.918C50.6951 154.318 46.7754 141.024 46.3834 126.817C46.3834 126.035 46.3834 125.253 46.3834 124.341C46.3834 120.822 46.6447 117.302 47.0367 113.914C47.4287 110.786 47.9513 107.788 48.6046 104.79C49.6498 100.228 51.0871 95.797 52.9163 91.6263C56.052 84.0668 60.3637 77.0287 65.59 70.9029C69.3791 66.2108 73.8215 62.04 78.5251 58.2603C92.6361 47.1818 110.798 40.4043 130.396 40.4043C150.125 40.4043 168.287 47.1818 182.528 58.3906C186.971 61.9097 191.152 65.9501 194.81 70.2512C200.167 76.6377 204.74 83.9365 208.007 91.7566C209.836 96.0577 211.273 100.359 212.318 104.79Z" fill="#7D69FF"/>
<path d="M203.695 125.644H190.237C189.323 125.644 188.669 124.862 188.669 124.08C188.669 123.298 189.453 122.516 190.237 122.516H203.695C204.61 122.516 205.263 123.298 205.263 124.08C205.263 124.862 204.61 125.644 203.695 125.644Z" fill="#6564AB"/>
<path d="M130.396 66.8622C129.482 66.8622 128.828 66.0802 128.828 65.2982V51.7432C128.828 50.8309 129.612 50.1792 130.396 50.1792C131.18 50.1792 131.964 50.9612 131.964 51.7432V65.1678C131.964 66.2105 131.311 66.8622 130.396 66.8622Z" fill="#6564AB"/>
<path d="M130.396 197.72C129.482 197.72 128.828 196.938 128.828 196.156V182.731C128.828 181.819 129.612 181.167 130.396 181.167C131.18 181.167 131.964 181.949 131.964 182.731V196.156C131.964 197.068 131.311 197.72 130.396 197.72Z" fill="#6564AB"/>
<path d="M171.945 84.0665C171.553 84.0665 171.161 83.9361 170.769 83.5451C170.116 82.8934 170.116 81.8507 170.769 81.1991L180.307 71.6846C180.961 71.0329 182.006 71.0329 182.659 71.6846C183.312 72.3362 183.312 73.3789 182.659 74.0306L173.121 83.5451C172.86 83.9361 172.468 84.0665 171.945 84.0665Z" fill="#6564AB"/>
<path d="M79.1784 176.605C78.7864 176.605 78.3944 176.475 78.0025 176.084C77.3492 175.432 77.3492 174.389 78.0025 173.738L87.5405 164.223C88.1938 163.571 89.239 163.571 89.8923 164.223C90.5456 164.875 90.5456 165.918 89.8923 166.569L80.3543 176.084C80.093 176.475 79.701 176.605 79.1784 176.605Z" fill="#6564AB"/>
<path d="M88.7164 84.0665C88.3244 84.0665 87.9324 83.9361 87.5405 83.5451L78.0025 74.0306C77.3492 73.3789 77.3492 72.3362 78.0025 71.6846C78.6558 71.0329 79.701 71.0329 80.3543 71.6846L89.8923 81.1991C90.5456 81.8507 90.5456 82.8934 89.8923 83.5451C89.631 83.9361 89.239 84.0665 88.7164 84.0665Z" fill="#6564AB"/>
<path d="M181.483 176.605C181.091 176.605 180.699 176.475 180.307 176.084L170.769 166.569C170.116 165.918 170.116 164.875 170.769 164.223C171.423 163.571 172.468 163.571 173.121 164.223L182.659 173.738C183.312 174.389 183.312 175.432 182.659 176.084C182.398 176.475 182.006 176.605 181.483 176.605Z" fill="#6564AB"/>
<path d="M71.4696 125.644H58.0119C57.0973 125.644 56.444 124.862 56.444 124.08C56.444 123.298 57.2279 122.516 58.0119 122.516H71.4696C72.3842 122.516 73.0375 123.298 73.0375 124.08C73.0375 124.862 72.3842 125.644 71.4696 125.644Z" fill="#6564AB"/>
<path d="M203.695 124.47C203.695 164.875 170.9 197.589 130.396 197.589C89.8923 197.589 57.0973 164.875 57.0973 124.47C57.0973 84.0663 89.8923 51.3521 130.396 51.3521C170.9 51.3521 203.695 84.0663 203.695 124.47Z" fill="white"/>
<path d="M130.396 199.153C89.1084 199.153 55.3988 165.657 55.3988 124.47C55.3988 83.2844 88.9777 49.6577 130.396 49.6577C171.684 49.6577 205.263 83.154 205.263 124.47C205.263 165.657 171.684 199.153 130.396 199.153ZM130.396 52.9161C90.9376 52.9161 58.6652 84.9787 58.6652 124.47C58.6652 163.832 90.8069 195.895 130.396 195.895C169.855 195.895 201.996 163.832 201.996 124.47C201.996 84.9787 169.855 52.9161 130.396 52.9161Z" fill="#222020"/>
<path d="M271.767 162.529C271.767 169.176 258.832 173.738 256.873 179.733C254.782 185.989 262.621 197.198 258.832 202.412C255.043 207.625 241.847 203.715 236.621 207.625C231.394 211.405 231.133 225.09 224.861 227.175C218.851 229.13 210.489 218.313 203.826 218.313C197.162 218.313 188.8 229.13 182.79 227.175C176.518 225.09 176.257 211.405 171.031 207.625C165.804 203.845 152.608 207.755 148.819 202.412C145.03 197.198 152.739 185.989 150.779 179.733C148.819 173.738 135.884 169.176 135.884 162.529C135.884 155.882 148.819 151.32 150.779 145.325C152.869 139.068 145.03 127.86 148.819 122.646C152.608 117.433 165.804 121.343 171.031 117.433C176.257 113.653 176.518 99.9677 182.79 97.8823C188.8 95.9273 197.162 106.745 203.826 106.745C210.489 106.745 218.851 95.9273 224.861 97.8823C231.133 99.9677 231.394 113.653 236.621 117.433C241.847 121.212 255.043 117.302 258.832 122.646C262.621 127.86 254.913 139.068 256.873 145.325C258.832 151.32 271.767 155.882 271.767 162.529Z" fill="white"/>
<path d="M223.163 229C219.766 229 216.238 226.654 212.71 224.308C209.575 222.223 206.308 220.007 203.695 220.007C201.082 220.007 197.815 222.223 194.68 224.308C190.499 227.175 186.187 230.043 182.136 228.739C177.955 227.436 176.126 222.353 174.428 217.531C173.121 214.012 171.815 210.492 169.855 209.059C167.895 207.625 163.975 207.495 160.186 207.364C155.09 207.234 149.733 206.973 147.251 203.585C144.768 200.196 146.206 195.113 147.643 190.16C148.688 186.511 149.733 182.731 148.949 180.385C148.166 178.169 145.291 175.823 142.286 173.607C138.105 170.479 133.924 167.091 133.924 162.659C133.924 158.228 138.236 154.839 142.286 151.711C145.16 149.495 148.166 147.149 148.949 144.934C149.733 142.588 148.688 138.808 147.643 135.158C146.206 130.206 144.768 125.253 147.251 121.734C149.733 118.215 155.09 118.084 160.186 117.954C163.975 117.824 167.764 117.693 169.855 116.26C171.815 114.826 173.121 111.177 174.428 107.788C176.126 102.965 177.955 97.8823 182.136 96.579C186.187 95.2756 190.499 98.143 194.68 101.01C197.815 103.096 201.082 105.311 203.695 105.311C206.308 105.311 209.575 103.096 212.71 101.01C216.891 98.143 221.203 95.2756 225.253 96.579C229.434 97.8823 231.264 102.965 232.962 107.788C234.269 111.307 235.575 114.826 237.535 116.26C239.495 117.693 243.415 117.824 247.204 117.954C252.3 118.084 257.656 118.345 260.139 121.734C262.621 125.123 261.184 130.206 259.747 135.158C258.702 138.808 257.656 142.588 258.44 144.934C259.224 147.149 262.099 149.495 265.104 151.711C269.285 154.839 273.466 158.228 273.466 162.659C273.466 167.091 269.154 170.479 265.104 173.607C262.229 175.823 259.224 178.169 258.44 180.385C257.656 182.731 258.702 186.511 259.747 190.16C261.184 195.113 262.621 200.066 260.139 203.585C257.656 207.104 252.3 207.234 247.204 207.364C243.415 207.495 239.626 207.625 237.535 209.059C235.575 210.492 234.269 214.142 232.962 217.531C231.264 222.353 229.434 227.436 225.253 228.739C224.6 228.87 223.947 229 223.163 229ZM203.695 216.618C207.353 216.618 211.012 219.095 214.54 221.571C218.067 223.917 221.726 226.393 224.208 225.611C226.821 224.699 228.389 220.528 229.826 216.358C231.264 212.448 232.701 208.277 235.445 206.322C238.319 204.236 242.631 204.106 246.943 203.976C251.254 203.845 255.827 203.715 257.395 201.499C258.963 199.284 257.787 195.113 256.611 190.942C255.435 186.902 254.259 182.601 255.305 179.212C256.35 176.084 259.747 173.347 263.013 170.87C266.541 168.133 270.2 165.396 270.2 162.529C270.2 159.662 266.541 156.924 263.013 154.187C259.747 151.711 256.35 148.974 255.305 145.846C254.259 142.457 255.435 138.286 256.611 134.116C257.787 129.945 259.094 125.644 257.395 123.558C255.827 121.343 251.254 121.212 246.943 121.082C242.762 120.952 238.319 120.821 235.445 118.736C232.701 116.781 231.133 112.61 229.826 108.7C228.389 104.529 226.821 100.359 224.208 99.4464C221.726 98.6644 218.067 101.141 214.54 103.487C211.012 105.963 207.223 108.44 203.695 108.44C200.037 108.44 196.378 105.963 192.85 103.487C189.323 101.141 185.664 98.6644 183.182 99.4464C180.569 100.359 179.001 104.529 177.563 108.7C176.126 112.61 174.689 116.781 171.945 118.736C169.071 120.821 164.759 120.952 160.447 121.082C156.136 121.212 151.563 121.343 149.995 123.558C148.427 125.774 149.603 129.945 150.779 134.116C151.955 138.156 153.131 142.457 152.085 145.846C151.04 148.974 147.643 151.711 144.376 154.187C140.849 156.924 137.19 159.662 137.19 162.529C137.19 165.396 140.849 168.133 144.376 170.87C147.643 173.347 151.04 176.084 152.085 179.212C153.131 182.601 151.955 186.771 150.779 190.942C149.603 195.113 148.296 199.414 149.995 201.499C151.563 203.715 156.136 203.845 160.447 203.976C164.628 204.106 169.071 204.236 171.945 206.322C174.689 208.277 176.257 212.448 177.563 216.358C179.001 220.528 180.569 224.699 183.182 225.611C185.664 226.393 189.323 223.917 192.85 221.571C196.378 219.095 200.037 216.618 203.695 216.618Z" fill="#222020"/>
<path d="M204.871 116.781C230.218 116.911 250.732 137.504 250.601 162.789C250.601 169.697 249.033 176.214 246.289 181.949C238.972 197.589 223.032 208.407 204.479 208.407C179.131 208.277 158.618 187.684 158.749 162.398C158.879 137.113 179.393 116.651 204.871 116.781Z" fill="white"/>
<path d="M204.61 209.971H204.479C178.217 209.841 157.05 188.466 157.181 162.398C157.312 136.331 178.609 115.217 204.74 115.217H204.871C231.133 115.347 252.3 136.722 252.169 162.789C252.169 169.697 250.601 176.475 247.727 182.731C239.887 199.283 223.032 209.971 204.61 209.971ZM204.61 118.345C180.307 118.345 160.447 138.026 160.317 162.398C160.186 186.771 180.046 206.713 204.479 206.713H204.61C221.726 206.713 237.535 196.677 244.721 181.297C247.465 175.432 248.902 169.306 248.902 162.789C249.033 138.417 229.173 118.475 204.74 118.475C204.74 118.345 204.74 118.345 204.61 118.345Z" fill="#222020"/>
<path d="M232.57 173.737L231.786 171.782C231.394 170.87 230.741 170.088 229.957 169.567C230.218 169.306 230.349 168.915 230.48 168.654C231.002 167.351 231.002 165.917 230.48 164.614L229.696 162.659C229.304 161.746 228.651 160.964 227.867 160.313C228.128 160.052 228.259 159.661 228.389 159.4C228.912 158.097 228.912 156.663 228.389 155.36L227.605 153.405C227.083 152.102 226.037 151.189 224.862 150.668C225.384 149.495 225.384 148.061 224.862 146.758L224.078 144.803C223.555 143.499 222.51 142.457 221.203 141.935C219.897 141.414 218.459 141.414 217.153 141.935L215.585 142.587L195.986 150.538C195.986 149.886 195.986 149.234 196.117 148.583L197.423 138.807C197.423 138.547 197.423 138.286 197.423 138.025C197.423 134.897 195.072 132.16 191.805 131.639C188.408 131.118 185.272 133.464 184.619 136.852L180.961 156.533C179.785 160.443 178.347 164.614 178.086 165.135C177.041 167.221 176.388 169.697 176.388 172.564C176.388 175.953 177.172 179.733 178.609 183.252C180.307 187.423 183.574 190.681 187.755 192.375C189.845 193.288 192.066 193.679 194.288 193.679C196.509 193.679 198.599 193.288 200.69 192.375L229.043 180.776L229.435 180.645C232.309 179.472 233.616 176.474 232.57 173.737ZM228.128 177.778L216.499 182.47C215.585 182.731 214.54 182.209 214.148 181.297L213.364 179.342C213.102 178.82 213.233 178.299 213.364 177.908C213.625 177.387 213.886 176.996 214.409 176.865L226.299 172.043C226.821 171.782 227.344 171.782 227.736 172.043C228.259 172.304 228.651 172.564 228.781 173.086L229.565 175.041C229.957 176.083 229.434 177.256 228.52 177.647L228.128 177.778ZM212.188 167.612L213.494 167.09L223.947 162.789H224.078C225.123 162.398 226.168 162.92 226.56 163.832L227.344 165.787C227.605 166.308 227.605 166.83 227.344 167.351C227.083 167.872 226.821 168.133 226.299 168.394L214.409 173.216C213.364 173.607 212.188 173.086 211.796 172.173L211.012 170.218C210.75 169.176 211.142 168.003 212.188 167.612ZM225.253 158.097C224.992 158.618 224.731 159.009 224.208 159.14L222.902 159.661H222.771L212.318 163.962C211.273 164.353 210.228 163.832 209.836 162.92L209.052 160.964C208.791 160.443 208.791 159.922 209.052 159.531C209.313 159.009 209.575 158.618 210.097 158.488L221.987 153.666C223.032 153.275 224.208 153.796 224.6 154.708L225.384 156.663C225.515 157.054 225.515 157.576 225.253 158.097ZM220.942 145.976L221.726 147.931C222.118 148.974 221.595 150.016 220.68 150.538L208.791 155.36C207.745 155.751 206.7 155.23 206.177 154.317L205.394 152.362C205.132 151.841 205.132 151.32 205.394 150.929C205.655 150.407 205.916 150.016 206.439 149.886L216.761 145.715L218.329 145.064C219.374 144.412 220.55 144.933 220.942 145.976ZM199.645 189.378C196.248 190.811 192.589 190.681 189.192 189.378C185.795 187.944 183.182 185.337 181.875 181.949C180.569 178.951 179.915 175.432 179.915 172.564C179.915 170.218 180.307 168.263 181.222 166.699C181.614 166.048 183.312 160.573 184.358 157.445V157.315L188.016 137.504C188.277 135.81 189.845 134.767 191.544 134.897C193.112 135.158 194.288 136.461 194.288 138.025C194.288 138.156 194.288 138.286 194.288 138.416L192.981 148.192C192.72 149.886 192.72 151.58 192.981 153.144C193.242 154.708 193.634 156.142 194.288 157.706C194.941 159.27 195.333 160.834 195.594 162.398C196.378 168.133 194.288 172.825 192.85 175.041C192.328 175.823 192.589 176.865 193.373 177.256C194.157 177.778 195.202 177.517 195.594 176.735C197.162 174.128 199.775 168.785 198.73 162.007C198.469 160.182 197.946 158.227 197.162 156.533C196.77 155.751 196.639 154.969 196.378 154.057L201.996 151.711C201.996 152.362 202.127 153.014 202.388 153.666L203.172 155.621C203.695 156.924 204.74 157.836 205.916 158.358C205.394 159.661 205.394 160.964 205.916 162.268L206.7 164.223C207.092 165.135 207.745 165.917 208.529 166.439C207.615 167.872 207.223 169.697 208.007 171.391L208.791 173.346C209.183 174.259 209.836 175.041 210.62 175.562C210.359 175.823 210.228 176.214 210.097 176.474C209.575 177.778 209.575 179.211 210.097 180.515L210.881 182.47C211.142 183.122 211.534 183.643 211.926 184.164L199.645 189.378Z" fill="#7D69FF"/>
<path d="M159.533 95.7968C158.879 95.1451 157.834 95.1451 157.181 95.7968L135.361 117.172C134.316 116.39 133.14 115.999 131.833 115.738L131.572 73.7701C131.572 72.8577 130.788 72.2061 130.004 72.2061C129.09 72.2061 128.436 72.9881 128.436 73.9004L128.698 115.869C124.517 116.651 121.381 120.3 121.381 124.601C121.381 129.554 125.431 133.464 130.396 133.464C135.361 133.464 139.281 129.423 139.281 124.601C139.281 122.776 138.758 121.082 137.713 119.648L159.533 98.2732C160.186 97.4912 160.186 96.4485 159.533 95.7968ZM130.396 130.075C127.26 130.075 124.647 127.599 124.647 124.471C124.647 121.343 127.13 118.866 130.396 118.736C133.532 118.736 136.014 121.343 136.014 124.471C136.014 127.599 133.532 130.075 130.396 130.075Z" fill="#222020"/>
</g>
<defs>
<clipPath id="clip0">
<rect width="273.466" height="229" fill="white"/>
</clipPath>
</defs>
</svg>
