<svg width="222" height="229" viewBox="0 0 222 229" fill="none" xmlns="http://www.w3.org/2000/svg">
<g clip-path="url(#clip0)">
<path d="M126.77 55.6731C126.405 62.3441 124.7 68.6514 121.047 74.3521C120.072 75.8076 118.733 77.0205 117.272 77.9909C116.419 78.5973 115.323 78.2334 114.349 78.3547C114.105 78.3547 113.131 77.5057 113.375 78.8399C113.375 78.9612 112.888 78.8399 112.644 78.7186C111.061 77.9909 109.721 77.0205 108.869 75.3224C106.555 70.7133 106.799 65.9829 108.869 61.3738C110.696 57.2499 112.888 53.6111 116.419 50.5788C118.124 49.1233 120.316 48.7594 122.386 48.2742C124.091 47.9104 125.918 49.4872 126.283 51.4278C126.648 52.8833 126.77 54.3389 126.77 55.6731ZM122.752 56.7647C122.752 55.6731 122.873 54.824 121.899 54.5814C120.803 54.2176 120.681 55.0666 120.316 55.7944C120.194 56.1582 119.951 56.6434 119.464 56.5221C118.976 56.4008 118.733 56.0369 118.611 55.5518C118.611 55.3092 118.611 54.824 118.246 54.7027C117.759 54.5814 117.637 54.9453 117.393 55.3092C115.567 57.6137 113.984 60.1609 112.766 62.9506C112.035 64.6487 111.304 66.3468 111.183 68.2875C110.939 70.8346 112.888 72.2901 115.201 71.3198C116.663 70.7133 117.759 69.743 118.611 68.5301C121.047 64.77 122.143 60.7673 122.752 56.7647Z" fill="#ECE4F2"/>
<path d="M205.804 56.5223C205.682 51.1854 207.143 46.9402 209.944 43.0589C210.553 42.2098 211.284 41.4821 212.136 40.8756C213.354 40.1478 214.815 40.5117 215.18 41.9672C215.424 42.695 215.789 42.9376 216.52 43.0589C219.564 43.544 222 45.8486 222 48.8809C222.244 55.1881 220.173 61.0101 215.911 65.6192C212.745 69.0154 209.335 68.1664 207.265 63.9211C206.047 61.374 205.804 58.7056 205.804 56.5223ZM209.944 49.6086C208.97 52.8835 209.092 55.9158 210.553 58.8269C211.649 61.0101 213.232 61.0101 214.815 59.1907C215.911 57.8565 216.642 56.1584 217.129 54.4603C217.981 51.9132 217.007 50.2151 214.572 49.2448C213.597 48.8809 212.988 49.1235 212.745 50.0938C212.623 50.9429 212.258 51.7919 211.284 51.6706C210.188 51.6706 210.309 50.579 210.066 49.8512C210.188 49.9725 210.066 49.8512 209.944 49.6086Z" fill="#ECE4F2"/>
<path d="M188.998 57.0072C188.755 61.8589 186.928 66.2254 184.858 70.5919C183.64 73.1391 182.179 75.4436 179.5 76.8991C177.186 78.1121 174.994 77.7482 173.776 75.3223C171.706 71.6836 170.975 67.6809 172.193 63.557C173.289 59.9182 174.994 56.6433 177.43 53.7323C177.795 53.2471 178.282 52.8833 178.769 53.0045C179.865 53.2471 180.23 52.5194 180.596 52.0342C181.57 50.4574 183.031 50.0935 184.736 50.3361C186.563 50.7 188.024 51.549 188.633 53.3684C189.12 54.7026 189.242 55.7943 188.998 57.0072ZM175.116 67.317C175.238 68.4087 175.481 69.6216 176.577 70.2281C177.673 70.7132 178.526 69.8642 179.134 69.1364C181.935 66.2254 183.64 62.8292 184.614 59.0692C184.858 58.0988 184.249 57.6137 183.397 57.2498C182.544 57.0072 182.057 57.1285 181.692 57.9775C181.448 58.584 181.205 59.1905 180.352 59.0692C179.622 58.9479 179.743 58.2201 179.622 57.7349C179.5 57.4924 179.622 57.1285 179.256 57.1285C179.013 57.1285 178.769 57.3711 178.647 57.6137C176.942 60.646 175.481 63.6783 175.116 67.317Z" fill="#ECE4F2"/>
<path d="M212.988 83.9342C212.867 88.1794 211.527 91.9395 209.944 95.8208C208.848 98.4893 207.387 100.794 205.56 102.977C203.977 104.796 200.567 105.646 198.253 104.311C197.401 103.826 197.279 102.735 196.305 102.371C197.401 101.158 195.696 100.673 195.696 99.8235C195.331 96.1847 195.453 92.6672 197.157 89.2711C198.862 85.8749 201.054 83.0851 203.977 80.9019C204.342 80.6593 204.342 80.4167 204.464 80.0528C204.464 79.5677 204.586 78.9612 204.829 78.476C206.047 75.6863 207.996 75.2011 210.188 77.2631C212.258 78.9612 213.11 81.2658 212.988 83.9342ZM207.143 82.6C206.778 82.9639 206.778 83.449 206.656 83.8129C206.534 84.2981 206.291 84.5407 205.925 84.2981C205.073 83.8129 204.586 84.4194 204.099 84.9045C202.759 86.2387 201.541 87.6943 200.689 89.3923C199.715 91.2117 198.741 93.0311 198.984 95.2144C199.106 96.5486 199.228 98.1254 200.811 98.4893C202.394 98.9744 203.49 97.8828 204.586 96.9125C204.708 96.7912 204.708 96.7912 204.708 96.6699C206.9 94.0015 207.874 90.7266 208.726 87.4517C209.092 85.7536 208.604 83.9342 207.143 82.6Z" fill="#ECE4F2"/>
<path d="M146.255 75.8076C146.011 80.4167 144.55 85.1471 141.992 89.5137C141.627 89.9988 141.262 90.6053 141.018 91.0905C139.679 93.2737 137.73 94.1228 135.295 94.2441C134.442 94.2441 133.955 93.6376 133.59 92.9099C132.25 90.3627 131.885 87.6943 132.372 84.9046C133.468 79.4464 135.538 74.3521 138.704 69.6217C139.313 68.7727 139.922 68.0449 140.653 67.4385C141.505 66.7107 142.236 66.9533 142.479 68.0449C142.601 68.4088 142.601 68.894 143.088 69.0153C145.159 69.6217 145.402 71.4411 146.011 73.1392C146.133 73.867 146.133 74.716 146.255 75.8076ZM135.051 86.6027C135.051 87.3304 135.051 88.0582 135.66 88.422C136.269 88.7859 136.878 88.1795 137.365 87.8156C138.095 87.3304 138.583 86.6027 139.07 85.8749C140.896 82.9639 142.114 79.8103 142.601 76.4141C142.723 75.565 142.723 74.4734 141.871 74.3521C141.018 74.2308 139.679 73.9882 139.191 75.3225C139.07 75.6863 138.826 76.0502 138.583 76.4141C136.391 79.4464 135.903 82.9639 135.051 86.6027Z" fill="#ECE4F2"/>
<path d="M153.926 114.379C155.388 113.651 154.779 112.923 153.926 112.681C151.978 111.953 151.856 110.134 151.491 108.557C151.247 107.587 151.491 106.374 151.734 105.403C152.952 100.794 155.022 96.549 157.702 92.425C158.067 91.8186 158.919 91.3334 159.285 90.6056C159.528 90.2418 159.772 90.1205 160.259 90.2418C160.624 90.3631 160.746 90.6056 160.746 91.0908C160.624 91.9399 160.99 92.5463 161.598 93.0315C163.182 94.6083 163.06 96.7916 162.938 98.7322C162.451 103.827 160.746 108.436 158.067 112.681C157.093 114.015 155.875 114.985 153.926 114.379ZM155.022 108.314C156.118 107.344 156.484 106.131 157.093 105.039C158.189 102.977 158.676 100.916 158.919 98.7322C158.919 98.3684 158.919 98.0045 158.554 97.8832C158.067 97.7619 157.945 98.1258 157.702 98.3684C157.58 98.6109 157.458 99.0961 157.336 99.2174C156.606 99.5813 157.093 101.401 155.51 100.673C155.266 100.552 155.144 100.916 155.388 101.158C156.484 101.886 155.753 102.735 155.51 103.584C154.901 105.039 154.535 106.495 155.022 108.314Z" fill="#ECE4F2"/>
<path d="M150.882 48.1532C150.76 47.7893 150.639 47.4254 150.517 46.9403C149.299 48.3958 148.568 49.9726 148.081 51.6707C147.716 52.7623 148.69 53.7326 149.786 53.7326C151.004 53.6114 151.856 53.0049 152.465 52.0346C154.17 49.6087 154.901 46.819 155.266 43.908C155.388 43.0589 155.266 41.9673 154.779 40.9969C154.292 40.1479 155.266 38.2072 156.24 37.8433C157.458 37.4795 157.945 38.3285 158.432 39.1776C159.285 40.8757 158.919 42.695 158.798 44.5144C158.432 48.5171 157.214 52.2771 155.144 55.6733C154.17 57.2501 153.196 58.5843 151.247 58.9482C147.959 59.4334 146.498 59.0695 145.646 55.7946C144.55 51.4281 146.985 45.2422 150.639 42.695C151.004 42.4525 151.491 42.2099 151.978 42.3312C152.587 42.5738 152.465 43.1802 152.587 43.5441C152.709 45.2422 151.856 46.6977 151.247 48.2745C151.004 48.1532 150.882 48.1532 150.882 48.1532Z" fill="#ECE4F2"/>
<path d="M173.898 129.904C172.802 130.025 172.071 129.54 171.95 128.57C171.828 126.751 171.462 125.053 171.95 123.112C172.802 119.837 174.142 116.805 176.09 114.136C176.942 112.923 176.577 111.589 177.064 110.376C177.551 109.406 178.038 108.435 178.769 107.708C179.256 107.223 179.865 106.859 180.596 107.223C181.326 107.586 181.57 108.072 181.57 109.042C181.813 114.985 179.621 120.322 177.551 125.78C177.064 126.993 176.333 127.964 175.603 129.055C175.238 129.662 174.629 130.025 173.898 129.904Z" fill="#ECE4F2"/>
<path d="M29.3483 154.769C28.983 161.44 27.2781 167.748 23.6248 173.448C22.6506 174.904 21.311 176.117 19.8497 177.087C18.9973 177.694 17.9013 177.33 16.927 177.451C16.6835 177.451 15.7093 176.602 15.9528 177.936C15.9528 178.057 15.4657 177.936 15.2222 177.815C13.6391 177.087 12.2995 176.117 11.4471 174.419C9.1333 169.81 9.37685 165.079 11.4471 160.47C13.2737 156.346 15.4657 152.707 18.9973 149.675C20.7021 148.219 22.8941 147.856 24.9643 147.37C26.6692 147.007 28.4959 148.583 28.8612 150.524C29.2265 151.98 29.3483 153.435 29.3483 154.769ZM25.2079 155.861C25.2079 154.769 25.3297 153.92 24.3555 153.678C23.2595 153.314 23.1377 154.163 22.7724 154.891C22.6506 155.254 22.407 155.74 21.9199 155.618C21.4328 155.497 21.1892 155.133 21.0675 154.648C21.0675 154.405 21.0675 153.92 20.7021 153.799C20.215 153.678 20.0932 154.042 19.8497 154.405C18.023 156.71 16.4399 159.257 15.2222 162.047C14.4915 163.745 13.7608 165.443 13.6391 167.384C13.3955 169.931 15.3439 171.386 17.6577 170.416C19.119 169.81 20.215 168.839 21.0675 167.626C23.503 163.866 24.7208 159.742 25.2079 155.861Z" fill="#ECE4F2"/>
<path d="M108.382 155.618C108.26 150.281 109.721 146.036 112.522 142.155C113.131 141.306 113.862 140.578 114.714 139.971C115.932 139.244 117.393 139.607 117.759 141.063C118.002 141.791 118.368 142.033 119.098 142.155C122.143 142.64 124.578 144.944 124.578 147.977C124.822 154.284 122.752 160.106 118.489 164.715C115.323 168.111 111.913 167.262 109.843 163.017C108.625 160.47 108.382 157.68 108.382 155.618ZM112.4 148.704C111.426 151.979 111.548 155.012 113.009 157.923C114.105 160.106 115.688 160.106 117.272 158.286C118.368 156.952 119.098 155.254 119.585 153.556C120.438 151.009 119.464 149.311 117.028 148.34C116.054 147.977 115.445 148.219 115.201 149.19C115.08 150.039 114.714 150.888 113.74 150.766C112.644 150.766 112.766 149.675 112.522 148.947C112.644 148.947 112.644 148.947 112.4 148.704Z" fill="#ECE4F2"/>
<path d="M91.5765 156.103C91.333 160.955 89.5063 165.322 87.4361 169.688C86.2183 172.235 84.757 174.54 82.0779 175.995C79.7641 177.208 77.5721 176.844 76.3544 174.419C74.2842 170.78 73.5535 166.777 74.7713 162.653C75.8673 159.014 77.5721 155.74 80.0077 152.828C80.373 152.343 80.8601 151.979 81.3472 152.101C82.4432 152.343 82.8086 151.616 83.1739 151.13C84.1481 149.554 85.6094 149.19 87.3143 149.432C89.141 149.796 90.6023 150.645 91.2112 152.465C91.6983 153.799 91.8201 154.89 91.5765 156.103ZM77.6939 166.413C77.8157 167.505 78.0593 168.718 79.1552 169.324C80.2512 169.809 81.1037 168.96 81.7126 168.233C84.5134 165.322 86.2183 161.925 87.1925 158.165C87.4361 157.195 86.8272 156.71 85.9748 156.346C85.1223 156.103 84.6352 156.225 84.2699 157.074C84.0263 157.68 83.7828 158.287 82.9303 158.165C82.1997 158.044 82.3215 157.316 82.1997 156.831C82.0779 156.589 82.1997 156.225 81.8343 156.225C81.5908 156.225 81.3472 156.467 81.2255 156.71C79.5206 159.742 77.9375 162.774 77.6939 166.413Z" fill="#ECE4F2"/>
<path d="M115.567 183.03C115.445 187.276 114.105 191.036 112.522 194.917C111.426 197.585 109.965 199.89 108.138 202.073C106.555 203.893 103.145 204.742 100.832 203.407C99.9792 202.922 99.8574 201.831 98.8832 201.467C99.9791 200.254 98.2743 199.769 98.2743 198.92C97.9089 195.281 98.0307 191.763 99.7356 188.367C101.44 184.971 103.632 182.181 106.555 179.998C106.92 179.755 106.92 179.513 107.042 179.149C107.042 178.664 107.164 178.057 107.408 177.572C108.625 174.783 110.574 174.297 112.766 176.359C114.836 177.936 115.688 180.362 115.567 183.03ZM109.721 181.575C109.356 181.939 109.356 182.424 109.234 182.788C109.112 183.273 108.869 183.516 108.504 183.273C107.651 182.788 107.164 183.394 106.677 183.879C105.337 185.214 104.12 186.669 103.267 188.367C102.293 190.187 101.319 192.006 101.562 194.189C101.684 195.523 101.806 197.1 103.389 197.464C104.972 197.949 106.068 196.858 107.164 195.887C107.286 195.766 107.286 195.766 107.286 195.645C109.478 192.976 110.452 189.701 111.304 186.427C111.67 184.728 111.183 183.03 109.721 181.575Z" fill="#ECE4F2"/>
<path d="M48.7109 174.904C48.4673 179.513 47.006 184.243 44.4487 188.61C44.0834 189.095 43.718 189.701 43.4745 190.187C42.1349 192.37 40.1865 193.219 37.7509 193.34C36.8985 193.34 36.4114 192.734 36.0461 192.006C34.7065 189.459 34.3412 186.79 34.8283 184.001C35.9243 178.543 37.9945 173.448 41.1607 168.718C41.7696 167.869 42.3785 167.141 43.1091 166.535C43.9616 165.807 44.6923 166.049 44.9358 167.141C45.0576 167.505 45.0576 167.99 45.5447 168.111C47.6149 168.718 47.8585 170.537 48.4673 172.235C48.7109 172.963 48.7109 173.691 48.7109 174.904ZM37.6292 185.578C37.6292 186.305 37.6292 187.033 38.2381 187.397C38.8469 187.761 39.4558 187.154 39.9429 186.79C40.6736 186.305 41.1607 185.578 41.6478 184.85C43.4745 181.939 44.6922 178.785 45.1794 175.389C45.3011 174.54 45.3011 173.448 44.4487 173.327C43.5963 173.206 42.2567 172.963 41.7696 174.297C41.6478 174.661 41.4043 175.025 41.1607 175.389C38.9687 178.421 38.3598 182.06 37.6292 185.578Z" fill="#ECE4F2"/>
<path d="M56.5047 213.475C57.966 212.747 57.3571 212.019 56.5047 211.777C54.5562 211.049 54.4344 209.229 54.0691 207.653C53.8256 206.682 54.0691 205.469 54.3127 204.499C55.5304 199.89 57.6007 195.645 60.2798 191.521C60.6451 190.914 61.4975 190.429 61.8629 189.701C62.1064 189.337 62.35 189.216 62.8371 189.337C63.2024 189.459 63.3242 189.701 63.3242 190.187C63.2024 191.036 63.5677 191.642 64.1766 192.127C65.7597 193.704 65.638 195.887 65.5162 197.828C65.0291 202.922 63.3242 207.531 60.6451 211.777C59.6709 213.111 58.4531 214.081 56.5047 213.475ZM57.4789 207.41C58.5749 206.44 58.9402 205.227 59.5491 204.135C60.6451 202.073 61.1322 200.011 61.3758 197.828C61.3758 197.464 61.3757 197.1 61.0104 196.979C60.5233 196.858 60.4015 197.221 60.158 197.464C60.0362 197.707 59.9144 198.192 59.7926 198.313C59.062 198.677 59.5491 200.496 57.966 199.769C57.7224 199.647 57.6007 200.011 57.8442 200.254C58.9402 200.982 58.2095 201.831 57.966 202.68C57.4789 204.014 57.1135 205.591 57.4789 207.41Z" fill="#ECE4F2"/>
<path d="M53.3385 147.249C53.2167 146.885 53.0949 146.521 52.9731 146.036C51.7554 147.491 51.0247 149.068 50.5376 150.766C50.1723 151.858 51.1465 152.828 52.2425 152.828C53.4602 152.707 54.3127 152.101 54.9216 151.13C56.6264 148.704 57.3571 145.915 57.7224 143.004C57.8442 142.155 57.7224 141.063 57.2353 140.093C56.7482 139.244 57.7224 137.303 58.6967 136.939C59.9144 136.575 60.4015 137.424 60.8887 138.273C61.7411 139.971 61.3758 141.791 61.254 143.61C60.8887 147.613 59.6709 151.373 57.6007 154.769C56.6264 156.346 55.6522 157.68 53.7038 158.044C50.4158 158.529 48.9545 158.165 48.102 154.89C47.006 150.524 49.4416 144.338 53.0949 141.791C53.4602 141.548 53.9473 141.306 54.4345 141.427C55.0433 141.669 54.9216 142.276 55.0433 142.64C55.1651 144.338 54.3127 145.793 53.7038 147.37C53.582 147.249 53.4602 147.249 53.3385 147.249Z" fill="#ECE4F2"/>
<path d="M76.4761 229C75.3801 229.121 74.6495 228.636 74.5277 227.666C74.4059 225.846 74.0406 224.148 74.5277 222.208C75.3801 218.933 76.7197 215.9 78.6681 213.232C79.5206 212.019 79.1552 210.685 79.6423 209.472C80.1294 208.501 80.6166 207.531 81.3472 206.803C81.8343 206.318 82.4432 205.954 83.1739 206.318C83.9045 206.682 84.1481 207.167 84.1481 208.138C84.3916 214.081 82.1997 219.418 80.1295 224.876C79.6423 226.089 78.9117 227.059 78.181 228.151C77.8157 228.757 77.2068 229 76.4761 229Z" fill="#ECE4F2"/>
<path d="M19.3626 68.0451C18.9973 74.7162 17.2924 81.0234 13.6391 86.7242C12.6648 88.1797 11.3253 89.3926 9.86396 90.3629C9.01152 90.9694 7.91553 90.6055 6.94131 90.7268C6.69775 90.7268 5.72354 89.8778 5.96709 91.212C5.96709 91.3333 5.47998 91.212 5.23643 91.0907C3.65332 90.3629 2.31377 89.3926 1.46133 87.6945C-0.852438 83.0854 -0.608883 78.355 1.46133 73.7459C3.28799 69.6219 5.47998 65.9832 9.01152 62.9509C10.7164 61.4953 12.9084 61.1315 14.9786 60.6463C16.6835 60.2824 18.5102 61.8592 18.8755 63.7999C19.3626 65.2554 19.3626 66.5896 19.3626 68.0451ZM15.3439 69.1368C15.3439 68.0451 15.4657 67.1961 14.4915 66.9535C13.3955 66.5896 13.2737 67.4387 12.9084 68.1664C12.7866 68.5303 12.5431 69.0155 12.056 68.8942C11.5688 68.7729 11.3253 68.409 11.2035 67.9238C11.2035 67.6813 11.2035 67.1961 10.8382 67.0748C10.3511 66.9535 10.2293 67.3174 9.98574 67.6813C8.15908 69.9858 6.57598 72.533 5.3582 75.3227C4.62754 77.0208 3.89688 78.7189 3.7751 80.6595C3.53154 83.2067 5.47998 84.6622 7.79375 83.6919C9.25508 83.0854 10.3511 82.1151 11.2035 80.9021C13.6391 77.0208 14.7351 73.0181 15.3439 69.1368Z" fill="#ECE4F2"/>
<path d="M98.396 68.7728C98.2743 63.4359 99.7356 59.1907 102.536 55.3093C103.145 54.4603 103.876 53.7325 104.728 53.1261C105.946 52.3983 107.408 52.7622 107.773 54.2177C108.016 54.9455 108.382 55.1881 109.112 55.3093C112.157 55.7945 114.592 58.0991 114.592 61.1314C114.836 67.4386 112.766 73.2606 108.504 77.8697C105.337 81.2659 101.928 80.4169 99.8574 76.1716C98.7614 73.6245 98.396 70.9561 98.396 68.7728ZM102.536 61.8591C101.562 65.134 101.684 68.1663 103.145 71.0774C104.241 73.2606 105.824 73.2606 107.408 71.4412C108.504 70.107 109.234 68.4089 109.721 66.7108C110.574 64.1637 109.6 62.4656 107.164 61.4953C106.19 61.1314 105.581 61.374 105.337 62.3443C105.216 63.1934 104.85 64.0424 103.876 63.9211C102.78 63.9211 102.902 62.8295 102.658 62.1017C102.78 62.223 102.78 62.223 102.536 61.8591Z" fill="#ECE4F2"/>
<path d="M81.7125 69.2582C81.469 74.1099 79.6423 78.4764 77.5721 82.8429C76.3544 85.3901 74.893 87.6946 72.2139 89.1501C69.9002 90.363 67.7082 89.9992 66.4904 87.5733C64.4202 83.9345 63.6895 79.9319 64.9073 75.808C66.0033 72.1692 67.7082 68.8943 70.1437 65.9833C70.509 65.4981 70.9962 65.1342 71.4833 65.2555C72.5793 65.4981 72.9446 64.7704 73.3099 64.2852C74.2841 62.7084 75.7455 62.3445 77.4503 62.5871C79.277 62.951 80.7383 63.8 81.3472 65.6194C81.8343 66.9536 81.8343 68.1665 81.7125 69.2582ZM67.7082 79.6893C67.8299 80.7809 68.0735 81.9939 69.1695 82.6003C70.2655 83.0855 71.1179 82.2364 71.7268 81.5087C74.5277 78.5977 76.2326 75.2015 77.2068 71.4414C77.4503 70.4711 76.8415 69.9859 75.989 69.622C75.1366 69.3795 74.6495 69.5008 74.2841 70.3498C74.0406 70.9563 73.797 71.5627 72.9446 71.4414C72.2139 71.3201 72.3357 70.5924 72.2139 70.1072C72.0921 69.8646 72.2139 69.5008 71.8486 69.5008C71.605 69.5008 71.3615 69.7433 71.2397 69.9859C69.6566 72.8969 68.0735 76.0505 67.7082 79.6893Z" fill="#ECE4F2"/>
<path d="M105.703 96.3063C105.581 100.551 104.241 104.312 102.658 108.193C101.562 110.861 100.101 113.166 98.2743 115.349C96.6912 117.169 93.2814 118.018 90.9676 116.683C90.1152 116.198 89.9934 115.107 89.0192 114.743C90.1152 113.53 88.4103 113.045 88.4103 112.196C88.045 108.557 88.1668 105.039 89.8716 101.643C91.5765 98.2469 93.7685 95.4572 96.6912 93.274C97.0565 93.0314 97.0565 92.7888 97.1783 92.4249C97.1783 91.9397 97.3 91.3333 97.5436 90.8481C98.7614 88.0584 100.71 87.5732 102.902 89.6352C104.85 91.212 105.703 93.5165 105.703 96.3063ZM99.7356 94.8507C99.3703 95.2146 99.3703 95.6998 99.2485 96.0637C99.1267 96.5488 98.8832 96.7914 98.5178 96.5488C97.6654 96.0637 97.1783 96.6701 96.6912 97.1553C95.3516 98.4895 94.1338 99.945 93.2814 101.643C92.3072 103.463 91.333 105.282 91.5765 107.465C91.6983 108.799 91.8201 110.376 93.4032 110.74C94.9863 111.225 96.0823 110.134 97.1783 109.163C97.3001 109.042 97.3001 109.042 97.3001 108.921C99.492 106.252 100.466 102.977 101.319 99.7024C101.684 98.0043 101.197 96.185 99.7356 94.8507Z" fill="#ECE4F2"/>
<path d="M38.8469 88.0581C38.6034 92.6672 37.1421 97.3976 34.5847 101.764C34.2194 102.249 33.8541 102.856 33.6105 103.341C32.271 105.524 30.3225 106.373 27.887 106.495C27.0345 106.495 26.5474 105.888 26.1821 105.16C24.8426 102.613 24.4772 99.9448 24.9643 97.1551C26.0603 91.6969 28.1305 86.6026 31.2968 81.8722C31.9056 81.0232 32.5145 80.2954 33.2452 79.6889C34.0976 78.9612 34.8283 79.2038 35.0718 80.2954C35.1936 80.6593 35.1936 81.1445 35.6807 81.2657C37.751 81.8722 37.9945 83.6916 38.6034 85.3897C38.8469 86.1174 38.7252 86.9665 38.8469 88.0581ZM27.7652 98.8531C27.7652 99.5809 27.7652 100.309 28.3741 100.673C28.983 101.036 29.5919 100.43 30.079 100.066C30.8096 99.5809 31.2968 98.8532 31.7839 98.1254C33.6105 95.2144 34.8283 92.0608 35.3154 88.6646C35.4372 87.8155 35.4372 86.7239 34.5847 86.6026C33.7323 86.4813 32.3928 86.2387 31.9056 87.573C31.7839 87.9368 31.5403 88.3007 31.2968 88.6646C28.983 91.6969 28.4959 95.3357 27.7652 98.8531Z" fill="#ECE4F2"/>
<path d="M46.5189 126.629C47.9803 125.902 47.3714 125.174 46.5189 124.931C44.5705 124.204 44.4487 122.384 44.0834 120.807C43.8398 119.837 44.0834 118.624 44.3269 117.654C45.5447 113.045 47.6149 108.799 50.294 104.676C50.6594 104.069 51.5118 103.584 51.8771 102.856C52.1207 102.492 52.3642 102.371 52.8513 102.492C53.2167 102.614 53.3385 102.856 53.3385 103.341C53.2167 104.19 53.582 104.797 54.1909 105.282C55.774 106.859 55.6522 109.042 55.5304 110.983C55.0433 116.077 53.3385 120.686 50.6594 124.931C49.6851 126.266 48.4674 127.357 46.5189 126.629ZM47.6149 120.565C48.7109 119.594 49.0762 118.382 49.6851 117.29C50.7811 115.228 51.2682 113.166 51.5118 110.983C51.5118 110.619 51.5118 110.255 51.1465 110.134C50.6594 110.012 50.5376 110.376 50.294 110.619C50.1722 110.861 50.0505 111.347 49.9287 111.468C49.198 111.832 49.6851 113.651 48.102 112.923C47.8585 112.802 47.7367 113.166 47.9803 113.409C49.0763 114.136 48.3456 114.985 48.102 115.834C47.4931 117.29 47.1278 118.745 47.6149 120.565Z" fill="#ECE4F2"/>
<path d="M43.4745 60.4037C43.3527 60.0398 43.231 59.6759 43.1092 59.1908C41.8914 60.6463 41.1607 62.2231 40.6736 63.9212C40.3083 65.0128 41.2825 65.9831 42.3785 65.9831C43.5963 65.8618 44.4487 65.2554 45.0576 64.285C46.7625 61.8592 47.4932 59.0695 47.8585 56.1585C47.9803 55.3094 47.8585 54.2178 47.3714 53.2474C46.8843 52.3984 47.8585 50.4577 48.8327 50.0938C50.0505 49.73 50.5376 50.579 51.0247 51.4281C51.8771 53.1261 51.5118 54.9455 51.39 56.7649C51.0247 60.7676 49.8069 64.5276 47.7367 67.9238C46.7625 69.5006 45.7883 70.8348 43.8398 71.1987C40.5519 71.6839 39.0905 71.32 38.2381 68.0451C37.1421 63.6786 39.5776 57.4927 43.231 54.9455C43.5963 54.7029 44.0834 54.4604 44.5705 54.5817C45.1794 54.8242 45.0576 55.4307 45.1794 55.7946C45.3012 57.4927 44.4487 58.9482 43.8398 60.525C43.7181 60.4037 43.5963 60.4037 43.4745 60.4037Z" fill="#ECE4F2"/>
<path d="M66.4904 142.155C65.3944 142.276 64.6637 141.791 64.542 140.82C64.4202 139.001 64.0549 137.303 64.542 135.362C65.3944 132.087 66.734 129.055 68.6824 126.387C69.5348 125.174 69.1695 123.84 69.6566 122.627C70.1437 121.656 70.6308 120.686 71.3615 119.958C71.8486 119.473 72.4575 119.109 73.1881 119.473C73.9188 119.837 74.1624 120.322 74.1624 121.292C74.4059 127.236 72.2139 132.573 70.1437 138.031C69.6566 139.244 68.9259 140.214 68.1953 141.306C67.9517 141.912 67.3428 142.276 66.4904 142.155Z" fill="#ECE4F2"/>
<path d="M157.093 211.534H74.2841C67.5864 211.534 62.1064 206.076 62.1064 199.405V25.7142C62.1064 19.0431 67.5864 13.585 74.2841 13.585H157.093C163.79 13.585 169.27 19.0431 169.27 25.7142V199.405C169.27 206.197 163.79 211.534 157.093 211.534Z" fill="#7D69FF"/>
<path d="M144.915 199.405H62.1064C55.4087 199.405 49.9287 193.947 49.9287 187.275V13.5848C49.9287 6.91372 55.4087 1.45557 62.1064 1.45557H144.915C151.613 1.45557 157.093 6.91372 157.093 13.5848V187.275C157.093 194.068 151.613 199.405 144.915 199.405Z" fill="white"/>
<path d="M144.915 200.981H62.1064C54.5562 200.981 48.4674 194.917 48.4674 187.397V13.5847C48.4674 6.06462 54.5562 0 62.1064 0H144.915C152.465 0 158.554 6.06462 158.554 13.5847V187.275C158.676 194.917 152.465 200.981 144.915 200.981ZM62.1064 3.03231C56.2611 3.03231 51.5118 7.76271 51.5118 13.5847V187.275C51.5118 193.097 56.2611 197.828 62.1064 197.828H144.915C150.76 197.828 155.51 193.097 155.51 187.275V13.5847C155.51 7.76271 150.76 3.03231 144.915 3.03231H62.1064Z" fill="#090A0A"/>
<path d="M85.853 104.918H70.1437C68.3171 104.918 66.8557 103.462 66.8557 101.643V85.9961C66.8557 84.1767 68.3171 82.7212 70.1437 82.7212H85.853C87.6797 82.7212 89.141 84.1767 89.141 85.9961V101.643C89.2628 103.462 87.6797 104.918 85.853 104.918Z" fill="white"/>
<path d="M85.853 106.373H70.1437C67.4646 106.373 65.2726 104.19 65.2726 101.522V85.9962C65.2726 83.3278 67.4646 81.1445 70.1437 81.1445H85.853C88.5321 81.1445 90.7241 83.3278 90.7241 85.9962V101.643C90.7241 104.311 88.5321 106.373 85.853 106.373ZM70.1437 84.1768C69.1695 84.1768 68.3171 85.0259 68.3171 85.9962V101.643C68.3171 102.613 69.1695 103.462 70.1437 103.462H85.853C86.8272 103.462 87.6796 102.613 87.6796 101.643V85.9962C87.6796 85.0259 86.8272 84.1768 85.853 84.1768H70.1437Z" fill="#090A0A"/>
<path d="M96.813 92.6672C96.6912 92.4246 96.5694 92.9098 96.6912 92.5459C96.813 92.5459 96.9347 92.6672 96.813 92.6672Z" fill="#090A0A"/>
<path d="M134.807 97.1551C134.686 98.2467 133.59 97.6402 133.224 98.368C133.224 98.368 133.103 97.8828 132.981 98.0041C132.615 98.8532 131.519 98.7319 130.667 98.2467V98.1254C130.545 98.0041 130.423 98.4893 130.302 98.4893C130.302 98.368 130.302 98.368 130.302 98.2467C130.302 98.4893 130.058 98.368 130.058 98.6106C129.936 98.4893 129.936 98.2467 129.936 98.1254L129.815 98.4893C129.571 99.217 129.206 98.4893 128.962 98.8532C128.962 98.7319 128.962 98.7319 128.962 98.6106C128.475 99.0957 127.744 98.9744 127.135 99.0957C127.135 98.9744 127.257 98.7319 127.257 98.6106C127.135 98.9744 127.014 98.9744 126.77 99.0957C126.77 98.7319 126.405 99.3383 126.283 99.0957V98.9744C126.039 99.3383 126.161 98.7319 125.918 99.0957V98.8532C125.796 99.3383 125.796 98.6106 125.552 98.7319V98.8532C125.431 98.9744 125.431 98.7319 125.309 98.7319C125.065 98.8532 124.943 98.4893 124.943 98.8532C124.943 98.4893 125.187 98.7319 125.187 98.2467C124.335 98.4893 123.604 98.1254 122.873 97.7615C122.873 97.6402 122.873 97.5189 122.873 97.3976C122.751 97.3976 122.63 97.3976 122.386 97.5189V97.2763C122.264 97.0338 122.021 97.6402 122.021 97.3976C122.143 97.2764 122.143 97.2763 122.264 97.0338C122.021 97.2763 121.899 97.1551 121.656 97.1551L121.777 97.0338C121.412 97.2763 121.534 96.7912 121.29 96.9125L121.412 96.7912C121.29 96.4273 121.168 97.1551 121.047 96.9125C121.168 96.9125 121.168 96.7912 121.168 96.6699C120.803 96.9125 120.56 96.6699 120.316 96.6699V96.5486C120.072 96.4273 119.951 96.1847 119.707 96.306C119.707 96.1847 120.072 95.8208 119.829 95.8208C119.585 96.1847 119.464 95.6996 119.22 96.1847C119.098 95.9421 118.976 95.6995 118.733 95.6995C118.855 95.5783 118.976 95.2144 119.22 95.3357L119.342 95.0931C119.464 94.9718 119.342 95.2144 119.464 94.9718C119.342 94.9718 119.098 94.9718 119.098 94.8505C118.855 94.9718 118.368 95.2144 118.124 95.0931C118.368 95.0931 118.368 94.7292 118.489 94.7292L117.637 95.0931C117.515 95.0931 117.88 94.8505 117.759 94.8505C117.637 94.9718 117.637 94.9718 117.515 94.9718C117.515 94.9718 117.15 94.8505 117.515 94.4866C117.637 94.3653 117.637 94.4866 117.759 94.3653C117.637 94.244 117.515 94.3653 117.393 94.244C117.393 94.1227 117.028 94.1227 116.906 94.3653C116.906 94.4866 117.15 94.1227 117.028 94.3653C116.784 94.4866 116.663 94.3653 116.541 94.244C116.663 94.244 116.663 94.1227 116.784 94.1227C116.419 94.244 116.176 94.1227 115.932 94.0015C115.81 94.1227 116.297 93.7589 116.176 93.8802C116.176 93.5163 115.445 93.7589 115.688 93.2737C115.688 93.2737 115.445 93.5163 115.567 93.395C115.445 93.2737 115.688 93.0311 115.567 93.1524C115.688 93.0311 115.445 93.1524 115.323 93.0311C115.201 93.0311 115.323 92.9098 115.445 93.0311C115.201 93.0311 114.714 92.9098 114.714 92.5459C114.592 92.6672 114.349 92.7885 114.227 92.6672L114.471 92.5459C114.592 92.4247 114.349 92.4247 114.471 92.3034C114.105 92.4247 115.08 92.4247 114.714 92.5459C114.836 92.3034 114.227 92.6672 114.471 92.4246C114.349 92.3034 114.105 92.5459 114.227 92.1821C114.227 92.1821 114.592 91.9395 114.471 91.9395C114.349 91.8182 114.349 92.0608 114.227 91.9395H114.105C113.984 92.1821 113.984 91.8182 113.862 92.0608C113.984 91.8182 113.618 92.0608 113.862 91.6969L114.105 91.4543C113.984 91.4543 113.74 91.6969 113.618 91.8182C113.618 91.8182 113.618 91.6969 113.74 91.6969C113.375 92.1821 113.618 91.5756 113.375 91.8182C113.375 91.5756 113.131 91.5756 113.253 91.333C113.131 91.4543 112.888 91.5756 112.888 91.4543C112.888 91.4543 113.009 91.4543 113.009 91.333C113.009 91.2117 112.888 91.333 112.888 91.333C112.888 91.2117 112.888 90.9691 112.888 90.7266C112.766 90.8479 112.644 91.0904 112.644 91.333C112.644 90.8479 112.279 91.5756 112.279 91.0904C112.279 90.9691 112.522 90.8479 112.4 90.7266C112.4 90.2414 112.157 91.0904 112.035 90.8479V91.333C112.035 91.0904 111.792 91.5756 111.913 91.0904C111.792 91.2117 111.792 90.9691 111.792 91.333C111.548 90.9691 111.304 91.5756 111.061 90.8479C111.061 90.9691 110.939 90.8478 110.939 91.0904C111.061 91.333 111.061 90.8478 111.061 91.0904C111.061 91.0904 111.061 91.2117 111.061 91.333C110.939 91.2117 110.939 91.2117 110.939 90.8479C110.696 90.6053 110.817 91.5756 110.696 91.4543C110.696 91.333 110.574 91.2117 110.574 91.2117V91.5756C110.452 91.5756 110.33 91.2117 110.33 90.9691C110.208 91.0904 110.208 91.0904 110.208 91.333L109.965 90.9691C110.087 91.2117 109.965 91.2117 109.965 91.2117V91.0904C109.965 90.9691 109.843 91.0904 109.843 91.0904C109.965 91.2117 110.087 91.333 110.087 91.333C110.087 91.4543 109.965 91.4543 109.965 91.5756C109.843 91.333 109.721 91.4543 109.721 91.4543C109.6 91.4543 109.721 91.6969 109.721 91.6969C109.6 91.5756 109.6 91.6969 109.6 91.4543C109.6 91.4543 109.721 91.5756 109.721 91.4543C109.6 91.333 109.478 91.0904 109.478 91.333C109.478 91.4543 109.721 91.8182 109.478 91.6969C109.478 91.5756 109.478 91.4543 109.478 91.333L109.234 91.2117L109.356 91.4543C109.356 91.4543 109.356 91.333 109.234 91.333C109.356 91.5756 109.112 91.4543 109.234 91.8182L108.991 91.6969C108.869 91.5756 108.747 91.6969 108.869 91.9395C108.869 91.9395 108.747 92.0608 108.747 92.1821C108.504 92.0608 108.26 91.333 108.26 91.6969C108.138 91.8182 108.382 92.1821 108.504 92.3034C108.26 92.3034 108.26 92.7885 107.895 92.5459C107.895 92.6672 108.016 92.6672 108.016 92.7885C107.651 92.9098 107.651 93.395 107.042 93.1524C107.042 93.0311 106.92 92.9098 106.799 92.7885C106.92 93.0311 106.555 92.6672 106.799 93.0311C106.92 93.2737 107.042 93.2737 107.164 93.395C107.042 93.6376 106.799 93.7589 106.555 93.6376C106.677 93.6376 106.677 93.7589 106.677 93.8802C106.433 93.5163 106.312 93.6376 106.312 93.7589L106.433 94.0015L105.946 93.8802C105.946 94.0015 106.19 94.3653 105.946 94.244C105.946 94.1227 105.824 94.1227 105.824 94.0015C105.824 94.244 105.946 94.6079 105.703 94.4866L105.459 94.244C105.459 94.3653 105.459 94.4866 105.581 94.6079C105.216 94.6079 105.094 94.6079 104.85 94.4866C104.972 95.3357 104.485 95.6995 104.12 95.9421L103.998 95.8208C103.754 95.6995 104.12 96.0634 103.998 96.0634C103.876 95.9421 103.754 95.8208 103.632 95.5783C103.389 95.5783 103.632 95.9421 103.632 96.0634C103.754 96.306 103.632 95.9421 103.754 96.1847C103.754 96.306 103.389 96.1847 103.632 96.4273C103.511 96.306 103.389 96.0634 103.389 95.9421V96.1847C103.024 95.9421 103.267 95.457 102.78 95.0931V95.2144C102.536 94.9718 102.78 94.7292 102.536 94.7292C102.536 94.9718 102.78 95.457 102.902 95.457C102.78 95.6995 103.267 96.1847 103.024 96.306C102.902 96.1847 103.145 96.1847 102.902 95.9421C102.658 95.8208 102.78 96.1847 102.658 96.1847C102.78 96.1847 102.902 96.5486 102.902 96.6699C102.658 96.5486 102.78 96.306 102.658 96.4273C102.78 96.6699 102.658 96.7912 102.902 96.9125C103.145 97.2764 102.658 96.9125 102.78 97.2763C102.536 97.0338 102.536 96.5486 102.293 96.5486C102.536 96.7912 102.293 97.0338 102.658 97.3976C102.536 97.3976 102.415 97.1551 102.293 96.9125C102.049 96.7912 102.415 97.5189 102.049 97.0338L102.171 97.2763C102.049 97.1551 102.049 97.1551 101.806 97.0338C101.684 97.0338 101.806 97.5189 101.562 97.1551C101.562 97.1551 101.319 97.2764 101.562 97.5189C101.806 97.6402 101.562 97.2764 101.928 97.5189C101.684 97.2764 101.806 97.6402 101.806 97.7615L101.684 97.6402C101.684 97.7615 101.562 97.7615 101.684 97.8828C101.684 97.7615 101.562 97.6402 101.562 97.6402L101.684 97.8828C101.562 98.1254 101.44 97.5189 101.319 97.6402V97.3976C101.319 97.3976 101.075 97.2764 101.075 97.3976C101.197 97.6402 101.319 97.8828 101.319 98.1254C101.319 98.2467 101.075 97.8828 101.197 98.1254V97.7615C101.197 97.6402 100.953 97.3976 100.832 97.5189C100.832 97.6402 100.832 98.0041 101.075 98.1254C101.075 98.1254 100.832 98.1254 100.832 97.8828C100.71 98.0041 100.953 98.1254 100.953 98.368C100.832 98.2467 100.588 98.1254 100.344 98.0041L100.223 97.5189H100.101C99.9791 97.1551 99.8574 97.2764 99.7356 96.9125C99.6138 96.9125 99.6138 97.0338 99.6138 97.1551C100.101 97.5189 99.8574 98.0041 100.101 98.368C99.9791 98.6106 99.3703 97.2764 99.492 98.1254C99.6138 98.2467 99.7356 98.6106 99.7356 98.4893C99.6138 98.4893 99.8574 98.9744 99.6138 98.9744C99.6138 98.7319 99.2485 98.6106 99.2485 98.2467C99.3703 98.368 99.3703 98.368 99.3703 98.2467C99.2485 98.1254 99.1267 97.7615 99.0049 97.8828C98.8832 98.0041 98.7614 98.0041 99.0049 98.2467C99.1267 98.4893 99.1267 98.1254 99.2485 98.4893C99.1267 98.7319 98.8831 98.2467 98.8831 98.8532C99.0049 98.7319 99.2485 98.9744 99.3703 99.217C99.3703 99.3383 99.2485 99.3383 99.2485 99.4596V99.217C98.7614 99.217 99.2485 99.5809 98.7614 99.7022C98.6396 99.5809 98.5178 99.4596 98.396 99.3383C98.396 98.9744 99.1267 99.217 98.7614 98.7319C98.5178 98.8532 98.5178 99.0957 98.1525 99.0957C98.1525 98.9744 98.2743 98.9744 98.396 98.9744C98.2743 98.9744 98.0307 98.2467 97.6654 98.7319C97.4218 98.8532 97.5436 98.9744 97.6654 99.0957C97.0565 99.217 96.8129 99.3383 96.3258 99.217C96.5694 98.8532 95.7169 98.8532 96.204 98.7319C96.204 98.8532 96.4476 99.0957 96.8129 99.0957C97.0565 99.0957 97.4218 99.0957 97.5436 98.8532C97.3 98.368 98.0307 98.8531 98.0307 98.368C97.6654 98.368 97.6654 97.8828 97.6654 97.6402C97.5436 97.6402 97.5436 97.7615 97.4218 97.7615C97.3 98.0041 97.4218 98.0041 97.4218 98.368C97.0565 98.2467 96.5694 98.2467 96.204 98.368C96.204 98.1254 96.3258 98.0041 96.5694 98.0041C96.0823 97.8828 95.8387 97.3976 95.7169 97.0338C95.3516 97.5189 95.4734 96.6699 95.1081 97.0338C95.1081 97.2763 94.8645 97.6402 94.6209 97.6402C94.6209 97.5189 94.8645 97.5189 94.8645 97.3976C94.4992 97.2764 95.1081 96.9125 94.6209 96.9125C94.8645 97.2764 95.2298 96.7912 95.5952 96.6699C95.3516 96.5486 95.8387 96.5486 95.7169 96.4273C95.4734 96.306 95.2298 96.0634 95.1081 95.8208C95.3516 95.5783 95.2298 95.3357 95.2298 95.0931C95.2298 94.9718 95.1081 94.8505 95.1081 94.7292C95.3516 94.6079 95.7169 94.7292 95.8387 94.6079C95.8387 94.4866 95.3516 94.6079 95.5952 94.4866H95.7169C95.5952 94.3653 96.0823 94.1227 95.4734 94.0015L95.9605 94.1227C95.9605 94.1227 95.9605 94.0015 95.8387 94.0015C95.9605 94.0015 96.0823 94.0015 96.204 94.1227C96.5694 94.0015 96.204 93.8802 96.204 93.7589H95.9605C95.7169 93.5163 96.0823 93.395 95.9605 93.2737H96.204L95.8387 93.395C96.0823 93.395 96.2041 93.2737 96.0823 93.2737C96.3258 93.395 96.5694 93.5163 96.8129 93.6376C96.6912 93.7589 96.4476 93.5163 96.204 93.6376C95.9605 93.6376 96.0823 93.8802 96.3258 93.8802C96.3258 93.7589 96.3258 93.7589 96.204 93.7589C96.5694 93.7589 96.5694 93.8802 96.8129 94.0015C96.8129 94.0015 96.9347 93.8802 96.8129 93.8802C96.9347 94.0015 97.0565 94.1227 97.0565 94.244C96.9347 94.1227 96.8129 94.244 96.6912 94.244C97.0565 94.244 97.0565 94.4866 96.9347 94.6079C96.5694 94.7292 97.1783 94.9718 97.0565 95.0931C96.6912 94.9718 96.4476 94.8505 96.3258 94.7292C96.0823 94.8505 96.3258 94.8505 96.0823 94.9718C96.3258 95.0931 96.6912 95.2144 96.8129 95.3357H96.5694C96.6912 95.457 97.0565 95.457 96.9347 95.5783C96.8129 95.8208 96.8129 96.0634 96.8129 96.1847L96.5694 96.306C97.0565 96.306 96.8129 96.5486 97.0565 96.5486C97.0565 96.6699 97.0565 96.6699 97.1783 96.6699C97.1783 96.6699 97.1783 96.6699 97.1783 96.7912C97.3 96.6699 97.3 96.4273 97.9089 96.306L98.0307 96.6699C98.0307 96.4273 98.1525 96.7912 98.2743 96.6699C98.0307 96.4273 98.1525 96.306 98.1525 96.0634C98.5178 96.1847 98.6396 95.8208 98.6396 95.457L98.7614 95.6995C98.7614 95.2144 99.1267 95.457 99.3703 95.3357C99.492 95.457 99.6138 95.5783 99.6138 95.457C99.492 95.0931 99.6138 94.9718 99.6138 94.7292C99.7356 94.6079 99.9791 94.6079 100.223 94.6079C100.466 93.8802 101.075 93.7589 101.44 93.1524L101.684 93.395C101.806 92.5459 102.658 92.5459 102.902 92.0608L103.145 92.4246C103.389 92.4246 103.389 92.0608 103.145 91.8182C103.389 91.8182 103.389 91.333 103.632 91.6969C103.876 91.6969 103.632 91.333 103.754 91.2117C104.12 91.2117 104.241 91.0904 104.485 90.7266H104.363C104.363 90.8479 104.485 90.9691 104.607 90.9691C104.607 90.8479 105.094 90.8479 104.607 90.3627C105.094 90.484 105.094 89.6349 105.703 89.8775C105.581 89.7562 105.703 89.6349 105.581 89.5136C105.824 89.3923 106.312 89.3923 106.433 89.0285C106.555 89.0285 106.555 89.271 106.677 89.271C106.677 89.1498 106.555 89.0285 106.555 88.9072C106.92 88.422 107.651 88.6646 108.138 88.422C108.869 87.8155 109.965 87.6942 110.939 87.573V87.6943C111.304 87.2091 111.67 88.1794 112.035 87.4517C112.157 87.573 112.4 87.573 112.279 87.6943C112.644 87.4517 113.009 88.0581 113.375 87.8155C113.375 87.8155 113.375 87.8155 113.253 87.8155C113.496 88.1794 113.984 87.9368 114.349 88.3007C114.349 88.3007 114.227 88.3007 114.105 88.422C114.105 88.6646 114.714 88.1794 114.471 88.6646C114.592 88.6646 114.714 88.422 114.592 88.422C115.323 89.0285 116.176 89.271 116.906 89.7562C117.028 90.3627 116.297 90.484 116.906 90.484C116.906 90.6053 117.028 90.3627 117.028 90.484C117.272 90.484 116.784 91.0904 117.028 90.9691C117.272 90.7266 117.272 90.8479 117.393 90.7266C117.393 91.0904 117.272 91.333 117.637 91.333L117.515 91.4543C118.124 91.333 118.124 91.8182 118.733 91.5756C119.829 92.6672 120.803 93.2737 121.899 93.8802C122.873 94.7292 124.091 94.9718 125.187 95.5783C125.309 96.1847 125.431 96.0634 125.796 96.0634C125.796 96.1847 125.796 96.1847 125.796 96.1847C125.918 95.8208 126.039 96.1847 126.161 95.8208C126.648 95.9421 127.014 95.9421 127.501 96.0634C127.379 96.0634 127.379 96.4273 127.379 96.4273L127.501 96.1847V96.306C127.623 96.306 127.623 96.0634 127.623 95.9421C128.84 95.6995 130.058 96.5486 131.154 96.1847C131.519 96.306 131.885 96.0634 132.128 95.9421C133.103 96.306 134.199 96.306 134.807 95.5783C134.807 95.8208 135.173 96.6699 134.807 97.1551Z" fill="#090A0A"/>
<path d="M96.9347 92.9102C96.6912 93.0314 96.6912 93.1527 96.3258 93.0314C96.5694 93.1527 96.6912 93.0314 96.9347 92.9102Z" fill="#090A0A"/>
<path d="M94.9863 96.9126C94.9863 96.9126 94.9863 97.0339 94.8645 97.0339C94.8645 97.0339 94.6209 96.9126 94.7427 96.9126C94.7427 96.9126 94.8645 96.9126 94.9863 96.9126Z" fill="#090A0A"/>
<path d="M95.7169 98.247C95.5952 98.3683 95.1081 98.1257 94.9863 98.0044C95.2298 98.1257 95.4734 98.1257 95.7169 98.247Z" fill="#090A0A"/>
<path d="M97.4218 99.5811C97.6654 99.7023 97.5436 99.8236 97.3001 99.8236C97.3001 99.7024 97.4218 99.7023 97.4218 99.5811Z" fill="#090A0A"/>
<path d="M97.5436 99.2173C97.6654 99.2173 97.7872 99.3386 97.9089 99.3386C97.9089 99.2173 97.5436 99.4599 97.5436 99.2173Z" fill="#090A0A"/>
<path d="M100.223 98.7318C100.223 98.7318 100.223 98.4893 100.344 98.7318C100.223 98.4893 100.344 98.9744 100.223 98.7318Z" fill="#090A0A"/>
<path d="M100.832 98.0044C100.953 98.0044 100.953 98.1257 100.953 98.1257L100.832 98.0044Z" fill="#090A0A"/>
<path d="M112.279 90.9692L112.157 91.0905L112.279 90.9692Z" fill="#090A0A"/>
<path d="M116.541 94.3652C116.663 94.3652 116.419 94.4865 116.419 94.6078C116.297 94.4865 116.541 94.4865 116.541 94.3652Z" fill="#090A0A"/>
<path d="M119.707 96.3063L119.951 95.9424L119.707 96.3063Z" fill="#090A0A"/>
<path d="M98.6396 50.2153C98.6396 50.3366 98.8832 50.3366 98.6396 50.3366C98.5178 50.2153 98.5178 50.094 98.6396 50.2153Z" fill="#090A0A"/>
<path d="M134.442 47.9105C134.32 49.0021 133.468 48.1531 133.224 48.8808C133.224 48.8808 133.103 48.3957 132.981 48.517C132.615 49.2447 131.763 49.0021 131.276 48.517V48.3957C131.154 48.2744 131.032 48.7595 130.911 48.7595C130.911 48.6383 130.911 48.6383 130.911 48.517C130.911 48.7595 130.667 48.6383 130.667 48.8808C130.667 48.7595 130.667 48.517 130.545 48.3957V48.7595C130.423 49.4873 130.058 48.7595 129.815 49.1234C129.815 49.0021 129.815 49.0021 129.815 48.8808C129.449 49.366 128.962 49.2447 128.475 49.366C128.475 49.2447 128.475 49.0021 128.475 48.8808C128.475 49.2447 128.353 49.2447 128.231 49.366C128.231 49.0021 127.988 49.7299 127.866 49.4873V49.366C127.744 49.7299 127.744 49.1234 127.623 49.6086V49.366C127.501 49.8512 127.501 49.1234 127.379 49.366V49.4873C127.257 49.6086 127.257 49.366 127.135 49.4873C126.892 49.6086 126.892 49.366 126.892 49.7299C126.892 49.366 127.014 49.6086 127.014 49.1234C126.405 49.4873 125.796 49.366 125.187 49.366C125.187 49.2447 125.065 49.1234 125.065 49.0021C124.943 49.1234 124.822 49.0021 124.822 49.2447V49.0021C124.7 48.8808 124.7 49.366 124.578 49.2447C124.578 49.1234 124.7 49.0021 124.7 48.8808C124.578 49.1234 124.456 49.1234 124.335 49.2447C124.335 49.1234 124.335 49.1234 124.335 49.0021C124.213 49.366 124.091 48.8808 123.969 49.1234V48.8808C123.848 48.6383 123.847 49.366 123.726 49.1234C123.726 49.0021 123.726 49.0021 123.726 48.8808C123.604 49.2447 123.36 49.1234 123.239 49.2447V49.1234C123.117 49.1234 122.873 49.0021 122.752 49.2447C122.63 49.1234 122.751 48.6383 122.63 48.7595C122.63 49.2447 122.386 48.8808 122.386 49.4873C122.264 49.366 122.021 49.2447 121.899 49.366C121.899 49.2447 121.777 48.7595 121.899 48.7595L121.777 48.517C121.777 48.2744 121.899 48.517 121.899 48.3957C121.777 48.3957 121.656 48.6383 121.656 48.517C121.534 48.7595 121.412 49.366 121.29 49.366C121.412 49.1234 121.168 48.8808 121.29 48.7595L121.047 49.6086C121.047 49.6086 121.047 49.2447 120.925 49.366C120.925 49.4873 120.925 49.6086 120.925 49.6086C120.925 49.6086 120.681 49.7299 120.681 49.2447C120.681 49.1234 120.803 49.1234 120.681 49.0021C120.56 49.0021 120.56 49.1234 120.438 49.1234C120.316 49.0021 120.194 49.366 120.316 49.6086C120.316 49.6086 120.316 49.366 120.316 49.4873C120.316 49.7299 120.194 49.8512 120.072 49.8512C120.072 49.7299 120.072 49.6086 120.072 49.4873C119.951 49.8512 119.829 49.9725 119.707 50.0938C119.707 50.3363 119.707 49.7299 119.707 49.8512C119.464 49.6086 119.342 50.3363 119.098 49.9725C119.098 49.9725 119.22 50.2151 119.098 50.2151C118.976 50.2151 118.976 49.8512 118.855 50.0938C118.855 49.9725 118.733 50.2151 118.733 50.2151C118.733 50.3363 118.733 50.0938 118.733 50.0938C118.733 50.2151 118.368 50.5789 118.124 50.4576C118.124 50.5789 118.124 50.9428 118.124 50.9428L118.002 50.7002C117.88 50.5789 117.88 50.8215 117.759 50.5789C117.759 50.9428 118.002 50.2151 118.002 50.4576C117.88 50.2151 118.002 50.9428 117.88 50.5789C117.759 50.5789 117.759 50.9428 117.637 50.7002C117.637 50.7002 117.637 50.3363 117.515 50.3363C117.393 50.4576 117.515 50.4576 117.393 50.5789V50.7002C117.515 50.9428 117.272 50.7002 117.393 50.9428C117.272 50.7002 117.272 51.1854 117.15 50.7002L117.028 50.3363C117.028 50.3363 117.028 50.7002 117.028 50.9428C117.028 50.9428 117.028 50.8215 116.906 50.8215C117.15 51.3067 116.784 50.8215 116.784 51.1854C117.272 50.9428 117.15 51.1854 116.906 50.9428C116.906 51.1854 116.906 51.3067 116.663 51.3067C116.663 51.3067 116.663 51.1854 116.663 51.0641C116.541 50.9428 116.541 51.0641 116.541 51.1854C116.541 51.0641 116.297 50.9428 116.176 50.8215C116.176 51.0641 116.297 51.3067 116.297 51.428C116.054 50.9428 116.176 51.9131 115.932 51.428C115.932 51.3067 115.932 51.1854 115.81 51.0641C115.567 50.5789 115.81 51.5493 115.567 51.3067L115.81 51.6706C115.688 51.428 115.688 52.0344 115.567 51.5493C115.567 51.6706 115.323 51.428 115.567 51.9131C115.201 51.6706 115.08 52.3983 114.592 51.6706C114.592 51.7919 114.471 51.6706 114.592 51.9131C114.714 52.1557 114.592 51.6706 114.714 51.9131C114.714 51.9131 114.714 52.0344 114.714 52.1557C114.592 52.0344 114.592 52.0344 114.471 51.6706C114.227 51.428 114.592 52.3983 114.227 52.3983C114.227 52.277 114.105 52.1557 114.105 52.277V52.6409C113.984 52.6409 113.862 52.277 113.74 52.0344C113.74 52.1557 113.618 52.1557 113.618 52.3983L113.375 52.0344C113.496 52.277 113.375 52.277 113.375 52.277V52.1557C113.375 52.0344 113.253 52.1557 113.253 52.1557C113.375 52.277 113.375 52.3983 113.496 52.3983C113.496 52.5196 113.375 52.5196 113.375 52.6409C113.253 52.3983 113.131 52.5196 113.131 52.5196C113.009 52.5196 113.131 52.7622 113.131 52.7622C113.131 52.6409 113.009 52.7622 113.009 52.5196C113.009 52.5196 113.131 52.6409 113.131 52.5196C113.009 52.3983 113.009 52.1557 112.888 52.3983C112.888 52.5196 113.009 53.0048 112.888 52.7622C112.888 52.6409 112.888 52.5196 112.888 52.3983L112.766 52.277V52.5196C112.766 52.3983 112.766 52.3983 112.766 52.3983C112.766 52.6409 112.522 52.5196 112.644 52.8835C112.522 52.8835 112.4 52.7622 112.4 52.7622C112.279 52.6409 112.157 52.7622 112.157 52.8835C112.157 52.8835 112.035 52.8835 111.913 53.1261C111.792 52.8835 111.792 52.1557 111.67 52.5196C111.548 52.5196 111.548 53.0048 111.548 53.2474C111.304 53.1261 111.061 53.4899 110.817 53.1261C110.817 53.2474 110.817 53.2474 110.696 53.3687C110.33 53.2474 109.965 53.6112 109.721 53.1261C109.843 53.0048 109.721 52.8835 109.843 52.7622C109.721 53.0048 109.843 52.5196 109.721 52.8835C109.721 53.1261 109.721 53.2474 109.721 53.3687C109.478 53.4899 109.234 53.3687 109.112 53.1261C109.112 53.2474 109.112 53.3687 108.991 53.3687C109.112 53.0048 108.991 52.8835 108.869 53.0048L108.747 53.2474V53.0048C108.747 53.1261 108.625 53.4899 108.504 53.2474C108.504 53.1261 108.504 53.1261 108.504 53.0048C108.382 53.1261 108.138 53.4899 108.016 53.2474V52.8835C108.016 52.8835 107.773 53.1261 107.895 53.2474C107.773 53.0048 107.651 52.8835 107.651 52.6409C107.164 53.2474 106.677 53.1261 106.312 52.8835L106.433 52.7622C106.433 52.5196 106.312 53.0048 106.312 52.8835C106.433 52.7622 106.433 52.5196 106.555 52.3983C106.555 52.1557 106.312 52.6409 106.19 52.6409C106.068 52.8835 106.312 52.5196 106.19 52.7622C106.19 52.8835 106.068 52.5196 105.946 52.8835C105.946 52.7622 106.068 52.5196 106.19 52.3983L106.068 52.5196C106.19 52.1557 106.555 51.9131 106.677 51.428H106.555C106.677 51.0641 106.92 51.0641 106.799 50.9428C106.677 51.0641 106.433 51.5493 106.433 51.6706C106.19 51.6706 106.068 52.3983 105.824 52.277C105.824 52.0344 105.946 52.277 106.068 52.0344C106.068 51.7919 105.824 52.1557 105.824 52.0344C105.824 52.1557 105.703 52.5196 105.581 52.5196C105.581 52.277 105.824 52.277 105.703 52.1557C105.581 52.277 105.459 52.3983 105.459 52.6409C105.216 53.0048 105.337 52.5196 105.216 52.7622C105.337 52.3983 105.581 52.1557 105.581 51.9131C105.459 52.1557 105.216 52.277 105.094 52.6409C105.094 52.5196 105.216 52.277 105.216 52.1557C105.216 51.9131 104.85 52.6409 105.094 52.0344L104.972 52.277C104.972 52.1557 104.972 52.0344 104.972 51.9131C104.85 51.9131 104.607 52.277 104.85 51.7919C104.85 51.7919 104.728 51.7919 104.607 52.0344C104.607 52.277 104.85 51.7919 104.728 52.277C104.85 51.9131 104.607 52.277 104.485 52.3983V52.277C104.485 52.277 104.363 52.277 104.241 52.3983C104.241 52.277 104.363 52.1557 104.363 52.1557L104.241 52.3983C104.12 52.5196 104.363 51.9131 104.241 51.9131L104.363 51.7919C104.363 51.7919 104.363 51.5493 104.241 51.6706C104.12 51.9131 103.998 52.1557 103.876 52.3983C103.754 52.5196 103.998 52.1557 103.754 52.3983L103.876 52.1557C103.876 52.0344 103.998 51.6706 103.876 51.6706C103.754 51.7919 103.632 52.0344 103.632 52.277C103.632 52.277 103.632 52.1557 103.632 51.9131C103.511 51.9131 103.511 52.1557 103.389 52.277C103.389 52.1557 103.389 51.7919 103.389 51.5493L103.632 51.1854C103.754 50.8215 103.632 50.9428 103.754 50.5789C103.754 50.4576 103.632 50.5789 103.632 50.7002C103.632 51.3067 103.267 51.428 103.267 52.0344C103.145 52.1557 103.389 50.7002 103.145 51.5493C103.145 51.6706 103.024 52.0344 103.145 51.9131C103.024 51.7919 103.024 52.3983 102.902 52.1557C103.024 51.9131 102.902 51.5493 103.024 51.3067C103.024 51.428 103.024 51.428 103.145 51.428C103.145 51.1854 103.267 50.9428 103.145 50.9428C103.024 50.9428 103.024 50.9428 102.902 51.3067C102.902 51.6706 103.024 51.3067 102.902 51.5493C102.78 51.6706 102.78 51.1854 102.658 51.6706C102.78 51.6706 102.658 51.9131 102.658 52.1557L102.536 52.277V52.0344C102.415 51.9131 102.415 52.3983 102.415 52.277V51.9131C102.415 51.5493 102.536 52.0344 102.658 51.5493C102.536 51.5493 102.536 51.7919 102.415 51.6706C102.415 51.6706 102.415 51.6706 102.536 51.5493C102.536 51.5493 102.536 50.8215 102.415 51.1854C102.293 51.3067 102.415 51.428 102.415 51.5493C102.293 51.6706 102.293 51.7919 102.171 51.9131C102.171 51.5493 102.049 51.9131 102.171 51.428C102.171 51.6706 102.415 51.6706 102.415 51.3067C102.415 50.8215 102.536 51.428 102.536 50.9428C102.415 50.9428 102.415 50.4576 102.415 50.0938L102.293 50.2151C102.293 50.4576 102.293 50.4576 102.293 50.8215C102.171 50.7002 102.049 50.9428 101.928 51.1854C101.928 51.0641 101.928 50.7002 101.928 50.7002C101.806 50.8215 101.562 50.8215 101.44 50.7002C101.562 51.1854 101.319 50.8215 101.44 51.1854C101.562 51.3067 101.562 51.6706 101.562 51.7919C101.562 51.7919 101.562 51.5493 101.562 51.428C101.562 51.6706 101.44 51.0641 101.44 51.428C101.562 51.3067 101.319 50.8215 101.319 50.4576C101.197 50.7002 101.319 50.2151 101.197 50.2151C101.075 50.4576 101.075 50.5789 100.953 50.7002C100.71 50.3363 100.588 50.8215 100.588 50.8215C100.466 50.7002 100.344 50.2151 100.223 50.2151C100.101 50.2151 100.466 50.5789 100.223 50.4576V50.3363C100.223 50.4576 99.8574 50.2151 100.101 50.7002L99.8574 50.3363V50.4576C99.7356 50.3363 99.7356 50.2151 99.6138 50.0938C99.3703 49.8512 99.492 50.2151 99.3703 50.3363L99.6138 50.5789C99.6138 50.8215 99.3703 50.7002 99.3703 50.8215L99.2485 50.5789V50.7002C99.1267 50.4576 98.8832 50.4576 99.0049 50.5789C98.8832 50.3363 98.7614 50.0938 98.7614 49.9725C98.8832 50.0938 98.8832 50.2151 99.1267 50.4576C99.3703 50.5789 99.3703 50.4576 99.2485 50.2151C99.1267 50.2151 99.2485 50.2151 99.2485 50.3363C99.0049 50.0938 99.0049 49.9725 99.0049 49.7299C99.0049 49.7299 98.8832 49.7299 98.8832 49.8512C98.7614 49.6086 98.8832 49.6086 99.0049 49.4873C99.0049 49.6086 99.1267 49.6086 99.2485 49.7299C99.0049 49.4873 99.1267 49.2447 99.2485 49.2447C99.492 49.4873 99.3703 48.8808 99.6138 48.8808C99.7356 49.2447 99.7356 49.4873 99.7356 49.6086C99.8574 49.7299 99.8574 49.4873 99.9791 49.6086C99.8574 49.366 99.7356 49.0021 99.8574 48.7595L99.9791 49.0021C100.101 48.8808 99.8574 48.517 100.101 48.517C100.466 48.517 100.71 48.517 100.953 48.517V48.7595C100.953 48.2744 101.319 48.517 101.44 48.2744C101.684 48.517 102.049 48.0318 102.171 48.3957C102.658 48.2744 103.024 48.0318 103.511 48.2744L103.389 48.6382C103.511 48.3957 103.389 48.8808 103.511 48.7595C103.511 48.517 103.632 48.3957 103.754 48.1531C103.876 48.517 104.241 48.2744 104.485 48.0318V48.2744C104.85 47.9105 104.972 48.3957 105.094 48.517C105.094 48.6383 105.094 48.8808 105.094 48.8808C105.337 48.517 105.337 48.6383 105.703 48.3957C105.824 48.3957 105.946 48.6383 106.068 48.7595C106.677 48.3957 107.042 48.8808 107.529 48.7595L107.408 49.0021C108.016 48.6383 108.382 49.366 108.747 49.1234L108.869 49.7299C108.869 49.8512 109.112 49.7299 109.234 49.366C109.234 49.4873 109.6 49.2447 109.478 49.6086C109.6 49.7299 109.6 49.366 109.721 49.366C109.843 49.6086 109.965 49.6086 110.087 49.4873C110.087 49.6086 109.965 49.8512 110.087 49.8512C110.208 49.7299 110.33 49.9725 110.33 49.366C110.452 49.7299 110.696 49.1234 110.939 49.6086C110.939 49.4873 110.939 49.366 110.939 49.366C111.061 49.366 111.304 49.6086 111.426 49.366C111.426 49.4873 111.426 49.6086 111.426 49.6086C111.426 49.4873 111.426 49.366 111.426 49.2447C111.67 48.8808 112.035 49.4873 112.279 49.366C112.644 49.0021 113.131 48.8808 113.618 48.6382V48.7595C113.618 48.2744 114.227 49.0021 114.105 48.3957C114.227 48.517 114.227 48.3957 114.349 48.6382C114.349 48.2744 114.836 48.7595 114.836 48.2744C114.836 48.2744 114.836 48.2744 114.836 48.3957C115.08 48.517 115.201 48.1531 115.445 48.2744C115.445 48.2744 115.445 48.3957 115.445 48.517C115.567 48.6383 115.445 48.0318 115.688 48.517L115.567 48.2744C116.176 48.2744 116.541 47.7892 117.15 47.4253C117.637 47.6679 117.515 48.3957 117.637 47.7892C117.637 47.9105 117.637 47.5466 117.637 47.6679C117.759 47.4253 118.002 48.2744 118.002 47.9105C117.88 47.5466 118.002 47.6679 118.002 47.5466C118.368 47.6679 118.489 48.0318 118.611 47.6679V47.9105C118.733 47.304 119.098 47.5466 119.098 46.9402C120.438 46.5763 121.656 46.2124 122.873 46.2124C124.091 46.3337 125.309 46.2124 126.405 46.5763C126.648 47.0615 126.648 47.0615 127.014 46.9402C127.014 47.0615 127.014 47.0614 127.014 47.0614C127.014 46.6976 127.257 47.0615 127.257 46.6976C127.623 46.8189 128.11 46.6976 128.475 46.6976C128.353 46.6976 128.353 47.0614 128.475 47.0614L128.597 46.8189V46.9402C128.597 46.9402 128.719 46.6976 128.719 46.5763C129.693 46.2124 130.667 47.0614 131.641 46.8189C131.885 46.9402 132.128 46.6976 132.372 46.6976C133.103 47.0615 133.955 47.304 134.442 46.6976C134.442 46.5763 134.686 47.5466 134.442 47.9105Z" fill="#090A0A"/>
<path d="M98.7614 49.9727C98.8832 50.0939 99.1267 50.0939 99.2485 50.3365C99.0049 50.2152 98.8832 50.0939 98.7614 49.9727Z" fill="#090A0A"/>
<path d="M102.171 50.7002C102.171 50.8215 102.049 51.0641 102.049 51.0641C102.049 50.9428 102.171 50.8215 102.171 50.7002Z" fill="#090A0A"/>
<path d="M102.658 51.064C102.658 51.064 102.658 51.1853 102.658 51.3066C102.78 51.064 102.658 51.3066 102.658 51.064Z" fill="#090A0A"/>
<path d="M103.511 51.6706C103.632 51.6706 103.632 51.5493 103.511 51.6706C103.632 51.5493 103.511 51.9132 103.511 51.6706Z" fill="#090A0A"/>
<path d="M115.932 51.549L115.81 51.6703V51.4277L115.932 51.549Z" fill="#090A0A"/>
<path d="M120.194 50.0936C120.194 49.9723 120.316 50.2149 120.316 50.3362C120.194 50.3362 120.316 50.0936 120.194 50.0936Z" fill="#090A0A"/>
<path d="M85.853 35.5386H70.1437C67.4646 35.5386 65.2726 37.7218 65.2726 40.3903V56.037C65.2726 58.7054 67.4646 60.8887 70.1437 60.8887H85.853C88.5321 60.8887 90.7241 58.7054 90.7241 56.037V40.3903C90.7241 37.7218 88.5321 35.5386 85.853 35.5386Z" fill="#7D69FF"/>
<path d="M74.893 54.3389C74.5277 54.3389 74.1624 54.2176 73.797 53.8537L70.9962 50.9427C70.3873 50.3362 70.3873 49.3659 70.9962 48.7594C71.6051 48.153 72.5793 48.153 73.1882 48.7594L75.0148 50.5788L83.0521 42.5735C83.661 41.967 84.6352 41.967 85.2441 42.5735C85.853 43.18 85.853 44.1503 85.2441 44.7568L76.1108 53.8537C75.7455 54.0963 75.3802 54.3389 74.893 54.3389Z" fill="white"/>
<path d="M98.5178 132.087C98.396 132.209 98.6396 132.33 98.5178 132.209C98.5178 132.087 98.5178 131.966 98.5178 132.087Z" fill="#090A0A"/>
<path d="M130.058 132.815C129.206 133.421 129.206 132.33 128.597 132.572C128.475 132.572 128.84 132.087 128.719 132.209C127.988 132.572 127.623 131.966 127.379 131.238L127.501 131.117C127.501 130.996 127.135 131.36 127.014 131.238C127.014 131.117 127.135 131.117 127.135 130.996C127.014 131.238 126.892 130.996 126.77 131.238C126.77 131.117 126.892 130.874 126.892 130.753L126.77 130.996C126.405 131.723 126.405 130.753 126.039 131.117C126.039 130.996 126.161 130.996 126.161 130.874C125.674 131.238 125.309 130.996 124.822 131.117C124.822 130.996 124.943 130.753 124.943 130.632C124.822 130.996 124.7 130.996 124.578 131.117C124.578 130.753 124.335 131.36 124.213 131.238V131.117C124.091 131.481 124.091 130.874 123.969 131.36V131.117C123.847 131.602 123.847 130.874 123.726 131.117V131.238C123.604 131.36 123.604 131.117 123.604 131.238C123.482 131.36 123.36 131.117 123.36 131.481C123.36 131.117 123.482 131.36 123.482 130.874C122.995 131.238 122.386 131.117 121.899 131.238C121.777 131.117 121.777 130.996 121.777 130.874C121.777 130.996 121.534 130.996 121.534 131.117C121.534 131.117 121.534 130.874 121.412 130.874C121.29 130.753 121.29 131.36 121.168 131.117C121.168 130.996 121.168 130.874 121.168 130.753C121.047 131.117 120.925 130.996 120.925 131.117C120.925 130.996 120.925 130.996 120.925 130.874C120.803 131.238 120.681 130.874 120.681 130.996V130.753C120.438 130.51 120.681 131.238 120.56 131.117C120.56 130.996 120.56 130.996 120.56 130.874C120.438 131.238 120.194 131.238 120.072 131.36V131.238C119.951 131.36 119.829 131.238 119.585 131.36C119.464 131.238 119.585 130.874 119.342 130.874C119.464 131.36 119.098 131.117 119.22 131.602C119.098 131.602 118.855 131.36 118.733 131.602C118.733 131.481 118.611 131.117 118.733 130.996L118.611 130.753C118.611 130.51 118.733 130.753 118.611 130.632C118.611 130.632 118.368 130.874 118.368 130.753C118.368 130.996 118.246 131.602 118.124 131.602C118.124 131.36 118.002 131.117 118.002 130.996L117.88 131.845C117.88 131.845 117.759 131.481 117.759 131.602C117.759 131.723 117.759 131.845 117.759 131.845C117.759 131.845 117.515 131.966 117.515 131.602C117.515 131.481 117.637 131.481 117.515 131.36C117.393 131.36 117.393 131.481 117.393 131.602C117.272 131.602 117.272 131.845 117.393 132.087C117.393 132.087 117.393 131.845 117.393 131.966C117.393 132.209 117.272 132.33 117.15 132.33C117.15 132.209 117.15 132.087 117.15 131.966C117.028 132.33 116.906 132.451 116.784 132.572C116.784 132.815 116.784 132.209 116.784 132.33C116.541 132.087 116.419 132.815 116.176 132.451V132.694C116.054 132.694 116.054 132.33 116.054 132.451C116.054 132.33 115.932 132.572 115.932 132.572C115.932 132.694 115.932 132.451 115.932 132.451C115.81 132.572 115.567 132.936 115.323 132.694C115.323 132.815 115.201 133.179 115.201 133.179V132.936C115.08 132.815 115.08 132.936 114.958 132.694C114.836 133.058 115.323 132.33 115.201 132.694C115.08 132.451 115.08 133.179 115.08 132.815C114.958 132.815 114.958 133.179 114.836 132.936V132.572C114.714 132.694 114.836 132.694 114.714 132.815V132.936C114.714 133.179 114.592 132.936 114.714 133.179C114.714 132.936 114.471 133.3 114.471 132.936V132.572C114.471 132.572 114.349 132.936 114.349 133.058V132.936C114.349 133.421 114.227 132.936 114.105 133.3C113.984 133.179 113.74 133.3 113.74 132.936C113.618 133.058 113.618 133.3 113.496 133.179C113.496 133.179 113.496 133.058 113.496 132.936C113.375 132.815 113.375 132.936 113.375 133.058C113.375 132.936 113.253 132.694 113.131 132.572C113.009 132.694 113.131 133.058 113.009 133.179C112.888 132.694 112.766 133.543 112.644 133.058C112.644 132.936 112.766 132.815 112.766 132.694C112.644 132.209 112.522 133.058 112.4 132.815V133.3C112.4 133.058 112.157 133.543 112.157 133.058C112.157 133.179 112.035 132.936 112.035 133.3C111.792 132.936 111.426 133.421 111.304 132.694C111.304 132.815 111.183 132.694 111.183 132.936C111.183 133.179 111.304 132.815 111.304 132.936C111.304 132.936 111.304 133.058 111.183 133.179C111.061 133.058 111.061 133.058 111.183 132.694C111.061 132.451 110.939 133.421 110.696 133.179C110.696 133.058 110.696 132.936 110.696 132.936L110.574 133.179C110.452 133.058 110.574 132.815 110.574 132.451C110.452 132.451 110.452 132.451 110.33 132.694V132.33C110.33 132.572 110.208 132.451 110.208 132.572V132.451C110.208 132.33 110.087 132.33 110.087 132.451C110.087 132.694 110.087 132.694 110.208 132.815C110.087 132.936 110.087 132.936 109.965 133.058C110.087 132.815 109.843 132.815 109.843 132.815C109.843 132.694 109.721 133.058 109.721 133.058C109.721 132.936 109.6 133.058 109.721 132.815C109.721 132.815 109.721 132.936 109.843 132.815C109.843 132.694 109.843 132.451 109.721 132.572C109.6 132.694 109.6 133.179 109.478 132.936C109.478 132.936 109.6 132.815 109.6 132.694L109.478 132.451L109.356 132.694C109.356 132.572 109.356 132.572 109.356 132.572C109.234 132.815 109.112 132.572 108.991 132.936C108.869 132.936 108.869 132.694 108.869 132.694C108.869 132.572 108.747 132.572 108.625 132.694C108.625 132.694 108.504 132.694 108.382 132.815C108.382 132.572 108.747 131.845 108.504 132.087C108.382 132.087 108.138 132.451 108.138 132.694C108.016 132.451 107.651 132.815 107.651 132.33C107.529 132.451 107.529 132.451 107.529 132.572C107.286 132.33 106.92 132.572 107.042 132.087C107.164 131.966 107.164 131.845 107.286 131.723C107.164 131.966 107.408 131.481 107.164 131.845C107.042 132.087 107.042 132.209 107.042 132.33C106.92 132.451 106.92 132.451 106.92 132.209C106.92 132.33 106.92 132.451 106.799 132.451C106.92 132.087 106.92 131.966 106.799 132.087V132.33V132.087C106.799 132.209 106.677 132.572 106.677 132.33C106.677 132.209 106.677 132.087 106.677 132.087C106.555 132.33 106.555 132.572 106.555 132.451V132.087C106.555 132.087 106.555 132.33 106.555 132.451C106.555 132.209 106.433 132.209 106.433 131.966C106.433 132.694 106.433 132.815 106.312 132.815L106.19 132.694C106.068 132.572 106.312 132.936 106.312 132.815C106.19 132.694 106.068 132.572 106.068 132.33C105.946 132.209 106.19 132.572 106.19 132.694C106.312 132.936 106.068 132.572 106.312 132.815C106.312 132.936 106.19 132.694 106.433 132.936C106.312 132.815 106.19 132.572 106.068 132.572L105.946 132.209C105.581 131.966 105.581 131.602 105.216 131.238V131.36C104.972 131.117 105.094 130.874 104.85 130.874C104.85 131.117 105.216 131.481 105.337 131.602C105.337 131.723 105.824 132.209 105.703 132.33C105.581 132.209 105.703 132.209 105.581 132.087C105.337 131.966 105.581 132.33 105.459 132.209C105.581 132.209 105.824 132.572 105.824 132.572C105.703 132.451 105.581 132.33 105.581 132.33C105.703 132.451 105.824 132.694 105.946 132.694C106.312 133.058 105.824 132.694 106.068 132.936C105.824 132.694 105.581 132.33 105.337 132.33C105.581 132.572 105.581 132.694 105.946 132.936C105.824 132.936 105.703 132.694 105.581 132.572C105.337 132.451 105.946 133.058 105.459 132.694L105.703 132.936C105.581 132.936 105.581 132.815 105.337 132.815C105.337 132.815 105.581 133.179 105.216 132.936C105.216 132.936 105.094 133.179 105.459 133.3C105.703 133.3 105.337 133.058 105.703 133.179C105.337 133.058 105.581 133.421 105.703 133.543L105.581 133.421C105.581 133.543 105.459 133.543 105.581 133.785C105.581 133.664 105.459 133.664 105.337 133.664L105.459 133.907C105.459 134.271 105.094 133.543 104.972 133.785L104.85 133.543C104.85 133.664 104.607 133.421 104.607 133.664C104.728 133.907 104.972 134.149 105.094 134.392C105.094 134.634 104.85 134.149 104.972 134.513L104.85 134.149C104.85 134.028 104.485 133.907 104.363 134.028C104.363 134.149 104.485 134.634 104.728 134.634C104.728 134.756 104.485 134.634 104.485 134.392C104.363 134.634 104.728 134.634 104.607 134.877C104.485 134.756 104.241 134.756 103.998 134.513L103.876 134.028H103.754C103.632 133.664 103.632 133.785 103.389 133.421C103.267 133.421 103.389 133.543 103.389 133.664C103.754 134.028 103.632 134.513 103.876 134.998C103.754 135.241 103.145 133.907 103.267 134.756C103.389 134.877 103.389 135.362 103.511 135.12C103.389 135.12 103.632 135.726 103.267 135.605C103.389 135.362 102.902 135.12 103.024 134.756C103.024 134.877 103.145 134.877 103.145 134.756C103.024 134.634 103.024 134.271 102.78 134.271C102.78 134.392 102.658 134.392 102.658 134.634C102.78 134.877 102.78 134.513 102.78 134.877C102.658 134.998 102.415 134.634 102.536 135.12C102.658 134.998 102.78 135.362 102.78 135.483L102.658 135.605V135.362C102.415 135.241 102.658 135.726 102.415 135.726L102.171 135.362C102.171 134.998 102.536 135.483 102.415 134.877C102.293 134.877 102.293 135.12 102.049 134.998L102.171 134.877C102.049 134.877 101.928 134.149 101.806 134.513C101.684 134.634 101.806 134.756 101.806 134.877C101.562 134.877 101.562 135.12 101.319 135.12C101.319 134.756 101.075 134.998 101.197 134.634C101.319 134.877 101.562 134.998 101.684 134.513C101.562 134.028 101.928 134.634 101.806 134.149C101.684 134.149 101.562 133.664 101.562 133.3L101.44 133.421C101.44 133.664 101.44 133.785 101.562 134.028C101.44 133.907 101.197 134.028 101.075 134.271C101.075 134.149 101.075 133.785 101.075 133.785C100.832 133.785 100.71 133.664 100.466 133.421C100.466 134.028 100.223 133.421 100.223 133.907C100.344 134.028 100.344 134.513 100.223 134.634C100.101 134.513 100.223 134.392 100.223 134.271C100.101 134.513 100.101 133.785 99.9791 134.149C100.223 134.149 100.223 133.543 100.344 133.179C100.101 133.3 100.466 132.936 100.344 132.815C100.101 132.936 99.9791 133.058 99.8574 133.058C99.8574 132.694 99.6138 132.936 99.492 132.936C99.492 132.694 99.6138 132.33 99.492 132.209C99.3703 132.209 99.492 132.694 99.3703 132.451V132.33C99.3703 132.451 99.1267 131.966 99.1267 132.572L99.2485 132.087C99.2485 132.087 99.2485 132.087 99.1267 132.209C99.1267 132.087 99.1267 131.966 99.1267 131.845C99.0049 131.481 99.0049 131.845 98.8831 131.966V132.209C98.7614 132.451 98.6396 132.209 98.5178 132.33V132.087L98.396 132.209C98.396 131.966 98.2743 131.845 98.2743 131.966C98.2743 131.723 98.396 131.481 98.396 131.238C98.5178 131.36 98.396 131.602 98.396 131.845C98.396 132.087 98.5178 131.966 98.6396 131.723C98.6396 131.723 98.6396 131.723 98.5178 131.845C98.5178 131.481 98.5178 131.481 98.6396 131.238C98.6396 131.238 98.5178 131.117 98.5178 131.238C98.5178 130.996 98.6396 130.996 98.7614 130.996C98.6396 131.117 98.7614 131.238 98.7614 131.36C98.7614 130.996 98.8832 130.874 99.0049 130.996C99.1267 131.36 99.2485 130.753 99.492 130.874C99.3703 131.238 99.2485 131.481 99.2485 131.602C99.3703 131.723 99.3703 131.602 99.3703 131.723C99.492 131.481 99.492 131.117 99.6138 130.996V131.238C99.7356 131.117 99.8574 130.753 99.9791 130.874C100.223 130.996 100.466 131.117 100.588 131.238L100.466 131.481C100.71 130.996 100.71 131.36 100.832 131.238C100.953 131.602 101.075 131.117 101.197 131.602C101.44 131.481 101.562 131.238 101.806 131.238L101.928 131.723C101.806 131.36 102.049 131.966 102.049 131.845C101.928 131.602 101.928 131.36 101.806 131.117C102.049 131.36 101.928 130.874 101.806 130.632L101.928 130.874C101.684 130.389 101.928 130.632 102.049 130.632C102.171 130.753 102.293 130.874 102.293 130.753C102.049 130.389 102.049 130.389 101.928 130.147C101.928 130.147 102.171 130.025 102.415 130.025C102.293 129.298 102.902 129.176 103.267 128.449L103.511 128.691C103.632 128.206 103.998 128.085 104.363 127.963C104.728 127.842 105.094 127.842 105.337 127.599V128.085C105.459 128.206 105.703 127.963 105.703 127.599C105.824 127.721 106.19 127.357 106.312 127.842C106.433 127.963 106.555 127.599 106.799 127.599C107.164 127.842 107.286 127.842 107.651 127.963L107.529 127.842C107.408 127.963 107.408 128.085 107.408 128.206C107.529 128.085 107.773 128.57 107.895 127.963C108.016 128.449 108.625 127.963 108.504 128.449C108.504 128.327 108.625 128.327 108.625 128.206C108.747 128.206 108.747 128.57 108.991 128.449C108.991 128.57 108.869 128.691 108.869 128.691L108.991 128.449C109.356 128.327 109.356 128.934 109.6 128.934C110.087 128.691 110.452 128.934 110.939 128.934V129.055C111.061 128.57 111.183 129.54 111.426 128.934C111.426 129.055 111.548 129.055 111.548 129.176C111.67 128.812 111.913 129.419 112.035 129.055C112.035 129.055 112.035 129.055 112.035 129.176C112.157 129.419 112.4 129.055 112.522 129.298C112.522 129.298 112.522 129.419 112.522 129.54C112.644 129.783 112.644 129.055 112.766 129.54V129.298C113.253 129.54 113.618 129.055 114.105 128.934C114.471 129.298 114.227 129.904 114.471 129.419C114.471 129.54 114.471 129.176 114.471 129.298C114.592 129.176 114.714 129.904 114.714 129.661C114.592 129.298 114.714 129.419 114.714 129.298C114.958 129.54 115.08 129.783 115.201 129.54V129.783C115.323 129.298 115.567 129.54 115.688 128.812C116.663 128.57 117.637 128.085 118.733 127.842C119.829 127.842 120.925 127.478 122.143 127.842C122.386 128.327 122.386 128.327 122.752 128.085C122.752 128.206 122.752 128.206 122.752 128.206C122.752 127.842 122.995 128.206 122.995 127.842C123.482 127.963 123.847 127.963 124.335 127.963C124.213 127.963 124.213 128.327 124.213 128.327L124.335 128.085V128.206C124.456 128.206 124.456 127.963 124.456 127.842C125.796 127.721 126.648 128.934 127.744 129.298C127.866 129.54 128.353 129.54 128.597 129.661C129.084 130.51 129.449 131.238 130.423 131.36C131.154 131.966 130.423 132.815 130.058 132.815Z" fill="#090A0A"/>
<path d="M98.7614 131.966C98.8832 132.209 99.0049 132.209 98.8832 132.573C98.8832 132.33 98.7614 132.088 98.7614 131.966Z" fill="#090A0A"/>
<path d="M100.71 134.271V134.392C100.71 134.392 100.588 134.513 100.588 134.392C100.71 134.392 100.71 134.271 100.71 134.271Z" fill="#090A0A"/>
<path d="M101.562 134.756C101.562 134.998 101.319 134.998 101.197 134.998C101.319 134.877 101.44 134.877 101.562 134.756Z" fill="#090A0A"/>
<path d="M102.415 135.605C102.536 135.726 102.536 135.848 102.415 135.848C102.293 135.848 102.293 135.726 102.415 135.605Z" fill="#090A0A"/>
<path d="M102.415 135.241C102.536 135.241 102.536 135.363 102.536 135.484C102.536 135.363 102.415 135.605 102.415 135.241Z" fill="#090A0A"/>
<path d="M104.363 135.12C104.363 135.12 104.363 134.877 104.485 134.998C104.363 134.877 104.363 135.362 104.363 135.12Z" fill="#090A0A"/>
<path d="M104.85 134.149C104.972 134.149 104.972 134.271 104.972 134.271L104.85 134.149Z" fill="#090A0A"/>
<path d="M117.15 132.694C117.15 132.572 117.272 132.815 117.272 132.936C117.15 132.936 117.15 132.694 117.15 132.694Z" fill="#090A0A"/>
<path d="M85.853 126.629H70.1437C67.4646 126.629 65.2726 128.813 65.2726 131.481V147.128C65.2726 149.796 67.4646 151.979 70.1437 151.979H85.853C88.5321 151.979 90.7241 149.796 90.7241 147.128V131.481C90.7241 128.813 88.5321 126.629 85.853 126.629Z" fill="#7D69FF"/>
<path d="M74.893 145.308C74.5277 145.308 74.1624 145.187 73.797 144.823L70.8744 141.912C70.2655 141.305 70.2655 140.335 70.8744 139.729C71.4833 139.122 72.4575 139.122 73.0664 139.729L74.893 141.548L82.9303 133.543C83.5392 132.936 84.5134 132.936 85.1223 133.543C85.7312 134.149 85.7312 135.12 85.1223 135.726L75.989 144.823C75.7455 145.187 75.3801 145.308 74.893 145.308Z" fill="white"/>
<path d="M209.944 127.236C207.265 127.236 204.708 128.206 202.881 130.025C201.42 131.481 200.324 133.3 200.08 135.362L200.202 128.085C200.202 125.416 199.228 122.869 197.401 121.05C195.696 119.23 193.139 118.139 190.46 118.018C185.223 117.896 180.839 121.899 180.474 127.114V124.81C180.474 122.141 179.5 119.594 177.673 117.775C175.968 115.956 173.411 114.864 170.732 114.743C165.252 114.621 160.746 118.988 160.624 124.446L161.233 86.3602C161.355 80.9021 156.971 76.4143 151.491 76.293C148.812 76.293 146.255 77.2633 144.428 79.0827C142.601 80.7808 141.505 83.3279 141.383 85.9964L140.287 156.831H137.852L122.386 135.848C119.464 131.238 110.452 129.783 105.824 132.694C103.998 133.907 102.658 135.484 101.928 137.424C101.44 138.516 101.197 139.729 101.197 140.942C101.197 142.761 101.684 144.581 102.658 146.279L133.59 196.251C141.871 209.715 156.484 217.962 172.315 218.205C185.101 218.448 196.792 213.475 205.195 205.227C213.719 196.979 219.077 185.577 219.321 172.842L219.808 139.244V137.06C219.808 131.724 215.424 127.236 209.944 127.236Z" fill="white"/>
<path d="M160.137 157.195L160.624 124.446L161.233 86.3602C161.355 80.9021 156.971 76.4143 151.491 76.293C148.812 76.293 146.255 77.2633 144.428 79.0827C142.601 80.7808 141.505 83.3279 141.383 85.9964L140.287 156.831H137.852L122.386 135.848C119.464 131.238 110.452 129.783 105.824 132.694C103.998 133.907 102.658 135.484 101.928 137.424C101.44 138.516 101.197 139.729 101.197 140.942C101.197 142.761 101.684 144.581 102.658 146.279L133.59 196.251C141.871 209.715 156.484 217.962 172.315 218.205C185.101 218.448 196.792 213.475 205.195 205.227C213.719 196.979 219.077 185.577 219.321 172.842L219.808 139.244V137.06C219.93 131.602 215.546 127.114 210.066 127.114C207.387 127.114 204.829 128.085 203.003 129.904C201.541 131.36 200.445 133.179 200.202 135.241C200.08 135.726 200.08 136.211 200.08 136.818L199.715 155.618" stroke="#090A0A" stroke-width="2.5" stroke-miterlimit="10" stroke-linecap="round" stroke-linejoin="round"/>
<path d="M160.624 124.567C160.746 119.109 165.252 114.743 170.732 114.864C173.411 114.864 175.968 116.077 177.673 117.896C179.5 119.715 180.474 122.141 180.474 124.931V127.236" stroke="#090A0A" stroke-width="2.5" stroke-miterlimit="10" stroke-linecap="round" stroke-linejoin="round"/>
<path d="M179.987 154.284L180.352 127.721C180.352 127.478 180.352 127.236 180.352 127.115C180.718 122.02 185.101 118.018 190.338 118.018C193.017 118.018 195.574 119.231 197.279 121.05C198.984 122.869 200.08 125.295 200.08 128.085L199.958 135.362" stroke="#090A0A" stroke-width="2.5" stroke-miterlimit="10" stroke-linecap="round" stroke-linejoin="round"/>
</g>
<defs>
<clipPath id="clip0">
<rect width="222" height="229" fill="white"/>
</clipPath>
</defs>
</svg>
