<svg xmlns="http://www.w3.org/2000/svg" width="128" height="128" viewBox="0 0 128 128">
  <path fill-rule="evenodd" d="M67.5345,48.3121 L68.3995,43.6621 C67.9875,43.5381 67.2865,43.3741 66.3415,43.3741 C62.7175,43.3741 59.7935,46.7901 59.7935,50.7831 C59.7935,52.5961 60.6985,53.9151 62.5125,53.9151 C64.8995,53.9151 67.0825,50.8671 67.5345,48.3121 Z M63.3335,63.0941 C56.5815,63.0941 50.8575,58.1521 50.8575,50.2471 C50.8575,41.7671 56.7455,34.4341 65.8885,34.4341 C73.0545,34.4341 77.8715,39.4601 77.8715,46.3361 C77.8715,52.5121 74.4115,56.1371 70.5425,56.1371 C68.8925,56.1371 67.3705,55.0241 67.4945,52.5121 L67.3305,52.5121 C65.8885,54.9441 63.9945,56.1371 61.5225,56.1371 C59.1365,56.1371 57.0775,54.2031 57.0775,50.9471 C57.0775,45.8401 61.1105,41.1901 66.8345,41.1901 C68.6045,41.1901 70.1705,41.5591 71.2395,42.0551 L69.8415,49.5051 C69.2245,52.6371 69.7175,54.0791 71.0755,54.1191 C73.1785,54.1591 75.5245,51.3601 75.5245,46.5821 C75.5245,40.6141 71.9405,36.3291 65.5595,36.3291 C58.8475,36.3291 53.2045,41.6431 53.2045,50.0011 C53.2045,56.8781 57.6945,61.1201 63.7865,61.1201 C66.1335,61.1201 68.3155,60.6241 70.0065,59.6781 L70.6635,61.4481 C68.3995,62.6411 66.0935,63.0941 63.3335,63.0941 Z M36.99,21 L91.74,21 L91.74,44.396 L104.729,55.367 L104.729,106.263 L24,106.263 L24,55.366 L36.99,44.396 L36.99,21 Z M38.99,66.338 L64.364,87.771 L89.74,66.338 L89.74,23 L38.99,23 L38.99,66.338 Z M91.74,47.013 L91.74,64.649 L102.18,55.831 L91.74,47.013 Z M26.549,55.831 L36.99,64.649 L36.99,47.014 L26.549,55.831 Z M76.016,80.548 L102.73,103.11 L102.73,57.984 L76.016,80.548 Z M26,57.985 L26,103.109 L52.713,80.548 L26,57.985 Z M74.466,81.856 L64.364,90.388 L54.263,81.856 L27.733,104.264 L100.996,104.264 L74.466,81.856 Z"/>
</svg>
