<svg xmlns="http://www.w3.org/2000/svg" width="24" height="24" viewBox="0 0 24 24">
  <path fill-rule="evenodd" d="M12.001,5 C10.623,5 9.501,6.121 9.501,7.5 C9.501,8.879 10.623,10 12.001,10 C13.379,10 14.501,8.879 14.501,7.5 C14.501,6.121 13.379,5 12.001,5 Z M12.001,12 C9.52,12 7.501,9.981 7.501,7.5 C7.501,5.019 9.52,3 12.001,3 C14.482,3 16.501,5.019 16.501,7.5 C16.501,9.981 14.482,12 12.001,12 Z M12,13 C16.411,13 20,16.589 20,21 L18,21 C18,17.691 15.309,15 12,15 C8.691,15 6,17.691 6,21 L4,21 C4,16.589 7.589,13 12,13 Z"/>
</svg>
