<svg xmlns="http://www.w3.org/2000/svg" width="128" height="128" viewBox="0 0 128 128">
  <path fill-rule="evenodd" d="M79.0493,89.5069 C75.3793,83.6859 69.1823,79.6079 61.3723,78.0909 C63.8523,77.1269 66.0913,75.6809 67.9583,73.8489 C71.2433,72.2299 75.1243,71.3729 79.1943,71.3729 C91.5383,71.3729 100.2713,78.7779 100.7813,89.5069 L79.0493,89.5069 Z M28.0193,101.8059 C28.5323,88.5799 39.2253,79.4309 54.3753,79.4309 C69.5253,79.4309 80.2183,88.5799 80.7313,101.8059 L28.0193,101.8059 Z M36.9643,60.0049 L36.9643,50.3299 C37.2773,50.1209 37.5903,49.9029 37.8983,49.6769 C39.7363,48.3199 41.0683,46.9699 41.7513,46.2209 C44.1633,47.3199 52.4153,50.8949 61.1223,52.5069 C65.5523,53.3269 69.1373,53.8089 71.7863,54.0909 L71.7863,60.0049 C71.7863,69.6059 63.9753,77.4159 54.3753,77.4159 C44.7743,77.4159 36.9643,69.6059 36.9643,60.0049 Z M32.5713,48.8039 C32.5713,36.7809 42.3523,26.9999 54.3753,26.9999 C66.3983,26.9999 76.1793,36.7809 76.1793,48.8039 L76.1793,52.4459 C74.1183,52.3329 68.9983,51.9319 61.4863,50.5399 C51.6163,48.7119 42.0203,44.1419 41.9243,44.0959 L41.2103,43.7529 L40.7133,44.3689 C40.6983,44.3879 39.2023,46.2279 36.7103,48.0679 C35.2793,49.1229 33.6813,50.0029 32.5713,50.5649 L32.5713,48.8039 Z M79.1943,28.5219 C89.3703,28.5219 97.6513,36.8019 97.6513,46.9799 L97.6513,66.8199 C96.3423,67.2689 92.9723,68.2789 87.7683,68.8809 C92.3433,66.0139 95.4013,60.9399 95.4013,55.1529 L95.4013,46.1179 L95.1123,45.8259 C94.9483,45.6589 90.9453,41.7359 79.1943,41.7359 C78.5253,41.7359 77.8403,41.7569 77.1233,41.7899 C75.8113,37.5409 73.3353,33.8009 70.0733,30.9329 C72.8473,29.3519 75.9743,28.5219 79.1943,28.5219 Z M73.7863,54.2839 C75.9023,54.4659 77.0593,54.4869 77.1633,54.4889 L78.1793,54.5049 L78.1793,48.8039 C78.1793,47.0759 77.9893,45.3929 77.6383,43.7679 C78.1703,43.7479 78.6863,43.7359 79.1943,43.7359 C88.3173,43.7359 92.3533,46.2129 93.4013,46.9959 L93.4013,55.1529 C93.4013,62.9869 87.0283,69.3609 79.1943,69.3609 C76.7613,69.3609 74.3843,68.7309 72.2633,67.5399 C73.2433,65.2219 73.7863,62.6759 73.7863,60.0049 L73.7863,54.2839 Z M102.8053,90.5069 C102.8053,81.0589 97.2033,73.7779 88.4233,70.8199 C95.1653,69.9999 98.8253,68.5279 99.0323,68.4429 L99.6513,68.1879 L99.6513,46.9799 C99.6513,35.6989 90.4743,26.5219 79.1943,26.5219 C75.3623,26.5219 71.6593,27.5929 68.4223,29.6039 C64.4823,26.7129 59.6253,24.9999 54.3753,24.9999 C41.2493,24.9999 30.5713,35.6789 30.5713,48.8039 L30.5713,53.6679 L31.9663,53.0669 C32.0503,53.0309 33.3433,52.4689 34.9643,51.5549 L34.9643,60.0049 C34.9643,68.2389 40.1273,75.2749 47.3783,78.0909 C34.5023,80.5919 26.0003,90.0549 26.0003,102.8059 L26.0003,103.8059 L82.7503,103.8059 L82.7503,102.8059 C82.7503,98.6479 81.8443,94.8399 80.1793,91.5069 L102.8053,91.5069 L102.8053,90.5069 Z M62.2622,62.9893 L60.2622,62.9893 C60.2622,66.2353 57.6212,68.8773 54.3752,68.8773 C51.1292,68.8773 48.4882,66.2353 48.4882,62.9893 L46.4882,62.9893 C46.4882,67.3393 50.0262,70.8773 54.3752,70.8773 C58.7242,70.8773 62.2622,67.3393 62.2622,62.9893"/>
</svg>
