<svg xmlns="http://www.w3.org/2000/svg" width="128" height="128" viewBox="0 0 128 128">
  <path fill-rule="evenodd" d="M81.748,21 L81.748,105.187 L73.68,105.187 L73.68,51.774 L53.545,51.774 L53.545,105.187 L45.479,105.187 L45.479,74.061 L25.343,74.061 L25.343,105.187 L18,105.187 L18,107.187 L25.343,107.187 L45.479,107.187 L53.545,107.187 L73.68,107.187 L81.748,107.187 L101.884,107.187 L109.224,107.187 L109.224,105.187 L101.884,105.187 L101.884,21 L81.748,21 Z M83.748,105.187 L99.884,105.187 L99.884,23 L83.748,23 L83.748,105.187 Z M55.545,105.186 L71.68,105.186 L71.68,53.773 L55.545,53.773 L55.545,105.186 Z M27.343,105.187 L43.478,105.187 L43.478,76.062 L27.343,76.062 L27.343,105.187 Z"/>
</svg>
