<svg xmlns="http://www.w3.org/2000/svg" width="24" height="24" viewBox="0 0 24 24">
  <path fill-rule="evenodd" d="M12.0005024,16 C9.79072981,16 8,14.2084903 8,12 C8,9.7905049 9.79072981,8 12.0005024,8 C14.2092702,8 16,9.7905049 16,12 C16,14.2084903 14.2092702,16 12.0005024,16 Z M21,13.8747634 L21,10.1252366 L18.8696575,10.1252366 C18.7126958,9.54798921 18.4824164,8.99242728 18.1829499,8.46990993 L19.6906087,6.96225116 L17.0387815,4.31042396 L15.5311227,5.81808273 C15.0086054,5.51861626 14.4530434,5.28833687 13.8747634,5.13034249 L13.8747634,3 L10.1252366,3 L10.1252366,5.13034249 C9.54798921,5.28833687 8.99242728,5.51861626 8.46990993,5.81705008 L6.96225116,4.31042396 L4.31042396,6.96225116 L5.81808273,8.46990993 C5.51861626,8.99139464 5.28833687,9.54695657 5.13034249,10.1252366 L3,10.1252366 L3,13.8747634 L5.13034249,13.8747634 C5.28833687,14.4540761 5.51861626,15.0075727 5.81808273,15.5311227 L4.31042396,17.0377488 L6.96225116,19.689576 L8.46990993,18.1829499 C8.99242728,18.4824164 9.54798921,18.7126958 10.1252366,18.8706901 L10.1252366,21 L13.8747634,21 L13.8747634,18.8706901 C14.4530434,18.7126958 15.0086054,18.4824164 15.5311227,18.1829499 L17.0377488,19.6906087 L19.6906087,17.0377488 L18.1829499,15.5311227 C18.4824164,15.0086054 18.7126958,14.4530434 18.8696575,13.8747634 L21,13.8747634 Z"/>
</svg>
