<svg xmlns="http://www.w3.org/2000/svg" width="128" height="128" viewBox="0 0 128 128">
  <path fill-rule="evenodd" d="M64.293,77.121 C57.22,77.121 51.465,71.366 51.465,64.293 C51.465,57.22 57.22,51.465 64.293,51.465 C71.366,51.465 77.121,57.22 77.121,64.293 C77.121,71.366 71.366,77.121 64.293,77.121 M64.293,49.465 C72.469,49.465 79.121,56.117 79.121,64.293 C79.121,72.469 72.469,79.121 64.293,79.121 C56.117,79.121 49.465,72.469 49.465,64.293 C49.465,56.117 56.117,49.465 64.293,49.465 Z M94.6456,72.578 L95.0476,71.104 L96.5756,71.104 L104.5856,71.104 L104.5856,57.481 L96.5756,57.481 L95.0476,57.481 L94.6456,56.008 C93.9526,53.464 92.9306,51.004 91.6096,48.697 L90.8496,47.371 L91.9306,46.289 L97.6006,40.618 L87.9686,30.987 L82.2996,36.656 L81.2186,37.737 L79.8926,36.978 C77.5846,35.657 75.1236,34.636 72.5786,33.942 L71.1036,33.54 L71.1036,32.013 L71.1036,24 L57.4816,24 L57.4816,32.013 L57.4816,33.54 L56.0076,33.942 C53.4616,34.636 51.0016,35.656 48.6976,36.976 L47.3706,37.736 L46.2896,36.655 L40.6186,30.985 L30.9856,40.617 L36.6566,46.288 L37.7376,47.369 L36.9776,48.696 C35.6566,51.003 34.6346,53.463 33.9416,56.008 L33.5406,57.481 L32.0126,57.481 L23.9996,57.481 L23.9996,71.104 L32.0106,71.104 L33.5386,71.104 L33.9396,72.578 C34.6336,75.122 35.6546,77.582 36.9766,79.89 L37.7356,81.218 L36.6546,82.299 L30.9856,87.968 L40.6166,97.599 L46.2856,91.931 L47.3666,90.85 L48.6936,91.609 C51.0016,92.931 53.4626,93.952 56.0076,94.645 L57.4816,95.048 L57.4816,96.575 L57.4816,104.586 L71.1036,104.586 L71.1036,96.575 L71.1036,95.048 L72.5786,94.645 C75.1226,93.953 77.5836,92.932 79.8906,91.61 L81.2176,90.849 L82.2986,91.932 L87.9676,97.601 L97.6006,87.969 L91.9306,82.298 L90.8496,81.217 L91.6096,79.89 C92.9296,77.586 93.9516,75.126 94.6456,72.578 Z M106.5856,73.104 L96.5756,73.104 C95.8356,75.817 94.7526,78.427 93.3456,80.884 L100.4286,87.97 L87.9676,100.431 L80.8836,93.346 C78.4266,94.753 75.8216,95.835 73.1036,96.575 L73.1036,106.586 L55.4816,106.586 L55.4816,96.575 C52.7666,95.835 50.1596,94.753 47.6996,93.346 L40.6166,100.429 L28.1576,87.968 L35.2406,80.884 C33.8326,78.425 32.7506,75.819 32.0106,73.104 L21.9996,73.104 L21.9996,55.481 L32.0126,55.481 C32.7516,52.765 33.8346,50.159 35.2426,47.702 L28.1576,40.617 L40.6186,28.157 L47.7036,35.241 C50.1596,33.835 52.7666,32.752 55.4816,32.013 L55.4816,22 L73.1036,22 L73.1036,32.013 C75.8196,32.752 78.4266,33.835 80.8856,35.242 L87.9686,28.159 L100.4286,40.618 L93.3456,47.703 C94.7526,50.161 95.8356,52.766 96.5756,55.481 L106.5856,55.481 L106.5856,73.104 Z"/>
</svg>
